<svg version="1.1" xmlns="http://www.w3.org/2000/svg" xmlns:xlink="http://www.w3.org/1999/xlink" width="853" height="67"><defs/><g><text fill="#eeeeee" stroke="none" font-family="Arial" font-size="24px" font-style="normal" font-weight="normal" text-decoration="none" x="0" y="0">UNREGISTERED</text><text fill="#eeeeee" stroke="none" font-family="Arial" font-size="24px" font-style="normal" font-weight="normal" text-decoration="none" x="0" y="30">UNREGISTERED</text><text fill="#eeeeee" stroke="none" font-family="Arial" font-size="24px" font-style="normal" font-weight="normal" text-decoration="none" x="0" y="60">UNREGISTERED</text><text fill="#eeeeee" stroke="none" font-family="Arial" font-size="24px" font-style="normal" font-weight="normal" text-decoration="none" x="200" y="0">UNREGISTERED</text><text fill="#eeeeee" stroke="none" font-family="Arial" font-size="24px" font-style="normal" font-weight="normal" text-decoration="none" x="200" y="30">UNREGISTERED</text><text fill="#eeeeee" stroke="none" font-family="Arial" font-size="24px" font-style="normal" font-weight="normal" text-decoration="none" x="200" y="60">UNREGISTERED</text><text fill="#eeeeee" stroke="none" font-family="Arial" font-size="24px" font-style="normal" font-weight="normal" text-decoration="none" x="400" y="0">UNREGISTERED</text><text fill="#eeeeee" stroke="none" font-family="Arial" font-size="24px" font-style="normal" font-weight="normal" text-decoration="none" x="400" y="30">UNREGISTERED</text><text fill="#eeeeee" stroke="none" font-family="Arial" font-size="24px" font-style="normal" font-weight="normal" text-decoration="none" x="400" y="60">UNREGISTERED</text><text fill="#eeeeee" stroke="none" font-family="Arial" font-size="24px" font-style="normal" font-weight="normal" text-decoration="none" x="600" y="0">UNREGISTERED</text><text fill="#eeeeee" stroke="none" font-family="Arial" font-size="24px" font-style="normal" font-weight="normal" text-decoration="none" x="600" y="30">UNREGISTERED</text><text fill="#eeeeee" stroke="none" font-family="Arial" font-size="24px" font-style="normal" font-weight="normal" text-decoration="none" x="600" y="60">UNREGISTERED</text><text fill="#eeeeee" stroke="none" font-family="Arial" font-size="24px" font-style="normal" font-weight="normal" text-decoration="none" x="800" y="0">UNREGISTERED</text><text fill="#eeeeee" stroke="none" font-family="Arial" font-size="24px" font-style="normal" font-weight="normal" text-decoration="none" x="800" y="30">UNREGISTERED</text><text fill="#eeeeee" stroke="none" font-family="Arial" font-size="24px" font-style="normal" font-weight="normal" text-decoration="none" x="800" y="60">UNREGISTERED</text><g transform="translate(-102,-262) scale(1,1)"><path fill="#C0C0C0" stroke="none" d="M 119 304.5 C 119 299.2532944 123.2532944 295 128.5 295 C 133.7467056 295 138 299.2532944 138 304.5 C 138 309.7467056 133.7467056 314 128.5 314 C 123.2532944 314 119 309.7467056 119 304.5 Z" opacity="0.2"/></g><g transform="translate(-102,-262) scale(1,1)"><path fill="#000000" stroke="none" d="M 112 297.5 C 112 292.2532944 116.2532944 288 121.5 288 C 126.7467056 288 131 292.2532944 131 297.5 C 131 302.7467056 126.7467056 307 121.5 307 C 116.2532944 307 112 302.7467056 112 297.5 Z"/></g><g transform="translate(-102,-262) scale(1,1)"><path fill="#C0C0C0" stroke="none" d="M 401 279 L 534.49169921875 279 Q 544.49169921875 279 544.49169921875 289 L 544.49169921875 316 Q 544.49169921875 326 534.49169921875 326 L 401 326 Q 391 326 391 316 L 391 289 Q 391 279 401 279 Z" opacity="0.2"/></g><g transform="translate(-102,-262) scale(1,1)"><path fill="#ffffff" stroke="none" d="M 394 272 L 527.49169921875 272 Q 537.49169921875 272 537.49169921875 282 L 537.49169921875 309 Q 537.49169921875 319 527.49169921875 319 L 394 319 Q 384 319 384 309 L 384 282 Q 384 272 394 272 Z"/></g><g transform="translate(-102,-262) scale(1,1)"><path fill="none" stroke="#000000" d="M 394 272 L 527.49169921875 272 Q 537.49169921875 272 537.49169921875 282 L 537.49169921875 309 Q 537.49169921875 319 527.49169921875 319 L 394 319 Q 384 319 384 309 L 384 282 Q 384 272 394 272 Z" stroke-miterlimit="10"/></g><g transform="translate(-102,-262) scale(1,1)"><path fill="none" stroke="#000000" d="M 384 297 L 537.49169921875 297" stroke-miterlimit="10"/></g><g transform="translate(-102,-262) scale(1,1)"><g><path fill="none" stroke="none"/><text fill="#000000" stroke="none" font-family="Arial" font-size="13px" font-style="normal" font-weight="bold" text-decoration="none" x="413.430419921875" y="290">Ultima Cotação</text></g></g><g transform="translate(-102,-262) scale(1,1)"><g><path fill="none" stroke="none"/><text fill="#000000" stroke="none" font-family="Arial" font-size="13px" font-style="normal" font-weight="normal" text-decoration="none" x="389" y="313">do/UltimaCotacao</text></g></g><g transform="translate(-102,-262) scale(1,1)"><path fill="none" stroke="#000000" d="M 132 297 L 383 295" stroke-miterlimit="10"/></g><g transform="translate(-102,-262) scale(1,1)"><path fill="none" stroke="#000000" d="M 372.87118865588633 299.29035904737054 L 383 295 L 372.8041068370972 290.87159078933877" stroke-miterlimit="10"/></g><g transform="translate(-102,-262) scale(1,1)"><g><path fill="none" stroke="none"/><text fill="#000000" stroke="none" font-family="Arial" font-size="13px" font-style="normal" font-weight="normal" text-decoration="none" x="136.5" y="286"> [Recebe Informações da última Cotação]</text></g></g><g transform="translate(-102,-262) scale(1,1)"><path fill="#C0C0C0" stroke="none" d="M 697 279 L 754.63720703125 279 Q 764.63720703125 279 764.63720703125 289 L 764.63720703125 316 Q 764.63720703125 326 754.63720703125 326 L 697 326 Q 687 326 687 316 L 687 289 Q 687 279 697 279 Z" opacity="0.2"/></g><g transform="translate(-102,-262) scale(1,1)"><path fill="#ffffff" stroke="none" d="M 690 272 L 747.63720703125 272 Q 757.63720703125 272 757.63720703125 282 L 757.63720703125 309 Q 757.63720703125 319 747.63720703125 319 L 690 319 Q 680 319 680 309 L 680 282 Q 680 272 690 272 Z"/></g><g transform="translate(-102,-262) scale(1,1)"><path fill="none" stroke="#000000" d="M 690 272 L 747.63720703125 272 Q 757.63720703125 272 757.63720703125 282 L 757.63720703125 309 Q 757.63720703125 319 747.63720703125 319 L 690 319 Q 680 319 680 309 L 680 282 Q 680 272 690 272 Z" stroke-miterlimit="10"/></g><g transform="translate(-102,-262) scale(1,1)"><path fill="none" stroke="#000000" d="M 680 297 L 757.63720703125 297" stroke-miterlimit="10"/></g><g transform="translate(-102,-262) scale(1,1)"><g><path fill="none" stroke="none"/><text fill="#000000" stroke="none" font-family="Arial" font-size="13px" font-style="normal" font-weight="bold" text-decoration="none" x="687.75" y="290">Armazena</text></g></g><g transform="translate(-102,-262) scale(1,1)"><g><path fill="none" stroke="none"/><text fill="#000000" stroke="none" font-family="Arial" font-size="13px" font-style="normal" font-weight="normal" text-decoration="none" x="685" y="313">do/Historico</text></g></g><g transform="translate(-102,-262) scale(1,1)"><path fill="none" stroke="#000000" d="M 538 295 L 679 295" stroke-miterlimit="10"/></g><g transform="translate(-102,-262) scale(1,1)"><path fill="none" stroke="#000000" d="M 668.8373251423759 299.209517756016 L 679 295 L 668.8373251423758 290.790482243984" stroke-miterlimit="10"/></g><g transform="translate(-102,-262) scale(1,1)"><g><path fill="none" stroke="none"/><text fill="#000000" stroke="none" font-family="Arial" font-size="13px" font-style="normal" font-weight="normal" text-decoration="none" x="545.5" y="285"> [Armazena Histórico]</text></g></g><g transform="translate(-102,-262) scale(1,1)"><path fill="#C0C0C0" stroke="none" d="M 927 299.5 C 927 292.59644 932.59644 287 939.5 287 C 946.40356 287 952 292.59644 952 299.5 C 952 306.40356 946.40356 312 939.5 312 C 932.59644 312 927 306.40356 927 299.5 Z" opacity="0.2"/></g><g transform="translate(-102,-262) scale(1,1)"><path fill="none" stroke="#000000" d="M 920 292.5 C 920 285.59644 925.59644 280 932.5 280 C 939.40356 280 945 285.59644 945 292.5 C 945 299.40356 939.40356 305 932.5 305 C 925.59644 305 920 299.40356 920 292.5 Z" stroke-miterlimit="10"/></g><g transform="translate(-102,-262) scale(1,1)"><path fill="#000000" stroke="none" d="M 925 292.5 C 925 288.357864 928.357864 285 932.5 285 C 936.642136 285 940 288.357864 940 292.5 C 940 296.642136 936.642136 300 932.5 300 C 928.357864 300 925 296.642136 925 292.5 Z"/></g><g transform="translate(-102,-262) scale(1,1)"><path fill="none" stroke="#000000" d="M 759 294 L 919 292" stroke-miterlimit="10"/></g><g transform="translate(-102,-262) scale(1,1)"><path fill="none" stroke="#000000" d="M 908.8907338698939 296.3362124383716 L 919 292 L 908.7855041467444 287.91783458642044" stroke-miterlimit="10"/></g><g transform="translate(-102,-262) scale(1,1)"><g><path fill="none" stroke="none"/><text fill="#000000" stroke="none" font-family="Arial" font-size="13px" font-style="normal" font-weight="normal" text-decoration="none" x="810.5" y="283"> [Finaliza]</text></g></g></g></svg>