<svg version="1.1" xmlns="http://www.w3.org/2000/svg" xmlns:xlink="http://www.w3.org/1999/xlink" width="856.7890625" height="725"><defs/><g><text fill="#eeeeee" stroke="none" font-family="Arial" font-size="24px" font-style="normal" font-weight="normal" text-decoration="none" x="0" y="0">UNREGISTERED</text><text fill="#eeeeee" stroke="none" font-family="Arial" font-size="24px" font-style="normal" font-weight="normal" text-decoration="none" x="0" y="30">UNREGISTERED</text><text fill="#eeeeee" stroke="none" font-family="Arial" font-size="24px" font-style="normal" font-weight="normal" text-decoration="none" x="0" y="60">UNREGISTERED</text><text fill="#eeeeee" stroke="none" font-family="Arial" font-size="24px" font-style="normal" font-weight="normal" text-decoration="none" x="0" y="90">UNREGISTERED</text><text fill="#eeeeee" stroke="none" font-family="Arial" font-size="24px" font-style="normal" font-weight="normal" text-decoration="none" x="0" y="120">UNREGISTERED</text><text fill="#eeeeee" stroke="none" font-family="Arial" font-size="24px" font-style="normal" font-weight="normal" text-decoration="none" x="0" y="150">UNREGISTERED</text><text fill="#eeeeee" stroke="none" font-family="Arial" font-size="24px" font-style="normal" font-weight="normal" text-decoration="none" x="0" y="180">UNREGISTERED</text><text fill="#eeeeee" stroke="none" font-family="Arial" font-size="24px" font-style="normal" font-weight="normal" text-decoration="none" x="0" y="210">UNREGISTERED</text><text fill="#eeeeee" stroke="none" font-family="Arial" font-size="24px" font-style="normal" font-weight="normal" text-decoration="none" x="0" y="240">UNREGISTERED</text><text fill="#eeeeee" stroke="none" font-family="Arial" font-size="24px" font-style="normal" font-weight="normal" text-decoration="none" x="0" y="270">UNREGISTERED</text><text fill="#eeeeee" stroke="none" font-family="Arial" font-size="24px" font-style="normal" font-weight="normal" text-decoration="none" x="0" y="300">UNREGISTERED</text><text fill="#eeeeee" stroke="none" font-family="Arial" font-size="24px" font-style="normal" font-weight="normal" text-decoration="none" x="0" y="330">UNREGISTERED</text><text fill="#eeeeee" stroke="none" font-family="Arial" font-size="24px" font-style="normal" font-weight="normal" text-decoration="none" x="0" y="360">UNREGISTERED</text><text fill="#eeeeee" stroke="none" font-family="Arial" font-size="24px" font-style="normal" font-weight="normal" text-decoration="none" x="0" y="390">UNREGISTERED</text><text fill="#eeeeee" stroke="none" font-family="Arial" font-size="24px" font-style="normal" font-weight="normal" text-decoration="none" x="0" y="420">UNREGISTERED</text><text fill="#eeeeee" stroke="none" font-family="Arial" font-size="24px" font-style="normal" font-weight="normal" text-decoration="none" x="0" y="450">UNREGISTERED</text><text fill="#eeeeee" stroke="none" font-family="Arial" font-size="24px" font-style="normal" font-weight="normal" text-decoration="none" x="0" y="480">UNREGISTERED</text><text fill="#eeeeee" stroke="none" font-family="Arial" font-size="24px" font-style="normal" font-weight="normal" text-decoration="none" x="0" y="510">UNREGISTERED</text><text fill="#eeeeee" stroke="none" font-family="Arial" font-size="24px" font-style="normal" font-weight="normal" text-decoration="none" x="0" y="540">UNREGISTERED</text><text fill="#eeeeee" stroke="none" font-family="Arial" font-size="24px" font-style="normal" font-weight="normal" text-decoration="none" x="0" y="570">UNREGISTERED</text><text fill="#eeeeee" stroke="none" font-family="Arial" font-size="24px" font-style="normal" font-weight="normal" text-decoration="none" x="0" y="600">UNREGISTERED</text><text fill="#eeeeee" stroke="none" font-family="Arial" font-size="24px" font-style="normal" font-weight="normal" text-decoration="none" x="0" y="630">UNREGISTERED</text><text fill="#eeeeee" stroke="none" font-family="Arial" font-size="24px" font-style="normal" font-weight="normal" text-decoration="none" x="0" y="660">UNREGISTERED</text><text fill="#eeeeee" stroke="none" font-family="Arial" font-size="24px" font-style="normal" font-weight="normal" text-decoration="none" x="0" y="690">UNREGISTERED</text><text fill="#eeeeee" stroke="none" font-family="Arial" font-size="24px" font-style="normal" font-weight="normal" text-decoration="none" x="0" y="720">UNREGISTERED</text><text fill="#eeeeee" stroke="none" font-family="Arial" font-size="24px" font-style="normal" font-weight="normal" text-decoration="none" x="200" y="0">UNREGISTERED</text><text fill="#eeeeee" stroke="none" font-family="Arial" font-size="24px" font-style="normal" font-weight="normal" text-decoration="none" x="200" y="30">UNREGISTERED</text><text fill="#eeeeee" stroke="none" font-family="Arial" font-size="24px" font-style="normal" font-weight="normal" text-decoration="none" x="200" y="60">UNREGISTERED</text><text fill="#eeeeee" stroke="none" font-family="Arial" font-size="24px" font-style="normal" font-weight="normal" text-decoration="none" x="200" y="90">UNREGISTERED</text><text fill="#eeeeee" stroke="none" font-family="Arial" font-size="24px" font-style="normal" font-weight="normal" text-decoration="none" x="200" y="120">UNREGISTERED</text><text fill="#eeeeee" stroke="none" font-family="Arial" font-size="24px" font-style="normal" font-weight="normal" text-decoration="none" x="200" y="150">UNREGISTERED</text><text fill="#eeeeee" stroke="none" font-family="Arial" font-size="24px" font-style="normal" font-weight="normal" text-decoration="none" x="200" y="180">UNREGISTERED</text><text fill="#eeeeee" stroke="none" font-family="Arial" font-size="24px" font-style="normal" font-weight="normal" text-decoration="none" x="200" y="210">UNREGISTERED</text><text fill="#eeeeee" stroke="none" font-family="Arial" font-size="24px" font-style="normal" font-weight="normal" text-decoration="none" x="200" y="240">UNREGISTERED</text><text fill="#eeeeee" stroke="none" font-family="Arial" font-size="24px" font-style="normal" font-weight="normal" text-decoration="none" x="200" y="270">UNREGISTERED</text><text fill="#eeeeee" stroke="none" font-family="Arial" font-size="24px" font-style="normal" font-weight="normal" text-decoration="none" x="200" y="300">UNREGISTERED</text><text fill="#eeeeee" stroke="none" font-family="Arial" font-size="24px" font-style="normal" font-weight="normal" text-decoration="none" x="200" y="330">UNREGISTERED</text><text fill="#eeeeee" stroke="none" font-family="Arial" font-size="24px" font-style="normal" font-weight="normal" text-decoration="none" x="200" y="360">UNREGISTERED</text><text fill="#eeeeee" stroke="none" font-family="Arial" font-size="24px" font-style="normal" font-weight="normal" text-decoration="none" x="200" y="390">UNREGISTERED</text><text fill="#eeeeee" stroke="none" font-family="Arial" font-size="24px" font-style="normal" font-weight="normal" text-decoration="none" x="200" y="420">UNREGISTERED</text><text fill="#eeeeee" stroke="none" font-family="Arial" font-size="24px" font-style="normal" font-weight="normal" text-decoration="none" x="200" y="450">UNREGISTERED</text><text fill="#eeeeee" stroke="none" font-family="Arial" font-size="24px" font-style="normal" font-weight="normal" text-decoration="none" x="200" y="480">UNREGISTERED</text><text fill="#eeeeee" stroke="none" font-family="Arial" font-size="24px" font-style="normal" font-weight="normal" text-decoration="none" x="200" y="510">UNREGISTERED</text><text fill="#eeeeee" stroke="none" font-family="Arial" font-size="24px" font-style="normal" font-weight="normal" text-decoration="none" x="200" y="540">UNREGISTERED</text><text fill="#eeeeee" stroke="none" font-family="Arial" font-size="24px" font-style="normal" font-weight="normal" text-decoration="none" x="200" y="570">UNREGISTERED</text><text fill="#eeeeee" stroke="none" font-family="Arial" font-size="24px" font-style="normal" font-weight="normal" text-decoration="none" x="200" y="600">UNREGISTERED</text><text fill="#eeeeee" stroke="none" font-family="Arial" font-size="24px" font-style="normal" font-weight="normal" text-decoration="none" x="200" y="630">UNREGISTERED</text><text fill="#eeeeee" stroke="none" font-family="Arial" font-size="24px" font-style="normal" font-weight="normal" text-decoration="none" x="200" y="660">UNREGISTERED</text><text fill="#eeeeee" stroke="none" font-family="Arial" font-size="24px" font-style="normal" font-weight="normal" text-decoration="none" x="200" y="690">UNREGISTERED</text><text fill="#eeeeee" stroke="none" font-family="Arial" font-size="24px" font-style="normal" font-weight="normal" text-decoration="none" x="200" y="720">UNREGISTERED</text><text fill="#eeeeee" stroke="none" font-family="Arial" font-size="24px" font-style="normal" font-weight="normal" text-decoration="none" x="400" y="0">UNREGISTERED</text><text fill="#eeeeee" stroke="none" font-family="Arial" font-size="24px" font-style="normal" font-weight="normal" text-decoration="none" x="400" y="30">UNREGISTERED</text><text fill="#eeeeee" stroke="none" font-family="Arial" font-size="24px" font-style="normal" font-weight="normal" text-decoration="none" x="400" y="60">UNREGISTERED</text><text fill="#eeeeee" stroke="none" font-family="Arial" font-size="24px" font-style="normal" font-weight="normal" text-decoration="none" x="400" y="90">UNREGISTERED</text><text fill="#eeeeee" stroke="none" font-family="Arial" font-size="24px" font-style="normal" font-weight="normal" text-decoration="none" x="400" y="120">UNREGISTERED</text><text fill="#eeeeee" stroke="none" font-family="Arial" font-size="24px" font-style="normal" font-weight="normal" text-decoration="none" x="400" y="150">UNREGISTERED</text><text fill="#eeeeee" stroke="none" font-family="Arial" font-size="24px" font-style="normal" font-weight="normal" text-decoration="none" x="400" y="180">UNREGISTERED</text><text fill="#eeeeee" stroke="none" font-family="Arial" font-size="24px" font-style="normal" font-weight="normal" text-decoration="none" x="400" y="210">UNREGISTERED</text><text fill="#eeeeee" stroke="none" font-family="Arial" font-size="24px" font-style="normal" font-weight="normal" text-decoration="none" x="400" y="240">UNREGISTERED</text><text fill="#eeeeee" stroke="none" font-family="Arial" font-size="24px" font-style="normal" font-weight="normal" text-decoration="none" x="400" y="270">UNREGISTERED</text><text fill="#eeeeee" stroke="none" font-family="Arial" font-size="24px" font-style="normal" font-weight="normal" text-decoration="none" x="400" y="300">UNREGISTERED</text><text fill="#eeeeee" stroke="none" font-family="Arial" font-size="24px" font-style="normal" font-weight="normal" text-decoration="none" x="400" y="330">UNREGISTERED</text><text fill="#eeeeee" stroke="none" font-family="Arial" font-size="24px" font-style="normal" font-weight="normal" text-decoration="none" x="400" y="360">UNREGISTERED</text><text fill="#eeeeee" stroke="none" font-family="Arial" font-size="24px" font-style="normal" font-weight="normal" text-decoration="none" x="400" y="390">UNREGISTERED</text><text fill="#eeeeee" stroke="none" font-family="Arial" font-size="24px" font-style="normal" font-weight="normal" text-decoration="none" x="400" y="420">UNREGISTERED</text><text fill="#eeeeee" stroke="none" font-family="Arial" font-size="24px" font-style="normal" font-weight="normal" text-decoration="none" x="400" y="450">UNREGISTERED</text><text fill="#eeeeee" stroke="none" font-family="Arial" font-size="24px" font-style="normal" font-weight="normal" text-decoration="none" x="400" y="480">UNREGISTERED</text><text fill="#eeeeee" stroke="none" font-family="Arial" font-size="24px" font-style="normal" font-weight="normal" text-decoration="none" x="400" y="510">UNREGISTERED</text><text fill="#eeeeee" stroke="none" font-family="Arial" font-size="24px" font-style="normal" font-weight="normal" text-decoration="none" x="400" y="540">UNREGISTERED</text><text fill="#eeeeee" stroke="none" font-family="Arial" font-size="24px" font-style="normal" font-weight="normal" text-decoration="none" x="400" y="570">UNREGISTERED</text><text fill="#eeeeee" stroke="none" font-family="Arial" font-size="24px" font-style="normal" font-weight="normal" text-decoration="none" x="400" y="600">UNREGISTERED</text><text fill="#eeeeee" stroke="none" font-family="Arial" font-size="24px" font-style="normal" font-weight="normal" text-decoration="none" x="400" y="630">UNREGISTERED</text><text fill="#eeeeee" stroke="none" font-family="Arial" font-size="24px" font-style="normal" font-weight="normal" text-decoration="none" x="400" y="660">UNREGISTERED</text><text fill="#eeeeee" stroke="none" font-family="Arial" font-size="24px" font-style="normal" font-weight="normal" text-decoration="none" x="400" y="690">UNREGISTERED</text><text fill="#eeeeee" stroke="none" font-family="Arial" font-size="24px" font-style="normal" font-weight="normal" text-decoration="none" x="400" y="720">UNREGISTERED</text><text fill="#eeeeee" stroke="none" font-family="Arial" font-size="24px" font-style="normal" font-weight="normal" text-decoration="none" x="600" y="0">UNREGISTERED</text><text fill="#eeeeee" stroke="none" font-family="Arial" font-size="24px" font-style="normal" font-weight="normal" text-decoration="none" x="600" y="30">UNREGISTERED</text><text fill="#eeeeee" stroke="none" font-family="Arial" font-size="24px" font-style="normal" font-weight="normal" text-decoration="none" x="600" y="60">UNREGISTERED</text><text fill="#eeeeee" stroke="none" font-family="Arial" font-size="24px" font-style="normal" font-weight="normal" text-decoration="none" x="600" y="90">UNREGISTERED</text><text fill="#eeeeee" stroke="none" font-family="Arial" font-size="24px" font-style="normal" font-weight="normal" text-decoration="none" x="600" y="120">UNREGISTERED</text><text fill="#eeeeee" stroke="none" font-family="Arial" font-size="24px" font-style="normal" font-weight="normal" text-decoration="none" x="600" y="150">UNREGISTERED</text><text fill="#eeeeee" stroke="none" font-family="Arial" font-size="24px" font-style="normal" font-weight="normal" text-decoration="none" x="600" y="180">UNREGISTERED</text><text fill="#eeeeee" stroke="none" font-family="Arial" font-size="24px" font-style="normal" font-weight="normal" text-decoration="none" x="600" y="210">UNREGISTERED</text><text fill="#eeeeee" stroke="none" font-family="Arial" font-size="24px" font-style="normal" font-weight="normal" text-decoration="none" x="600" y="240">UNREGISTERED</text><text fill="#eeeeee" stroke="none" font-family="Arial" font-size="24px" font-style="normal" font-weight="normal" text-decoration="none" x="600" y="270">UNREGISTERED</text><text fill="#eeeeee" stroke="none" font-family="Arial" font-size="24px" font-style="normal" font-weight="normal" text-decoration="none" x="600" y="300">UNREGISTERED</text><text fill="#eeeeee" stroke="none" font-family="Arial" font-size="24px" font-style="normal" font-weight="normal" text-decoration="none" x="600" y="330">UNREGISTERED</text><text fill="#eeeeee" stroke="none" font-family="Arial" font-size="24px" font-style="normal" font-weight="normal" text-decoration="none" x="600" y="360">UNREGISTERED</text><text fill="#eeeeee" stroke="none" font-family="Arial" font-size="24px" font-style="normal" font-weight="normal" text-decoration="none" x="600" y="390">UNREGISTERED</text><text fill="#eeeeee" stroke="none" font-family="Arial" font-size="24px" font-style="normal" font-weight="normal" text-decoration="none" x="600" y="420">UNREGISTERED</text><text fill="#eeeeee" stroke="none" font-family="Arial" font-size="24px" font-style="normal" font-weight="normal" text-decoration="none" x="600" y="450">UNREGISTERED</text><text fill="#eeeeee" stroke="none" font-family="Arial" font-size="24px" font-style="normal" font-weight="normal" text-decoration="none" x="600" y="480">UNREGISTERED</text><text fill="#eeeeee" stroke="none" font-family="Arial" font-size="24px" font-style="normal" font-weight="normal" text-decoration="none" x="600" y="510">UNREGISTERED</text><text fill="#eeeeee" stroke="none" font-family="Arial" font-size="24px" font-style="normal" font-weight="normal" text-decoration="none" x="600" y="540">UNREGISTERED</text><text fill="#eeeeee" stroke="none" font-family="Arial" font-size="24px" font-style="normal" font-weight="normal" text-decoration="none" x="600" y="570">UNREGISTERED</text><text fill="#eeeeee" stroke="none" font-family="Arial" font-size="24px" font-style="normal" font-weight="normal" text-decoration="none" x="600" y="600">UNREGISTERED</text><text fill="#eeeeee" stroke="none" font-family="Arial" font-size="24px" font-style="normal" font-weight="normal" text-decoration="none" x="600" y="630">UNREGISTERED</text><text fill="#eeeeee" stroke="none" font-family="Arial" font-size="24px" font-style="normal" font-weight="normal" text-decoration="none" x="600" y="660">UNREGISTERED</text><text fill="#eeeeee" stroke="none" font-family="Arial" font-size="24px" font-style="normal" font-weight="normal" text-decoration="none" x="600" y="690">UNREGISTERED</text><text fill="#eeeeee" stroke="none" font-family="Arial" font-size="24px" font-style="normal" font-weight="normal" text-decoration="none" x="600" y="720">UNREGISTERED</text><text fill="#eeeeee" stroke="none" font-family="Arial" font-size="24px" font-style="normal" font-weight="normal" text-decoration="none" x="800" y="0">UNREGISTERED</text><text fill="#eeeeee" stroke="none" font-family="Arial" font-size="24px" font-style="normal" font-weight="normal" text-decoration="none" x="800" y="30">UNREGISTERED</text><text fill="#eeeeee" stroke="none" font-family="Arial" font-size="24px" font-style="normal" font-weight="normal" text-decoration="none" x="800" y="60">UNREGISTERED</text><text fill="#eeeeee" stroke="none" font-family="Arial" font-size="24px" font-style="normal" font-weight="normal" text-decoration="none" x="800" y="90">UNREGISTERED</text><text fill="#eeeeee" stroke="none" font-family="Arial" font-size="24px" font-style="normal" font-weight="normal" text-decoration="none" x="800" y="120">UNREGISTERED</text><text fill="#eeeeee" stroke="none" font-family="Arial" font-size="24px" font-style="normal" font-weight="normal" text-decoration="none" x="800" y="150">UNREGISTERED</text><text fill="#eeeeee" stroke="none" font-family="Arial" font-size="24px" font-style="normal" font-weight="normal" text-decoration="none" x="800" y="180">UNREGISTERED</text><text fill="#eeeeee" stroke="none" font-family="Arial" font-size="24px" font-style="normal" font-weight="normal" text-decoration="none" x="800" y="210">UNREGISTERED</text><text fill="#eeeeee" stroke="none" font-family="Arial" font-size="24px" font-style="normal" font-weight="normal" text-decoration="none" x="800" y="240">UNREGISTERED</text><text fill="#eeeeee" stroke="none" font-family="Arial" font-size="24px" font-style="normal" font-weight="normal" text-decoration="none" x="800" y="270">UNREGISTERED</text><text fill="#eeeeee" stroke="none" font-family="Arial" font-size="24px" font-style="normal" font-weight="normal" text-decoration="none" x="800" y="300">UNREGISTERED</text><text fill="#eeeeee" stroke="none" font-family="Arial" font-size="24px" font-style="normal" font-weight="normal" text-decoration="none" x="800" y="330">UNREGISTERED</text><text fill="#eeeeee" stroke="none" font-family="Arial" font-size="24px" font-style="normal" font-weight="normal" text-decoration="none" x="800" y="360">UNREGISTERED</text><text fill="#eeeeee" stroke="none" font-family="Arial" font-size="24px" font-style="normal" font-weight="normal" text-decoration="none" x="800" y="390">UNREGISTERED</text><text fill="#eeeeee" stroke="none" font-family="Arial" font-size="24px" font-style="normal" font-weight="normal" text-decoration="none" x="800" y="420">UNREGISTERED</text><text fill="#eeeeee" stroke="none" font-family="Arial" font-size="24px" font-style="normal" font-weight="normal" text-decoration="none" x="800" y="450">UNREGISTERED</text><text fill="#eeeeee" stroke="none" font-family="Arial" font-size="24px" font-style="normal" font-weight="normal" text-decoration="none" x="800" y="480">UNREGISTERED</text><text fill="#eeeeee" stroke="none" font-family="Arial" font-size="24px" font-style="normal" font-weight="normal" text-decoration="none" x="800" y="510">UNREGISTERED</text><text fill="#eeeeee" stroke="none" font-family="Arial" font-size="24px" font-style="normal" font-weight="normal" text-decoration="none" x="800" y="540">UNREGISTERED</text><text fill="#eeeeee" stroke="none" font-family="Arial" font-size="24px" font-style="normal" font-weight="normal" text-decoration="none" x="800" y="570">UNREGISTERED</text><text fill="#eeeeee" stroke="none" font-family="Arial" font-size="24px" font-style="normal" font-weight="normal" text-decoration="none" x="800" y="600">UNREGISTERED</text><text fill="#eeeeee" stroke="none" font-family="Arial" font-size="24px" font-style="normal" font-weight="normal" text-decoration="none" x="800" y="630">UNREGISTERED</text><text fill="#eeeeee" stroke="none" font-family="Arial" font-size="24px" font-style="normal" font-weight="normal" text-decoration="none" x="800" y="660">UNREGISTERED</text><text fill="#eeeeee" stroke="none" font-family="Arial" font-size="24px" font-style="normal" font-weight="normal" text-decoration="none" x="800" y="690">UNREGISTERED</text><text fill="#eeeeee" stroke="none" font-family="Arial" font-size="24px" font-style="normal" font-weight="normal" text-decoration="none" x="800" y="720">UNREGISTERED</text><g transform="translate(-70,-46) scale(1,1)"><path fill="#C0C0C0" stroke="none" d="M 87 88.5 C 87 83.2532944 91.2532944 79 96.5 79 C 101.7467056 79 106 83.2532944 106 88.5 C 106 93.7467056 101.7467056 98 96.5 98 C 91.2532944 98 87 93.7467056 87 88.5 Z" opacity="0.2"/></g><g transform="translate(-70,-46) scale(1,1)"><path fill="#000000" stroke="none" d="M 80 81.5 C 80 76.2532944 84.2532944 72 89.5 72 C 94.7467056 72 99 76.2532944 99 81.5 C 99 86.7467056 94.7467056 91 89.5 91 C 84.2532944 91 80 86.7467056 80 81.5 Z"/></g><g transform="translate(-70,-46) scale(1,1)"><path fill="#C0C0C0" stroke="none" d="M 137 71 L 347.06982421875 71 Q 357.06982421875 71 357.06982421875 81 L 357.06982421875 101 Q 357.06982421875 111 347.06982421875 111 L 137 111 Q 127 111 127 101 L 127 81 Q 127 71 137 71 Z" opacity="0.2"/></g><g transform="translate(-70,-46) scale(1,1)"><path fill="#ffffff" stroke="none" d="M 130 64 L 340.06982421875 64 Q 350.06982421875 64 350.06982421875 74 L 350.06982421875 94 Q 350.06982421875 104 340.06982421875 104 L 130 104 Q 120 104 120 94 L 120 74 Q 120 64 130 64 Z"/></g><g transform="translate(-70,-46) scale(1,1)"><path fill="none" stroke="#000000" d="M 130 64 L 340.06982421875 64 Q 350.06982421875 64 350.06982421875 74 L 350.06982421875 94 Q 350.06982421875 104 340.06982421875 104 L 130 104 Q 120 104 120 94 L 120 74 Q 120 64 130 64 Z" stroke-miterlimit="10"/></g><g transform="translate(-70,-46) scale(1,1)"><g><path fill="none" stroke="none"/><text fill="#000000" stroke="none" font-family="Arial" font-size="13px" font-style="normal" font-weight="bold" text-decoration="none" x="124.5" y="82">Acessa Login_Cadastro do Sistema</text></g></g><g transform="translate(-70,-46) scale(1,1)"><path fill="none" stroke="#000000" d="M 100 81 L 119 82" stroke-miterlimit="10"/></g><g transform="translate(-70,-46) scale(1,1)"><path fill="none" stroke="#000000" d="M 108.63012435220153 85.66956115212658 L 119 82 L 109.07261903473305 77.26216218402789" stroke-miterlimit="10"/></g><g transform="translate(-70,-46) scale(1,1)"><path fill="#C0C0C0" stroke="none" d="M 407 88.5 L 418.5 79 L 429 88.5 L 418.5 97 L 407 88.5" opacity="0.2"/></g><g transform="translate(-70,-46) scale(1,1)"><path fill="#ffffff" stroke="none" d="M 400 81 L 411 72 L 422 81 L 411 90 L 400 81"/></g><g transform="translate(-70,-46) scale(1,1)"><path fill="none" stroke="#000000" d="M 400 81 L 411 72 L 422 81 L 411 90 L 400 81 L 400 81" stroke-miterlimit="10"/></g><g transform="translate(-70,-46) scale(1,1)"><path fill="none" stroke="#000000" d="M 351 82 L 399 81" stroke-miterlimit="10"/></g><g transform="translate(-70,-46) scale(1,1)"><path fill="none" stroke="#000000" d="M 388.92720912734103 85.42028099057946 L 399 81 L 388.75185060528014 77.0030719316576" stroke-miterlimit="10"/></g><g transform="translate(-70,-46) scale(1,1)"><path fill="#C0C0C0" stroke="none" d="M 841 63 L 913.7890625 63 Q 923.7890625 63 923.7890625 73 L 923.7890625 93 Q 923.7890625 103 913.7890625 103 L 841 103 Q 831 103 831 93 L 831 73 Q 831 63 841 63 Z" opacity="0.2"/></g><g transform="translate(-70,-46) scale(1,1)"><path fill="#ffffff" stroke="none" d="M 834 56 L 906.7890625 56 Q 916.7890625 56 916.7890625 66 L 916.7890625 86 Q 916.7890625 96 906.7890625 96 L 834 96 Q 824 96 824 86 L 824 66 Q 824 56 834 56 Z"/></g><g transform="translate(-70,-46) scale(1,1)"><path fill="none" stroke="#000000" d="M 834 56 L 906.7890625 56 Q 916.7890625 56 916.7890625 66 L 916.7890625 86 Q 916.7890625 96 906.7890625 96 L 834 96 Q 824 96 824 86 L 824 66 Q 824 56 834 56 Z" stroke-miterlimit="10"/></g><g transform="translate(-70,-46) scale(1,1)"><g><path fill="none" stroke="none"/><text fill="#000000" stroke="none" font-family="Arial" font-size="13px" font-style="normal" font-weight="bold" text-decoration="none" x="828.5" y="74">Realiza Login</text></g></g><g transform="translate(-70,-46) scale(1,1)"><path fill="none" stroke="#000000" d="M 423 81 L 823 77" stroke-miterlimit="10"/></g><g transform="translate(-70,-46) scale(1,1)"><path fill="none" stroke="#000000" d="M 812.879926310971 81.31092896353245 L 823 77 L 812.7957401650527 72.89231437170731" stroke-miterlimit="10"/></g><g transform="translate(-70,-46) scale(1,1)"><g><path fill="none" stroke="none"/><text fill="#000000" stroke="none" font-family="Arial" font-size="13px" font-style="normal" font-weight="normal" text-decoration="none" x="570.5" y="69">[Possui Cadastro]</text></g></g><g transform="translate(-70,-46) scale(1,1)"><path fill="#C0C0C0" stroke="none" d="M 393 183 L 442.6962890625 183 Q 452.6962890625 183 452.6962890625 193 L 452.6962890625 213 Q 452.6962890625 223 442.6962890625 223 L 393 223 Q 383 223 383 213 L 383 193 Q 383 183 393 183 Z" opacity="0.2"/></g><g transform="translate(-70,-46) scale(1,1)"><path fill="#ffffff" stroke="none" d="M 386 176 L 435.6962890625 176 Q 445.6962890625 176 445.6962890625 186 L 445.6962890625 206 Q 445.6962890625 216 435.6962890625 216 L 386 216 Q 376 216 376 206 L 376 186 Q 376 176 386 176 Z"/></g><g transform="translate(-70,-46) scale(1,1)"><path fill="none" stroke="#000000" d="M 386 176 L 435.6962890625 176 Q 445.6962890625 176 445.6962890625 186 L 445.6962890625 206 Q 445.6962890625 216 435.6962890625 216 L 386 216 Q 376 216 376 206 L 376 186 Q 376 176 386 176 Z" stroke-miterlimit="10"/></g><g transform="translate(-70,-46) scale(1,1)"><g><path fill="none" stroke="none"/><text fill="#000000" stroke="none" font-family="Arial" font-size="13px" font-style="normal" font-weight="bold" text-decoration="none" x="380.5" y="194">Cadastrar</text></g></g><g transform="translate(-70,-46) scale(1,1)"><path fill="none" stroke="#000000" d="M 411 91 L 410 175" stroke-miterlimit="10"/></g><g transform="translate(-70,-46) scale(1,1)"><path fill="none" stroke="#000000" d="M 405.9117561580347 164.7879354541487 L 410 175 L 414.33019514648834 164.88815496591602" stroke-miterlimit="10"/></g><g transform="translate(-70,-46) scale(1,1)"><g><path fill="none" stroke="none"/><text fill="#000000" stroke="none" font-family="Arial" font-size="13px" font-style="normal" font-weight="normal" text-decoration="none" x="271.5" y="130">[Não possui cadastro]</text></g></g><g transform="translate(-70,-46) scale(1,1)"><path fill="#C0C0C0" stroke="none" d="M 361 255 L 480.0380859375 255 Q 490.0380859375 255 490.0380859375 265 L 490.0380859375 285 Q 490.0380859375 295 480.0380859375 295 L 361 295 Q 351 295 351 285 L 351 265 Q 351 255 361 255 Z" opacity="0.2"/></g><g transform="translate(-70,-46) scale(1,1)"><path fill="#ffffff" stroke="none" d="M 354 248 L 473.0380859375 248 Q 483.0380859375 248 483.0380859375 258 L 483.0380859375 278 Q 483.0380859375 288 473.0380859375 288 L 354 288 Q 344 288 344 278 L 344 258 Q 344 248 354 248 Z"/></g><g transform="translate(-70,-46) scale(1,1)"><path fill="none" stroke="#000000" d="M 354 248 L 473.0380859375 248 Q 483.0380859375 248 483.0380859375 258 L 483.0380859375 278 Q 483.0380859375 288 473.0380859375 288 L 354 288 Q 344 288 344 278 L 344 258 Q 344 248 354 248 Z" stroke-miterlimit="10"/></g><g transform="translate(-70,-46) scale(1,1)"><g><path fill="none" stroke="none"/><text fill="#000000" stroke="none" font-family="Arial" font-size="13px" font-style="normal" font-weight="bold" text-decoration="none" x="348.5" y="266">Preenche Formulário</text></g></g><g transform="translate(-70,-46) scale(1,1)"><path fill="#C0C0C0" stroke="none" d="M 407 376.5 L 418.5 367 L 429 376.5 L 418.5 385 L 407 376.5" opacity="0.2"/></g><g transform="translate(-70,-46) scale(1,1)"><path fill="#ffffff" stroke="none" d="M 400 369 L 411 360 L 422 369 L 411 378 L 400 369"/></g><g transform="translate(-70,-46) scale(1,1)"><path fill="none" stroke="#000000" d="M 400 369 L 411 360 L 422 369 L 411 378 L 400 369 L 400 369" stroke-miterlimit="10"/></g><g transform="translate(-70,-46) scale(1,1)"><path fill="none" stroke="#000000" d="M 411 217 L 412 247" stroke-miterlimit="10"/></g><g transform="translate(-70,-46) scale(1,1)"><path fill="none" stroke="#000000" d="M 407.45425113032024 236.9832057416654 L 412 247 L 415.86861329449727 236.7027270028595" stroke-miterlimit="10"/></g><g transform="translate(-70,-46) scale(1,1)"><path fill="none" stroke="#000000" d="M 413 289 L 411 359" stroke-miterlimit="10"/></g><g transform="translate(-70,-46) scale(1,1)"><path fill="none" stroke="#000000" d="M 407.0824430594122 348.7212477597107 L 411 359 L 415.4980443328709 348.96169351038094" stroke-miterlimit="10"/></g><g transform="translate(-70,-46) scale(1,1)"><g><path fill="none" stroke="none"/><text fill="#000000" stroke="none" font-family="Arial" font-size="13px" font-style="normal" font-weight="normal" text-decoration="none" x="425.305908203125" y="329">[Informações corretas?]</text></g></g><g transform="translate(-70,-46) scale(1,1)"><path fill="none" stroke="#000000" d="M 320 368 L 320 368" stroke-miterlimit="10"/></g><g transform="translate(-70,-46) scale(1,1)"><path fill="#C0C0C0" stroke="none" d="M 185 359 L 320.65625 359 Q 330.65625 359 330.65625 369 L 330.65625 389 Q 330.65625 399 320.65625 399 L 185 399 Q 175 399 175 389 L 175 369 Q 175 359 185 359 Z" opacity="0.2"/></g><g transform="translate(-70,-46) scale(1,1)"><path fill="#ffffff" stroke="none" d="M 178 352 L 313.65625 352 Q 323.65625 352 323.65625 362 L 323.65625 382 Q 323.65625 392 313.65625 392 L 178 392 Q 168 392 168 382 L 168 362 Q 168 352 178 352 Z"/></g><g transform="translate(-70,-46) scale(1,1)"><path fill="none" stroke="#000000" d="M 178 352 L 313.65625 352 Q 323.65625 352 323.65625 362 L 323.65625 382 Q 323.65625 392 313.65625 392 L 178 392 Q 168 392 168 382 L 168 362 Q 168 352 178 352 Z" stroke-miterlimit="10"/></g><g transform="translate(-70,-46) scale(1,1)"><g><path fill="none" stroke="none"/><text fill="#000000" stroke="none" font-family="Arial" font-size="13px" font-style="normal" font-weight="bold" text-decoration="none" x="172.5" y="370">Corrigir as informações</text></g></g><g transform="translate(-70,-46) scale(1,1)"><path fill="#C0C0C0" stroke="none" d="M 353 431 L 478.54443359375 431 Q 488.54443359375 431 488.54443359375 441 L 488.54443359375 461 Q 488.54443359375 471 478.54443359375 471 L 353 471 Q 343 471 343 461 L 343 441 Q 343 431 353 431 Z" opacity="0.2"/></g><g transform="translate(-70,-46) scale(1,1)"><path fill="#ffffff" stroke="none" d="M 346 424 L 471.54443359375 424 Q 481.54443359375 424 481.54443359375 434 L 481.54443359375 454 Q 481.54443359375 464 471.54443359375 464 L 346 464 Q 336 464 336 454 L 336 434 Q 336 424 346 424 Z"/></g><g transform="translate(-70,-46) scale(1,1)"><path fill="none" stroke="#000000" d="M 346 424 L 471.54443359375 424 Q 481.54443359375 424 481.54443359375 434 L 481.54443359375 454 Q 481.54443359375 464 471.54443359375 464 L 346 464 Q 336 464 336 454 L 336 434 Q 336 424 346 424 Z" stroke-miterlimit="10"/></g><g transform="translate(-70,-46) scale(1,1)"><g><path fill="none" stroke="none"/><text fill="#000000" stroke="none" font-family="Arial" font-size="13px" font-style="normal" font-weight="bold" text-decoration="none" x="340.5" y="442">Enviar Documentação</text></g></g><g transform="translate(-70,-46) scale(1,1)"><path fill="none" stroke="#000000" d="M 411 379 L 409 423" stroke-miterlimit="10"/></g><g transform="translate(-70,-46) scale(1,1)"><path fill="none" stroke="#000000" d="M 405.25628748624484 412.6566631779511 L 409 423 L 413.66663910167813 413.0389518877435" stroke-miterlimit="10"/></g><g transform="translate(-70,-46) scale(1,1)"><g><path fill="none" stroke="none"/><text fill="#000000" stroke="none" font-family="Arial" font-size="13px" font-style="normal" font-weight="normal" text-decoration="none" x="413.5" y="406">[Se sim]</text></g></g><g transform="translate(-70,-46) scale(1,1)"><path fill="none" stroke="#000000" d="M 399 369 L 325 371" stroke-miterlimit="10"/></g><g transform="translate(-70,-46) scale(1,1)"><path fill="none" stroke="#000000" d="M 335.04523595471755 366.5174522184309 L 325 371 L 335.27269439553993 374.93341452885943" stroke-miterlimit="10"/></g><g transform="translate(-70,-46) scale(1,1)"><g><path fill="none" stroke="none"/><text fill="#000000" stroke="none" font-family="Arial" font-size="13px" font-style="normal" font-weight="normal" text-decoration="none" x="334.5" y="362">[Se não]</text></g></g><g transform="translate(-70,-46) scale(1,1)"><path fill="none" stroke="#000000" d="M 279 351 L 379 289" stroke-miterlimit="10"/></g><g transform="translate(-70,-46) scale(1,1)"><path fill="none" stroke="#000000" d="M 372.5808771759299 297.9327969958744 L 379 289 L 368.1445533910851 290.7774360525763" stroke-miterlimit="10"/></g><g transform="translate(-70,-46) scale(1,1)"><path fill="#C0C0C0" stroke="none" d="M 337 519 L 500.1162109375 519 Q 510.1162109375 519 510.1162109375 529 L 510.1162109375 549 Q 510.1162109375 559 500.1162109375 559 L 337 559 Q 327 559 327 549 L 327 529 Q 327 519 337 519 Z" opacity="0.2"/></g><g transform="translate(-70,-46) scale(1,1)"><path fill="#ffffff" stroke="none" d="M 330 512 L 493.1162109375 512 Q 503.1162109375 512 503.1162109375 522 L 503.1162109375 542 Q 503.1162109375 552 493.1162109375 552 L 330 552 Q 320 552 320 542 L 320 522 Q 320 512 330 512 Z"/></g><g transform="translate(-70,-46) scale(1,1)"><path fill="none" stroke="#000000" d="M 330 512 L 493.1162109375 512 Q 503.1162109375 512 503.1162109375 522 L 503.1162109375 542 Q 503.1162109375 552 493.1162109375 552 L 330 552 Q 320 552 320 542 L 320 522 Q 320 512 330 512 Z" stroke-miterlimit="10"/></g><g transform="translate(-70,-46) scale(1,1)"><g><path fill="none" stroke="none"/><text fill="#000000" stroke="none" font-family="Arial" font-size="13px" font-style="normal" font-weight="bold" text-decoration="none" x="324.5" y="530">Validação da documentação</text></g></g><g transform="translate(-70,-46) scale(1,1)"><path fill="none" stroke="#000000" d="M 409 465 L 410 511" stroke-miterlimit="10"/></g><g transform="translate(-70,-46) scale(1,1)"><path fill="none" stroke="#000000" d="M 405.57060105042297 500.93121531934037 L 410 511 L 413.9876478921751 500.74823604017183" stroke-miterlimit="10"/></g><g transform="translate(-70,-46) scale(1,1)"><path fill="#C0C0C0" stroke="none" d="M 175 536.5 L 186.5 527 L 197 536.5 L 186.5 545 L 175 536.5" opacity="0.2"/></g><g transform="translate(-70,-46) scale(1,1)"><path fill="#ffffff" stroke="none" d="M 168 529 L 179 520 L 190 529 L 179 538 L 168 529"/></g><g transform="translate(-70,-46) scale(1,1)"><path fill="none" stroke="#000000" d="M 168 529 L 179 520 L 190 529 L 179 538 L 168 529 L 168 529" stroke-miterlimit="10"/></g><g transform="translate(-70,-46) scale(1,1)"><path fill="none" stroke="#000000" d="M 319 531 L 191 529" stroke-miterlimit="10"/></g><g transform="translate(-70,-46) scale(1,1)"><path fill="none" stroke="#000000" d="M 201.2272002112254 524.949768421496 L 191 529 L 201.09566883644607 533.3677764073739" stroke-miterlimit="10"/></g><g transform="translate(-70,-46) scale(1,1)"><path fill="none" stroke="#000000" d="M 191 525 L 351 465" stroke-miterlimit="10"/></g><g transform="translate(-70,-46) scale(1,1)"><path fill="none" stroke="#000000" d="M 342.96245137057895 472.50984767020555 L 351 465 L 340.0063306467394 464.62685907330007" stroke-miterlimit="10"/></g><g transform="translate(-70,-46) scale(1,1)"><g><path fill="none" stroke="none"/><text fill="#000000" stroke="none" font-family="Arial" font-size="13px" font-style="normal" font-weight="normal" text-decoration="none" x="167.5" y="466">[Documentação Inválida]</text></g></g><g transform="translate(-70,-46) scale(1,1)"><path fill="#C0C0C0" stroke="none" d="M 353 615 L 467.68994140625 615 Q 477.68994140625 615 477.68994140625 625 L 477.68994140625 645 Q 477.68994140625 655 467.68994140625 655 L 353 655 Q 343 655 343 645 L 343 625 Q 343 615 353 615 Z" opacity="0.2"/></g><g transform="translate(-70,-46) scale(1,1)"><path fill="#ffffff" stroke="none" d="M 346 608 L 460.68994140625 608 Q 470.68994140625 608 470.68994140625 618 L 470.68994140625 638 Q 470.68994140625 648 460.68994140625 648 L 346 648 Q 336 648 336 638 L 336 618 Q 336 608 346 608 Z"/></g><g transform="translate(-70,-46) scale(1,1)"><path fill="none" stroke="#000000" d="M 346 608 L 460.68994140625 608 Q 470.68994140625 608 470.68994140625 618 L 470.68994140625 638 Q 470.68994140625 648 460.68994140625 648 L 346 648 Q 336 648 336 638 L 336 618 Q 336 608 346 608 Z" stroke-miterlimit="10"/></g><g transform="translate(-70,-46) scale(1,1)"><g><path fill="none" stroke="none"/><text fill="#000000" stroke="none" font-family="Arial" font-size="13px" font-style="normal" font-weight="bold" text-decoration="none" x="341.5791015625" y="626">Usuário Cadastrado</text></g></g><g transform="translate(-70,-46) scale(1,1)"><path fill="none" stroke="#000000" d="M 191 534 L 355 607" stroke-miterlimit="10"/></g><g transform="translate(-70,-46) scale(1,1)"><path fill="none" stroke="#000000" d="M 344.003743818601 606.7130331150737 L 355 607 L 347.4273889167756 599.021556456161" stroke-miterlimit="10"/></g><g transform="translate(-70,-46) scale(1,1)"><g><path fill="none" stroke="none"/><text fill="#000000" stroke="none" font-family="Arial" font-size="13px" font-style="normal" font-weight="normal" text-decoration="none" x="125.5" y="586">[Documentação Válida]</text></g></g><g transform="translate(-70,-46) scale(1,1)"><path fill="#C0C0C0" stroke="none" d="M 399 755.5 C 399 748.59644 404.59644 743 411.5 743 C 418.40356 743 424 748.59644 424 755.5 C 424 762.40356 418.40356 768 411.5 768 C 404.59644 768 399 762.40356 399 755.5 Z" opacity="0.2"/></g><g transform="translate(-70,-46) scale(1,1)"><path fill="none" stroke="#000000" d="M 392 748.5 C 392 741.59644 397.59644 736 404.5 736 C 411.40356 736 417 741.59644 417 748.5 C 417 755.40356 411.40356 761 404.5 761 C 397.59644 761 392 755.40356 392 748.5 Z" stroke-miterlimit="10"/></g><g transform="translate(-70,-46) scale(1,1)"><path fill="#000000" stroke="none" d="M 397 748.5 C 397 744.357864 400.357864 741 404.5 741 C 408.642136 741 412 744.357864 412 748.5 C 412 752.642136 408.642136 756 404.5 756 C 400.357864 756 397 752.642136 397 748.5 Z"/></g><g transform="translate(-70,-46) scale(1,1)"><path fill="none" stroke="#000000" d="M 403 649 L 404 735" stroke-miterlimit="10"/></g><g transform="translate(-70,-46) scale(1,1)"><path fill="none" stroke="#000000" d="M 399.6726041459633 724.8869566834476 L 404 735 L 408.0910705542996 724.7890675391645" stroke-miterlimit="10"/></g><g transform="translate(-70,-46) scale(1,1)"><path fill="none" stroke="#000000" d="M 855 97 L 413 735" stroke-miterlimit="10"/></g><g transform="translate(-70,-46) scale(1,1)"><path fill="none" stroke="#000000" d="M 415.32716767609696 724.248986531153 L 413 735 L 422.2476705731759 729.0434415162766" stroke-miterlimit="10"/></g></g></svg>