<svg version="1.1" xmlns="http://www.w3.org/2000/svg" xmlns:xlink="http://www.w3.org/1999/xlink" width="1640.48974609375" height="403"><defs/><g><text fill="#eeeeee" stroke="none" font-family="Arial" font-size="24px" font-style="normal" font-weight="normal" text-decoration="none" x="0" y="0">UNREGISTERED</text><text fill="#eeeeee" stroke="none" font-family="Arial" font-size="24px" font-style="normal" font-weight="normal" text-decoration="none" x="0" y="30">UNREGISTERED</text><text fill="#eeeeee" stroke="none" font-family="Arial" font-size="24px" font-style="normal" font-weight="normal" text-decoration="none" x="0" y="60">UNREGISTERED</text><text fill="#eeeeee" stroke="none" font-family="Arial" font-size="24px" font-style="normal" font-weight="normal" text-decoration="none" x="0" y="90">UNREGISTERED</text><text fill="#eeeeee" stroke="none" font-family="Arial" font-size="24px" font-style="normal" font-weight="normal" text-decoration="none" x="0" y="120">UNREGISTERED</text><text fill="#eeeeee" stroke="none" font-family="Arial" font-size="24px" font-style="normal" font-weight="normal" text-decoration="none" x="0" y="150">UNREGISTERED</text><text fill="#eeeeee" stroke="none" font-family="Arial" font-size="24px" font-style="normal" font-weight="normal" text-decoration="none" x="0" y="180">UNREGISTERED</text><text fill="#eeeeee" stroke="none" font-family="Arial" font-size="24px" font-style="normal" font-weight="normal" text-decoration="none" x="0" y="210">UNREGISTERED</text><text fill="#eeeeee" stroke="none" font-family="Arial" font-size="24px" font-style="normal" font-weight="normal" text-decoration="none" x="0" y="240">UNREGISTERED</text><text fill="#eeeeee" stroke="none" font-family="Arial" font-size="24px" font-style="normal" font-weight="normal" text-decoration="none" x="0" y="270">UNREGISTERED</text><text fill="#eeeeee" stroke="none" font-family="Arial" font-size="24px" font-style="normal" font-weight="normal" text-decoration="none" x="0" y="300">UNREGISTERED</text><text fill="#eeeeee" stroke="none" font-family="Arial" font-size="24px" font-style="normal" font-weight="normal" text-decoration="none" x="0" y="330">UNREGISTERED</text><text fill="#eeeeee" stroke="none" font-family="Arial" font-size="24px" font-style="normal" font-weight="normal" text-decoration="none" x="0" y="360">UNREGISTERED</text><text fill="#eeeeee" stroke="none" font-family="Arial" font-size="24px" font-style="normal" font-weight="normal" text-decoration="none" x="0" y="390">UNREGISTERED</text><text fill="#eeeeee" stroke="none" font-family="Arial" font-size="24px" font-style="normal" font-weight="normal" text-decoration="none" x="200" y="0">UNREGISTERED</text><text fill="#eeeeee" stroke="none" font-family="Arial" font-size="24px" font-style="normal" font-weight="normal" text-decoration="none" x="200" y="30">UNREGISTERED</text><text fill="#eeeeee" stroke="none" font-family="Arial" font-size="24px" font-style="normal" font-weight="normal" text-decoration="none" x="200" y="60">UNREGISTERED</text><text fill="#eeeeee" stroke="none" font-family="Arial" font-size="24px" font-style="normal" font-weight="normal" text-decoration="none" x="200" y="90">UNREGISTERED</text><text fill="#eeeeee" stroke="none" font-family="Arial" font-size="24px" font-style="normal" font-weight="normal" text-decoration="none" x="200" y="120">UNREGISTERED</text><text fill="#eeeeee" stroke="none" font-family="Arial" font-size="24px" font-style="normal" font-weight="normal" text-decoration="none" x="200" y="150">UNREGISTERED</text><text fill="#eeeeee" stroke="none" font-family="Arial" font-size="24px" font-style="normal" font-weight="normal" text-decoration="none" x="200" y="180">UNREGISTERED</text><text fill="#eeeeee" stroke="none" font-family="Arial" font-size="24px" font-style="normal" font-weight="normal" text-decoration="none" x="200" y="210">UNREGISTERED</text><text fill="#eeeeee" stroke="none" font-family="Arial" font-size="24px" font-style="normal" font-weight="normal" text-decoration="none" x="200" y="240">UNREGISTERED</text><text fill="#eeeeee" stroke="none" font-family="Arial" font-size="24px" font-style="normal" font-weight="normal" text-decoration="none" x="200" y="270">UNREGISTERED</text><text fill="#eeeeee" stroke="none" font-family="Arial" font-size="24px" font-style="normal" font-weight="normal" text-decoration="none" x="200" y="300">UNREGISTERED</text><text fill="#eeeeee" stroke="none" font-family="Arial" font-size="24px" font-style="normal" font-weight="normal" text-decoration="none" x="200" y="330">UNREGISTERED</text><text fill="#eeeeee" stroke="none" font-family="Arial" font-size="24px" font-style="normal" font-weight="normal" text-decoration="none" x="200" y="360">UNREGISTERED</text><text fill="#eeeeee" stroke="none" font-family="Arial" font-size="24px" font-style="normal" font-weight="normal" text-decoration="none" x="200" y="390">UNREGISTERED</text><text fill="#eeeeee" stroke="none" font-family="Arial" font-size="24px" font-style="normal" font-weight="normal" text-decoration="none" x="400" y="0">UNREGISTERED</text><text fill="#eeeeee" stroke="none" font-family="Arial" font-size="24px" font-style="normal" font-weight="normal" text-decoration="none" x="400" y="30">UNREGISTERED</text><text fill="#eeeeee" stroke="none" font-family="Arial" font-size="24px" font-style="normal" font-weight="normal" text-decoration="none" x="400" y="60">UNREGISTERED</text><text fill="#eeeeee" stroke="none" font-family="Arial" font-size="24px" font-style="normal" font-weight="normal" text-decoration="none" x="400" y="90">UNREGISTERED</text><text fill="#eeeeee" stroke="none" font-family="Arial" font-size="24px" font-style="normal" font-weight="normal" text-decoration="none" x="400" y="120">UNREGISTERED</text><text fill="#eeeeee" stroke="none" font-family="Arial" font-size="24px" font-style="normal" font-weight="normal" text-decoration="none" x="400" y="150">UNREGISTERED</text><text fill="#eeeeee" stroke="none" font-family="Arial" font-size="24px" font-style="normal" font-weight="normal" text-decoration="none" x="400" y="180">UNREGISTERED</text><text fill="#eeeeee" stroke="none" font-family="Arial" font-size="24px" font-style="normal" font-weight="normal" text-decoration="none" x="400" y="210">UNREGISTERED</text><text fill="#eeeeee" stroke="none" font-family="Arial" font-size="24px" font-style="normal" font-weight="normal" text-decoration="none" x="400" y="240">UNREGISTERED</text><text fill="#eeeeee" stroke="none" font-family="Arial" font-size="24px" font-style="normal" font-weight="normal" text-decoration="none" x="400" y="270">UNREGISTERED</text><text fill="#eeeeee" stroke="none" font-family="Arial" font-size="24px" font-style="normal" font-weight="normal" text-decoration="none" x="400" y="300">UNREGISTERED</text><text fill="#eeeeee" stroke="none" font-family="Arial" font-size="24px" font-style="normal" font-weight="normal" text-decoration="none" x="400" y="330">UNREGISTERED</text><text fill="#eeeeee" stroke="none" font-family="Arial" font-size="24px" font-style="normal" font-weight="normal" text-decoration="none" x="400" y="360">UNREGISTERED</text><text fill="#eeeeee" stroke="none" font-family="Arial" font-size="24px" font-style="normal" font-weight="normal" text-decoration="none" x="400" y="390">UNREGISTERED</text><text fill="#eeeeee" stroke="none" font-family="Arial" font-size="24px" font-style="normal" font-weight="normal" text-decoration="none" x="600" y="0">UNREGISTERED</text><text fill="#eeeeee" stroke="none" font-family="Arial" font-size="24px" font-style="normal" font-weight="normal" text-decoration="none" x="600" y="30">UNREGISTERED</text><text fill="#eeeeee" stroke="none" font-family="Arial" font-size="24px" font-style="normal" font-weight="normal" text-decoration="none" x="600" y="60">UNREGISTERED</text><text fill="#eeeeee" stroke="none" font-family="Arial" font-size="24px" font-style="normal" font-weight="normal" text-decoration="none" x="600" y="90">UNREGISTERED</text><text fill="#eeeeee" stroke="none" font-family="Arial" font-size="24px" font-style="normal" font-weight="normal" text-decoration="none" x="600" y="120">UNREGISTERED</text><text fill="#eeeeee" stroke="none" font-family="Arial" font-size="24px" font-style="normal" font-weight="normal" text-decoration="none" x="600" y="150">UNREGISTERED</text><text fill="#eeeeee" stroke="none" font-family="Arial" font-size="24px" font-style="normal" font-weight="normal" text-decoration="none" x="600" y="180">UNREGISTERED</text><text fill="#eeeeee" stroke="none" font-family="Arial" font-size="24px" font-style="normal" font-weight="normal" text-decoration="none" x="600" y="210">UNREGISTERED</text><text fill="#eeeeee" stroke="none" font-family="Arial" font-size="24px" font-style="normal" font-weight="normal" text-decoration="none" x="600" y="240">UNREGISTERED</text><text fill="#eeeeee" stroke="none" font-family="Arial" font-size="24px" font-style="normal" font-weight="normal" text-decoration="none" x="600" y="270">UNREGISTERED</text><text fill="#eeeeee" stroke="none" font-family="Arial" font-size="24px" font-style="normal" font-weight="normal" text-decoration="none" x="600" y="300">UNREGISTERED</text><text fill="#eeeeee" stroke="none" font-family="Arial" font-size="24px" font-style="normal" font-weight="normal" text-decoration="none" x="600" y="330">UNREGISTERED</text><text fill="#eeeeee" stroke="none" font-family="Arial" font-size="24px" font-style="normal" font-weight="normal" text-decoration="none" x="600" y="360">UNREGISTERED</text><text fill="#eeeeee" stroke="none" font-family="Arial" font-size="24px" font-style="normal" font-weight="normal" text-decoration="none" x="600" y="390">UNREGISTERED</text><text fill="#eeeeee" stroke="none" font-family="Arial" font-size="24px" font-style="normal" font-weight="normal" text-decoration="none" x="800" y="0">UNREGISTERED</text><text fill="#eeeeee" stroke="none" font-family="Arial" font-size="24px" font-style="normal" font-weight="normal" text-decoration="none" x="800" y="30">UNREGISTERED</text><text fill="#eeeeee" stroke="none" font-family="Arial" font-size="24px" font-style="normal" font-weight="normal" text-decoration="none" x="800" y="60">UNREGISTERED</text><text fill="#eeeeee" stroke="none" font-family="Arial" font-size="24px" font-style="normal" font-weight="normal" text-decoration="none" x="800" y="90">UNREGISTERED</text><text fill="#eeeeee" stroke="none" font-family="Arial" font-size="24px" font-style="normal" font-weight="normal" text-decoration="none" x="800" y="120">UNREGISTERED</text><text fill="#eeeeee" stroke="none" font-family="Arial" font-size="24px" font-style="normal" font-weight="normal" text-decoration="none" x="800" y="150">UNREGISTERED</text><text fill="#eeeeee" stroke="none" font-family="Arial" font-size="24px" font-style="normal" font-weight="normal" text-decoration="none" x="800" y="180">UNREGISTERED</text><text fill="#eeeeee" stroke="none" font-family="Arial" font-size="24px" font-style="normal" font-weight="normal" text-decoration="none" x="800" y="210">UNREGISTERED</text><text fill="#eeeeee" stroke="none" font-family="Arial" font-size="24px" font-style="normal" font-weight="normal" text-decoration="none" x="800" y="240">UNREGISTERED</text><text fill="#eeeeee" stroke="none" font-family="Arial" font-size="24px" font-style="normal" font-weight="normal" text-decoration="none" x="800" y="270">UNREGISTERED</text><text fill="#eeeeee" stroke="none" font-family="Arial" font-size="24px" font-style="normal" font-weight="normal" text-decoration="none" x="800" y="300">UNREGISTERED</text><text fill="#eeeeee" stroke="none" font-family="Arial" font-size="24px" font-style="normal" font-weight="normal" text-decoration="none" x="800" y="330">UNREGISTERED</text><text fill="#eeeeee" stroke="none" font-family="Arial" font-size="24px" font-style="normal" font-weight="normal" text-decoration="none" x="800" y="360">UNREGISTERED</text><text fill="#eeeeee" stroke="none" font-family="Arial" font-size="24px" font-style="normal" font-weight="normal" text-decoration="none" x="800" y="390">UNREGISTERED</text><text fill="#eeeeee" stroke="none" font-family="Arial" font-size="24px" font-style="normal" font-weight="normal" text-decoration="none" x="1000" y="0">UNREGISTERED</text><text fill="#eeeeee" stroke="none" font-family="Arial" font-size="24px" font-style="normal" font-weight="normal" text-decoration="none" x="1000" y="30">UNREGISTERED</text><text fill="#eeeeee" stroke="none" font-family="Arial" font-size="24px" font-style="normal" font-weight="normal" text-decoration="none" x="1000" y="60">UNREGISTERED</text><text fill="#eeeeee" stroke="none" font-family="Arial" font-size="24px" font-style="normal" font-weight="normal" text-decoration="none" x="1000" y="90">UNREGISTERED</text><text fill="#eeeeee" stroke="none" font-family="Arial" font-size="24px" font-style="normal" font-weight="normal" text-decoration="none" x="1000" y="120">UNREGISTERED</text><text fill="#eeeeee" stroke="none" font-family="Arial" font-size="24px" font-style="normal" font-weight="normal" text-decoration="none" x="1000" y="150">UNREGISTERED</text><text fill="#eeeeee" stroke="none" font-family="Arial" font-size="24px" font-style="normal" font-weight="normal" text-decoration="none" x="1000" y="180">UNREGISTERED</text><text fill="#eeeeee" stroke="none" font-family="Arial" font-size="24px" font-style="normal" font-weight="normal" text-decoration="none" x="1000" y="210">UNREGISTERED</text><text fill="#eeeeee" stroke="none" font-family="Arial" font-size="24px" font-style="normal" font-weight="normal" text-decoration="none" x="1000" y="240">UNREGISTERED</text><text fill="#eeeeee" stroke="none" font-family="Arial" font-size="24px" font-style="normal" font-weight="normal" text-decoration="none" x="1000" y="270">UNREGISTERED</text><text fill="#eeeeee" stroke="none" font-family="Arial" font-size="24px" font-style="normal" font-weight="normal" text-decoration="none" x="1000" y="300">UNREGISTERED</text><text fill="#eeeeee" stroke="none" font-family="Arial" font-size="24px" font-style="normal" font-weight="normal" text-decoration="none" x="1000" y="330">UNREGISTERED</text><text fill="#eeeeee" stroke="none" font-family="Arial" font-size="24px" font-style="normal" font-weight="normal" text-decoration="none" x="1000" y="360">UNREGISTERED</text><text fill="#eeeeee" stroke="none" font-family="Arial" font-size="24px" font-style="normal" font-weight="normal" text-decoration="none" x="1000" y="390">UNREGISTERED</text><text fill="#eeeeee" stroke="none" font-family="Arial" font-size="24px" font-style="normal" font-weight="normal" text-decoration="none" x="1200" y="0">UNREGISTERED</text><text fill="#eeeeee" stroke="none" font-family="Arial" font-size="24px" font-style="normal" font-weight="normal" text-decoration="none" x="1200" y="30">UNREGISTERED</text><text fill="#eeeeee" stroke="none" font-family="Arial" font-size="24px" font-style="normal" font-weight="normal" text-decoration="none" x="1200" y="60">UNREGISTERED</text><text fill="#eeeeee" stroke="none" font-family="Arial" font-size="24px" font-style="normal" font-weight="normal" text-decoration="none" x="1200" y="90">UNREGISTERED</text><text fill="#eeeeee" stroke="none" font-family="Arial" font-size="24px" font-style="normal" font-weight="normal" text-decoration="none" x="1200" y="120">UNREGISTERED</text><text fill="#eeeeee" stroke="none" font-family="Arial" font-size="24px" font-style="normal" font-weight="normal" text-decoration="none" x="1200" y="150">UNREGISTERED</text><text fill="#eeeeee" stroke="none" font-family="Arial" font-size="24px" font-style="normal" font-weight="normal" text-decoration="none" x="1200" y="180">UNREGISTERED</text><text fill="#eeeeee" stroke="none" font-family="Arial" font-size="24px" font-style="normal" font-weight="normal" text-decoration="none" x="1200" y="210">UNREGISTERED</text><text fill="#eeeeee" stroke="none" font-family="Arial" font-size="24px" font-style="normal" font-weight="normal" text-decoration="none" x="1200" y="240">UNREGISTERED</text><text fill="#eeeeee" stroke="none" font-family="Arial" font-size="24px" font-style="normal" font-weight="normal" text-decoration="none" x="1200" y="270">UNREGISTERED</text><text fill="#eeeeee" stroke="none" font-family="Arial" font-size="24px" font-style="normal" font-weight="normal" text-decoration="none" x="1200" y="300">UNREGISTERED</text><text fill="#eeeeee" stroke="none" font-family="Arial" font-size="24px" font-style="normal" font-weight="normal" text-decoration="none" x="1200" y="330">UNREGISTERED</text><text fill="#eeeeee" stroke="none" font-family="Arial" font-size="24px" font-style="normal" font-weight="normal" text-decoration="none" x="1200" y="360">UNREGISTERED</text><text fill="#eeeeee" stroke="none" font-family="Arial" font-size="24px" font-style="normal" font-weight="normal" text-decoration="none" x="1200" y="390">UNREGISTERED</text><text fill="#eeeeee" stroke="none" font-family="Arial" font-size="24px" font-style="normal" font-weight="normal" text-decoration="none" x="1400" y="0">UNREGISTERED</text><text fill="#eeeeee" stroke="none" font-family="Arial" font-size="24px" font-style="normal" font-weight="normal" text-decoration="none" x="1400" y="30">UNREGISTERED</text><text fill="#eeeeee" stroke="none" font-family="Arial" font-size="24px" font-style="normal" font-weight="normal" text-decoration="none" x="1400" y="60">UNREGISTERED</text><text fill="#eeeeee" stroke="none" font-family="Arial" font-size="24px" font-style="normal" font-weight="normal" text-decoration="none" x="1400" y="90">UNREGISTERED</text><text fill="#eeeeee" stroke="none" font-family="Arial" font-size="24px" font-style="normal" font-weight="normal" text-decoration="none" x="1400" y="120">UNREGISTERED</text><text fill="#eeeeee" stroke="none" font-family="Arial" font-size="24px" font-style="normal" font-weight="normal" text-decoration="none" x="1400" y="150">UNREGISTERED</text><text fill="#eeeeee" stroke="none" font-family="Arial" font-size="24px" font-style="normal" font-weight="normal" text-decoration="none" x="1400" y="180">UNREGISTERED</text><text fill="#eeeeee" stroke="none" font-family="Arial" font-size="24px" font-style="normal" font-weight="normal" text-decoration="none" x="1400" y="210">UNREGISTERED</text><text fill="#eeeeee" stroke="none" font-family="Arial" font-size="24px" font-style="normal" font-weight="normal" text-decoration="none" x="1400" y="240">UNREGISTERED</text><text fill="#eeeeee" stroke="none" font-family="Arial" font-size="24px" font-style="normal" font-weight="normal" text-decoration="none" x="1400" y="270">UNREGISTERED</text><text fill="#eeeeee" stroke="none" font-family="Arial" font-size="24px" font-style="normal" font-weight="normal" text-decoration="none" x="1400" y="300">UNREGISTERED</text><text fill="#eeeeee" stroke="none" font-family="Arial" font-size="24px" font-style="normal" font-weight="normal" text-decoration="none" x="1400" y="330">UNREGISTERED</text><text fill="#eeeeee" stroke="none" font-family="Arial" font-size="24px" font-style="normal" font-weight="normal" text-decoration="none" x="1400" y="360">UNREGISTERED</text><text fill="#eeeeee" stroke="none" font-family="Arial" font-size="24px" font-style="normal" font-weight="normal" text-decoration="none" x="1400" y="390">UNREGISTERED</text><text fill="#eeeeee" stroke="none" font-family="Arial" font-size="24px" font-style="normal" font-weight="normal" text-decoration="none" x="1600" y="0">UNREGISTERED</text><text fill="#eeeeee" stroke="none" font-family="Arial" font-size="24px" font-style="normal" font-weight="normal" text-decoration="none" x="1600" y="30">UNREGISTERED</text><text fill="#eeeeee" stroke="none" font-family="Arial" font-size="24px" font-style="normal" font-weight="normal" text-decoration="none" x="1600" y="60">UNREGISTERED</text><text fill="#eeeeee" stroke="none" font-family="Arial" font-size="24px" font-style="normal" font-weight="normal" text-decoration="none" x="1600" y="90">UNREGISTERED</text><text fill="#eeeeee" stroke="none" font-family="Arial" font-size="24px" font-style="normal" font-weight="normal" text-decoration="none" x="1600" y="120">UNREGISTERED</text><text fill="#eeeeee" stroke="none" font-family="Arial" font-size="24px" font-style="normal" font-weight="normal" text-decoration="none" x="1600" y="150">UNREGISTERED</text><text fill="#eeeeee" stroke="none" font-family="Arial" font-size="24px" font-style="normal" font-weight="normal" text-decoration="none" x="1600" y="180">UNREGISTERED</text><text fill="#eeeeee" stroke="none" font-family="Arial" font-size="24px" font-style="normal" font-weight="normal" text-decoration="none" x="1600" y="210">UNREGISTERED</text><text fill="#eeeeee" stroke="none" font-family="Arial" font-size="24px" font-style="normal" font-weight="normal" text-decoration="none" x="1600" y="240">UNREGISTERED</text><text fill="#eeeeee" stroke="none" font-family="Arial" font-size="24px" font-style="normal" font-weight="normal" text-decoration="none" x="1600" y="270">UNREGISTERED</text><text fill="#eeeeee" stroke="none" font-family="Arial" font-size="24px" font-style="normal" font-weight="normal" text-decoration="none" x="1600" y="300">UNREGISTERED</text><text fill="#eeeeee" stroke="none" font-family="Arial" font-size="24px" font-style="normal" font-weight="normal" text-decoration="none" x="1600" y="330">UNREGISTERED</text><text fill="#eeeeee" stroke="none" font-family="Arial" font-size="24px" font-style="normal" font-weight="normal" text-decoration="none" x="1600" y="360">UNREGISTERED</text><text fill="#eeeeee" stroke="none" font-family="Arial" font-size="24px" font-style="normal" font-weight="normal" text-decoration="none" x="1600" y="390">UNREGISTERED</text><g transform="translate(-54,-350) scale(1,1)"><path fill="#C0C0C0" stroke="none" d="M 71 424.5 C 71 419.2532944 75.2532944 415 80.5 415 C 85.7467056 415 90 419.2532944 90 424.5 C 90 429.7467056 85.7467056 434 80.5 434 C 75.2532944 434 71 429.7467056 71 424.5 Z" opacity="0.2"/></g><g transform="translate(-54,-350) scale(1,1)"><path fill="#000000" stroke="none" d="M 64 417.5 C 64 412.2532944 68.2532944 408 73.5 408 C 78.7467056 408 83 412.2532944 83 417.5 C 83 422.7467056 78.7467056 427 73.5 427 C 68.2532944 427 64 422.7467056 64 417.5 Z"/></g><g transform="translate(-54,-350) scale(1,1)"><path fill="#C0C0C0" stroke="none" d="M 383 419.5 L 435.5 367 L 487 419.5 L 435.5 471 L 383 419.5" opacity="0.2"/></g><g transform="translate(-54,-350) scale(1,1)"><path fill="#ffffff" stroke="none" d="M 376 412 L 428 360 L 480 412 L 428 464 L 376 412"/></g><g transform="translate(-54,-350) scale(1,1)"><path fill="none" stroke="#000000" d="M 376 412 L 428 360 L 480 412 L 428 464 L 376 412 L 376 412" stroke-miterlimit="10"/></g><g transform="translate(-54,-350) scale(1,1)"><path fill="#C0C0C0" stroke="none" d="M 353 567 L 519.0234375 567 Q 529.0234375 567 529.0234375 577 L 529.0234375 604 Q 529.0234375 614 519.0234375 614 L 353 614 Q 343 614 343 604 L 343 577 Q 343 567 353 567 Z" opacity="0.2"/></g><g transform="translate(-54,-350) scale(1,1)"><path fill="#ffffff" stroke="none" d="M 346 560 L 512.0234375 560 Q 522.0234375 560 522.0234375 570 L 522.0234375 597 Q 522.0234375 607 512.0234375 607 L 346 607 Q 336 607 336 597 L 336 570 Q 336 560 346 560 Z"/></g><g transform="translate(-54,-350) scale(1,1)"><path fill="none" stroke="#000000" d="M 346 560 L 512.0234375 560 Q 522.0234375 560 522.0234375 570 L 522.0234375 597 Q 522.0234375 607 512.0234375 607 L 346 607 Q 336 607 336 597 L 336 570 Q 336 560 346 560 Z" stroke-miterlimit="10"/></g><g transform="translate(-54,-350) scale(1,1)"><path fill="none" stroke="#000000" d="M 336 585 L 522.0234375 585" stroke-miterlimit="10"/></g><g transform="translate(-54,-350) scale(1,1)"><g><path fill="none" stroke="none"/><text fill="#000000" stroke="none" font-family="Arial" font-size="13px" font-style="normal" font-weight="bold" text-decoration="none" x="405.17626953125" y="578">Notifica</text></g></g><g transform="translate(-54,-350) scale(1,1)"><g><path fill="none" stroke="none"/><text fill="#000000" stroke="none" font-family="Arial" font-size="13px" font-style="normal" font-weight="normal" text-decoration="none" x="341" y="601">do/NotificaMercadoFracionario</text></g></g><g transform="translate(-54,-350) scale(1,1)"><path fill="#C0C0C0" stroke="none" d="M 137 399 L 225.708984375 399 Q 235.708984375 399 235.708984375 409 L 235.708984375 436 Q 235.708984375 446 225.708984375 446 L 137 446 Q 127 446 127 436 L 127 409 Q 127 399 137 399 Z" opacity="0.2"/></g><g transform="translate(-54,-350) scale(1,1)"><path fill="#ffffff" stroke="none" d="M 130 392 L 218.708984375 392 Q 228.708984375 392 228.708984375 402 L 228.708984375 429 Q 228.708984375 439 218.708984375 439 L 130 439 Q 120 439 120 429 L 120 402 Q 120 392 130 392 Z"/></g><g transform="translate(-54,-350) scale(1,1)"><path fill="none" stroke="#000000" d="M 130 392 L 218.708984375 392 Q 228.708984375 392 228.708984375 402 L 228.708984375 429 Q 228.708984375 439 218.708984375 439 L 130 439 Q 120 439 120 429 L 120 402 Q 120 392 130 392 Z" stroke-miterlimit="10"/></g><g transform="translate(-54,-350) scale(1,1)"><path fill="none" stroke="#000000" d="M 120 417 L 228.708984375 417" stroke-miterlimit="10"/></g><g transform="translate(-54,-350) scale(1,1)"><g><path fill="none" stroke="none"/><text fill="#000000" stroke="none" font-family="Arial" font-size="13px" font-style="normal" font-weight="bold" text-decoration="none" x="151.236328125" y="410">Solicita</text></g></g><g transform="translate(-54,-350) scale(1,1)"><g><path fill="none" stroke="none"/><text fill="#000000" stroke="none" font-family="Arial" font-size="13px" font-style="normal" font-weight="normal" text-decoration="none" x="125" y="433">do/SolicitaOrdem</text></g></g><g transform="translate(-54,-350) scale(1,1)"><path fill="none" stroke="#000000" d="M 428 465 L 429 559" stroke-miterlimit="10"/></g><g transform="translate(-54,-350) scale(1,1)"><path fill="none" stroke="#000000" d="M 424.68261298140135 548.8826797356397 L 429 559 L 433.10117212850736 548.7931205957768" stroke-miterlimit="10"/></g><g transform="translate(-54,-350) scale(1,1)"><g><path fill="none" stroke="none"/><text fill="#000000" stroke="none" font-family="Arial" font-size="13px" font-style="normal" font-weight="normal" text-decoration="none" x="335.578125" y="504"> [Se sim]</text></g></g><g transform="translate(-54,-350) scale(1,1)"><path fill="none" stroke="#000000" d="M 481 413 L 671 414" stroke-miterlimit="10"/></g><g transform="translate(-54,-350) scale(1,1)"><path fill="none" stroke="#000000" d="M 660.815310846965 418.15597243206105 L 671 414 L 660.8596209464772 409.73705352474656" stroke-miterlimit="10"/></g><g transform="translate(-54,-350) scale(1,1)"><g><path fill="none" stroke="none"/><text fill="#000000" stroke="none" font-family="Arial" font-size="13px" font-style="normal" font-weight="normal" text-decoration="none" x="549.50537109375" y="403"> [Se não]</text></g></g><g transform="translate(-54,-350) scale(1,1)"><path fill="#C0C0C0" stroke="none" d="M 689 399 L 768.32080078125 399 Q 778.32080078125 399 778.32080078125 409 L 778.32080078125 436 Q 778.32080078125 446 768.32080078125 446 L 689 446 Q 679 446 679 436 L 679 409 Q 679 399 689 399 Z" opacity="0.2"/></g><g transform="translate(-54,-350) scale(1,1)"><path fill="#ffffff" stroke="none" d="M 682 392 L 761.32080078125 392 Q 771.32080078125 392 771.32080078125 402 L 771.32080078125 429 Q 771.32080078125 439 761.32080078125 439 L 682 439 Q 672 439 672 429 L 672 402 Q 672 392 682 392 Z"/></g><g transform="translate(-54,-350) scale(1,1)"><path fill="none" stroke="#000000" d="M 682 392 L 761.32080078125 392 Q 771.32080078125 392 771.32080078125 402 L 771.32080078125 429 Q 771.32080078125 439 761.32080078125 439 L 682 439 Q 672 439 672 429 L 672 402 Q 672 392 682 392 Z" stroke-miterlimit="10"/></g><g transform="translate(-54,-350) scale(1,1)"><path fill="none" stroke="#000000" d="M 672 417 L 771.32080078125 417" stroke-miterlimit="10"/></g><g transform="translate(-54,-350) scale(1,1)"><g><path fill="none" stroke="none"/><text fill="#000000" stroke="none" font-family="Arial" font-size="13px" font-style="normal" font-weight="bold" text-decoration="none" x="704.318603515625" y="410">Envia</text></g></g><g transform="translate(-54,-350) scale(1,1)"><g><path fill="none" stroke="none"/><text fill="#000000" stroke="none" font-family="Arial" font-size="13px" font-style="normal" font-weight="normal" text-decoration="none" x="677" y="433">do/EnviaOrdem</text></g></g><g transform="translate(-54,-350) scale(1,1)"><path fill="#C0C0C0" stroke="none" d="M 1473 399 L 1560.2744140625 399 Q 1570.2744140625 399 1570.2744140625 409 L 1570.2744140625 436 Q 1570.2744140625 446 1560.2744140625 446 L 1473 446 Q 1463 446 1463 436 L 1463 409 Q 1463 399 1473 399 Z" opacity="0.2"/></g><g transform="translate(-54,-350) scale(1,1)"><path fill="#ffffff" stroke="none" d="M 1466 392 L 1553.2744140625 392 Q 1563.2744140625 392 1563.2744140625 402 L 1563.2744140625 429 Q 1563.2744140625 439 1553.2744140625 439 L 1466 439 Q 1456 439 1456 429 L 1456 402 Q 1456 392 1466 392 Z"/></g><g transform="translate(-54,-350) scale(1,1)"><path fill="none" stroke="#000000" d="M 1466 392 L 1553.2744140625 392 Q 1563.2744140625 392 1563.2744140625 402 L 1563.2744140625 429 Q 1563.2744140625 439 1553.2744140625 439 L 1466 439 Q 1456 439 1456 429 L 1456 402 Q 1456 392 1466 392 Z" stroke-miterlimit="10"/></g><g transform="translate(-54,-350) scale(1,1)"><path fill="none" stroke="#000000" d="M 1456 417 L 1563.2744140625 417" stroke-miterlimit="10"/></g><g transform="translate(-54,-350) scale(1,1)"><g><path fill="none" stroke="none"/><text fill="#000000" stroke="none" font-family="Arial" font-size="13px" font-style="normal" font-weight="bold" text-decoration="none" x="1485.8017578125" y="410">Notifica</text></g></g><g transform="translate(-54,-350) scale(1,1)"><g><path fill="none" stroke="none"/><text fill="#000000" stroke="none" font-family="Arial" font-size="13px" font-style="normal" font-weight="normal" text-decoration="none" x="1461" y="433">do/NotificaStatus</text></g></g><g transform="translate(-54,-350) scale(1,1)"><path fill="none" stroke="#000000" d="M 1079 418 L 1455 415" stroke-miterlimit="10"/></g><g transform="translate(-54,-350) scale(1,1)"><path fill="none" stroke="#000000" d="M 1444.8712341138412 419.2904663643231 L 1455 415 L 1444.8040630961805 410.87169881751186" stroke-miterlimit="10"/></g><g transform="translate(-54,-350) scale(1,1)"><g><path fill="none" stroke="none"/><text fill="#000000" stroke="none" font-family="Arial" font-size="13px" font-style="normal" font-weight="normal" text-decoration="none" x="1121.5" y="402"> [Notifica Aprovação ou Reprovação da venda]</text></g></g><g transform="translate(-54,-350) scale(1,1)"><path fill="#C0C0C0" stroke="none" d="M 961 703 L 1045.3798828125 703 Q 1055.3798828125 703 1055.3798828125 713 L 1055.3798828125 740 Q 1055.3798828125 750 1045.3798828125 750 L 961 750 Q 951 750 951 740 L 951 713 Q 951 703 961 703 Z" opacity="0.2"/></g><g transform="translate(-54,-350) scale(1,1)"><path fill="#ffffff" stroke="none" d="M 954 696 L 1038.3798828125 696 Q 1048.3798828125 696 1048.3798828125 706 L 1048.3798828125 733 Q 1048.3798828125 743 1038.3798828125 743 L 954 743 Q 944 743 944 733 L 944 706 Q 944 696 954 696 Z"/></g><g transform="translate(-54,-350) scale(1,1)"><path fill="none" stroke="#000000" d="M 954 696 L 1038.3798828125 696 Q 1048.3798828125 696 1048.3798828125 706 L 1048.3798828125 733 Q 1048.3798828125 743 1038.3798828125 743 L 954 743 Q 944 743 944 733 L 944 706 Q 944 696 954 696 Z" stroke-miterlimit="10"/></g><g transform="translate(-54,-350) scale(1,1)"><path fill="none" stroke="#000000" d="M 944 721 L 1048.3798828125 721" stroke-miterlimit="10"/></g><g transform="translate(-54,-350) scale(1,1)"><g><path fill="none" stroke="none"/><text fill="#000000" stroke="none" font-family="Arial" font-size="13px" font-style="normal" font-weight="bold" text-decoration="none" x="974.15087890625" y="714">Deletar</text></g></g><g transform="translate(-54,-350) scale(1,1)"><g><path fill="none" stroke="none"/><text fill="#000000" stroke="none" font-family="Arial" font-size="13px" font-style="normal" font-weight="normal" text-decoration="none" x="949" y="737">do/DeletaOrdem</text></g></g><g transform="translate(-54,-350) scale(1,1)"><path fill="none" stroke="#000000" d="M 999 592 L 996 695" stroke-miterlimit="10"/></g><g transform="translate(-54,-350) scale(1,1)"><path fill="none" stroke="#000000" d="M 992.0881414166506 684.7190777444882 L 996 695 L 1000.5036081123949 684.9641884249469" stroke-miterlimit="10"/></g><g transform="translate(-54,-350) scale(1,1)"><g><path fill="none" stroke="none"/><text fill="#000000" stroke="none" font-family="Arial" font-size="13px" font-style="normal" font-weight="normal" text-decoration="none" x="1014.5" y="648"> [Deleta a ordem de Venda]</text></g></g><g transform="translate(-54,-350) scale(1,1)"><path fill="#C0C0C0" stroke="none" d="M 961 551 L 1051.8798828125 551 Q 1061.8798828125 551 1061.8798828125 561 L 1061.8798828125 588 Q 1061.8798828125 598 1051.8798828125 598 L 961 598 Q 951 598 951 588 L 951 561 Q 951 551 961 551 Z" opacity="0.2"/></g><g transform="translate(-54,-350) scale(1,1)"><path fill="#ffffff" stroke="none" d="M 954 544 L 1044.8798828125 544 Q 1054.8798828125 544 1054.8798828125 554 L 1054.8798828125 581 Q 1054.8798828125 591 1044.8798828125 591 L 954 591 Q 944 591 944 581 L 944 554 Q 944 544 954 544 Z"/></g><g transform="translate(-54,-350) scale(1,1)"><path fill="none" stroke="#000000" d="M 954 544 L 1044.8798828125 544 Q 1054.8798828125 544 1054.8798828125 554 L 1054.8798828125 581 Q 1054.8798828125 591 1044.8798828125 591 L 954 591 Q 944 591 944 581 L 944 554 Q 944 544 954 544 Z" stroke-miterlimit="10"/></g><g transform="translate(-54,-350) scale(1,1)"><path fill="none" stroke="#000000" d="M 944 569 L 1054.8798828125 569" stroke-miterlimit="10"/></g><g transform="translate(-54,-350) scale(1,1)"><g><path fill="none" stroke="none"/><text fill="#000000" stroke="none" font-family="Arial" font-size="13px" font-style="normal" font-weight="bold" text-decoration="none" x="948.5" y="562">Checar Detalhes</text></g></g><g transform="translate(-54,-350) scale(1,1)"><g><path fill="none" stroke="none"/><text fill="#000000" stroke="none" font-family="Arial" font-size="13px" font-style="normal" font-weight="normal" text-decoration="none" x="949" y="585">do/Detalhes</text></g></g><g transform="translate(-54,-350) scale(1,1)"><path fill="#C0C0C0" stroke="none" d="M 1289 543 L 1405.892578125 543 Q 1415.892578125 543 1415.892578125 553 L 1415.892578125 580 Q 1415.892578125 590 1405.892578125 590 L 1289 590 Q 1279 590 1279 580 L 1279 553 Q 1279 543 1289 543 Z" opacity="0.2"/></g><g transform="translate(-54,-350) scale(1,1)"><path fill="#ffffff" stroke="none" d="M 1282 536 L 1398.892578125 536 Q 1408.892578125 536 1408.892578125 546 L 1408.892578125 573 Q 1408.892578125 583 1398.892578125 583 L 1282 583 Q 1272 583 1272 573 L 1272 546 Q 1272 536 1282 536 Z"/></g><g transform="translate(-54,-350) scale(1,1)"><path fill="none" stroke="#000000" d="M 1282 536 L 1398.892578125 536 Q 1408.892578125 536 1408.892578125 546 L 1408.892578125 573 Q 1408.892578125 583 1398.892578125 583 L 1282 583 Q 1272 583 1272 573 L 1272 546 Q 1272 536 1282 536 Z" stroke-miterlimit="10"/></g><g transform="translate(-54,-350) scale(1,1)"><path fill="none" stroke="#000000" d="M 1272 561 L 1408.892578125 561" stroke-miterlimit="10"/></g><g transform="translate(-54,-350) scale(1,1)"><g><path fill="none" stroke="none"/><text fill="#000000" stroke="none" font-family="Arial" font-size="13px" font-style="normal" font-weight="bold" text-decoration="none" x="1279.035888671875" y="554">Alterar informações</text></g></g><g transform="translate(-54,-350) scale(1,1)"><g><path fill="none" stroke="none"/><text fill="#000000" stroke="none" font-family="Arial" font-size="13px" font-style="normal" font-weight="normal" text-decoration="none" x="1277" y="577">do/AlterarInformacoes</text></g></g><g transform="translate(-54,-350) scale(1,1)"><path fill="none" stroke="#000000" d="M 1002 440 L 999 543" stroke-miterlimit="10"/></g><g transform="translate(-54,-350) scale(1,1)"><path fill="none" stroke="#000000" d="M 995.0881414166506 532.7190777444882 L 999 543 L 1003.5036081123949 532.9641884249469" stroke-miterlimit="10"/></g><g transform="translate(-54,-350) scale(1,1)"><g><path fill="none" stroke="none"/><text fill="#000000" stroke="none" font-family="Arial" font-size="13px" font-style="normal" font-weight="normal" text-decoration="none" x="862.736328125" y="495"> [Verifica os Detalhes]</text></g></g><g transform="translate(-54,-350) scale(1,1)"><path fill="none" stroke="#000000" d="M 1056 566 L 1271 561" stroke-miterlimit="10"/></g><g transform="translate(-54,-350) scale(1,1)"><path fill="none" stroke="#000000" d="M 1260.9379414824054 565.4446572858326 L 1271 561 L 1260.7422028826506 557.0278974963754" stroke-miterlimit="10"/></g><g transform="translate(-54,-350) scale(1,1)"><g><path fill="none" stroke="none"/><text fill="#000000" stroke="none" font-family="Arial" font-size="13px" font-style="normal" font-weight="normal" text-decoration="none" x="1064.5" y="553"> [Se necessário Ajuste da Ordem]</text></g></g><g transform="translate(-54,-350) scale(1,1)"><path fill="none" stroke="#000000" d="M 1282 535 L 1053 440" stroke-miterlimit="10"/></g><g transform="translate(-54,-350) scale(1,1)"><path fill="none" stroke="#000000" d="M 1063.9999983921014 440.0059475849951 L 1053 440 L 1060.7739678784142 447.7823790337777" stroke-miterlimit="10"/></g><g transform="translate(-54,-350) scale(1,1)"><g><path fill="none" stroke="none"/><text fill="#000000" stroke="none" font-family="Arial" font-size="13px" font-style="normal" font-weight="normal" text-decoration="none" x="1108.5" y="472">Event1 [Envio das Inf de Ordem]</text></g></g><g transform="translate(-54,-350) scale(1,1)"><path fill="#C0C0C0" stroke="none" d="M 1503 731.5 C 1503 724.59644 1508.59644 719 1515.5 719 C 1522.40356 719 1528 724.59644 1528 731.5 C 1528 738.40356 1522.40356 744 1515.5 744 C 1508.59644 744 1503 738.40356 1503 731.5 Z" opacity="0.2"/></g><g transform="translate(-54,-350) scale(1,1)"><path fill="none" stroke="#000000" d="M 1496 724.5 C 1496 717.59644 1501.59644 712 1508.5 712 C 1515.40356 712 1521 717.59644 1521 724.5 C 1521 731.40356 1515.40356 737 1508.5 737 C 1501.59644 737 1496 731.40356 1496 724.5 Z" stroke-miterlimit="10"/></g><g transform="translate(-54,-350) scale(1,1)"><path fill="#000000" stroke="none" d="M 1501 724.5 C 1501 720.357864 1504.357864 717 1508.5 717 C 1512.642136 717 1516 720.357864 1516 724.5 C 1516 728.642136 1512.642136 732 1508.5 732 C 1504.357864 732 1501 728.642136 1501 724.5 Z"/></g><g transform="translate(-54,-350) scale(1,1)"><path fill="none" stroke="#000000" d="M 1509 440 L 1508 711" stroke-miterlimit="10"/></g><g transform="translate(-54,-350) scale(1,1)"><path fill="none" stroke="#000000" d="M 1503.8280112927941 700.8218611609515 L 1508 711 L 1512.2469894870505 700.8529275011517" stroke-miterlimit="10"/></g><g transform="translate(-54,-350) scale(1,1)"><g><path fill="none" stroke="none"/><text fill="#000000" stroke="none" font-family="Arial" font-size="13px" font-style="normal" font-weight="normal" text-decoration="none" x="1519.5" y="575"> [Finaliza a ordem de Venda]</text></g></g><g transform="translate(-54,-350) scale(1,1)"><path fill="none" stroke="#000000" d="M 471 559 L 678 440" stroke-miterlimit="10"/></g><g transform="translate(-54,-350) scale(1,1)"><path fill="none" stroke="#000000" d="M 671.2874451306706 448.71444818254383 L 678 440 L 667.0914615286348 441.4155523369859" stroke-miterlimit="10"/></g><g transform="translate(-54,-350) scale(1,1)"><path fill="none" stroke="#000000" d="M 1049 720 L 1495 724" stroke-miterlimit="10"/></g><g transform="translate(-54,-350) scale(1,1)"><path fill="none" stroke="#000000" d="M 1484.799981835793 728.1182070673833 L 1495 724 L 1484.8754858441862 719.6995101315403" stroke-miterlimit="10"/></g><g transform="translate(-54,-350) scale(1,1)"><path fill="#C0C0C0" stroke="none" d="M 945 407 L 1074.8671875 407 Q 1084.8671875 407 1084.8671875 417 L 1084.8671875 436 Q 1084.8671875 446 1074.8671875 446 L 945 446 Q 935 446 935 436 L 935 417 Q 935 407 945 407 Z" opacity="0.2"/></g><g transform="translate(-54,-350) scale(1,1)"><path fill="#ffffff" stroke="none" d="M 938 400 L 1067.8671875 400 Q 1077.8671875 400 1077.8671875 410 L 1077.8671875 429 Q 1077.8671875 439 1067.8671875 439 L 938 439 Q 928 439 928 429 L 928 410 Q 928 400 938 400 Z"/></g><g transform="translate(-54,-350) scale(1,1)"><path fill="none" stroke="#000000" d="M 938 400 L 1067.8671875 400 Q 1077.8671875 400 1077.8671875 410 L 1077.8671875 429 Q 1077.8671875 439 1067.8671875 439 L 938 439 Q 928 439 928 429 L 928 410 Q 928 400 938 400 Z" stroke-miterlimit="10"/></g><g transform="translate(-54,-350) scale(1,1)"><g><path fill="none" stroke="none"/><text fill="#000000" stroke="none" font-family="Arial" font-size="13px" font-style="normal" font-weight="bold" text-decoration="none" x="932.5" y="418">Aguardando Execução</text></g></g><g transform="translate(-54,-350) scale(1,1)"><path fill="none" stroke="#000000" d="M 84 417 L 119 416" stroke-miterlimit="10"/></g><g transform="translate(-54,-350) scale(1,1)"><path fill="none" stroke="#000000" d="M 108.96169351038095 420.4980443328709 L 119 416 L 108.7212477597107 412.0824430594122" stroke-miterlimit="10"/></g><g transform="translate(-54,-350) scale(1,1)"><path fill="none" stroke="#000000" d="M 230 414 L 375 413" stroke-miterlimit="10"/></g><g transform="translate(-54,-350) scale(1,1)"><path fill="none" stroke="#000000" d="M 364.86659728105536 417.2795033982561 L 375 413 L 364.80853634792226 408.8606680939578" stroke-miterlimit="10"/></g><g transform="translate(-54,-350) scale(1,1)"><g><path fill="none" stroke="none"/><text fill="#000000" stroke="none" font-family="Arial" font-size="13px" font-style="normal" font-weight="normal" text-decoration="none" x="232.5" y="404.5"> [É Mercado Financeiro]</text></g></g><g transform="translate(-54,-350) scale(1,1)"><path fill="none" stroke="#000000" d="M 772 416 L 927 418" stroke-miterlimit="10"/></g><g transform="translate(-54,-350) scale(1,1)"><path fill="none" stroke="#000000" d="M 916.7838592080087 422.0780469980387 L 927 418 L 916.8924828821159 413.6597122547371" stroke-miterlimit="10"/></g><g transform="translate(-54,-350) scale(1,1)"><g><path fill="none" stroke="none"/><text fill="#000000" stroke="none" font-family="Arial" font-size="13px" font-style="normal" font-weight="normal" text-decoration="none" x="799.5" y="407"> [Ordem enviada]</text></g></g></g></svg>