<svg version="1.1" xmlns="http://www.w3.org/2000/svg" xmlns:xlink="http://www.w3.org/1999/xlink" width="869" height="219"><defs/><g><text fill="#eeeeee" stroke="none" font-family="Arial" font-size="24px" font-style="normal" font-weight="normal" text-decoration="none" x="0" y="0">UNREGISTERED</text><text fill="#eeeeee" stroke="none" font-family="Arial" font-size="24px" font-style="normal" font-weight="normal" text-decoration="none" x="0" y="30">UNREGISTERED</text><text fill="#eeeeee" stroke="none" font-family="Arial" font-size="24px" font-style="normal" font-weight="normal" text-decoration="none" x="0" y="60">UNREGISTERED</text><text fill="#eeeeee" stroke="none" font-family="Arial" font-size="24px" font-style="normal" font-weight="normal" text-decoration="none" x="0" y="90">UNREGISTERED</text><text fill="#eeeeee" stroke="none" font-family="Arial" font-size="24px" font-style="normal" font-weight="normal" text-decoration="none" x="0" y="120">UNREGISTERED</text><text fill="#eeeeee" stroke="none" font-family="Arial" font-size="24px" font-style="normal" font-weight="normal" text-decoration="none" x="0" y="150">UNREGISTERED</text><text fill="#eeeeee" stroke="none" font-family="Arial" font-size="24px" font-style="normal" font-weight="normal" text-decoration="none" x="0" y="180">UNREGISTERED</text><text fill="#eeeeee" stroke="none" font-family="Arial" font-size="24px" font-style="normal" font-weight="normal" text-decoration="none" x="0" y="210">UNREGISTERED</text><text fill="#eeeeee" stroke="none" font-family="Arial" font-size="24px" font-style="normal" font-weight="normal" text-decoration="none" x="200" y="0">UNREGISTERED</text><text fill="#eeeeee" stroke="none" font-family="Arial" font-size="24px" font-style="normal" font-weight="normal" text-decoration="none" x="200" y="30">UNREGISTERED</text><text fill="#eeeeee" stroke="none" font-family="Arial" font-size="24px" font-style="normal" font-weight="normal" text-decoration="none" x="200" y="60">UNREGISTERED</text><text fill="#eeeeee" stroke="none" font-family="Arial" font-size="24px" font-style="normal" font-weight="normal" text-decoration="none" x="200" y="90">UNREGISTERED</text><text fill="#eeeeee" stroke="none" font-family="Arial" font-size="24px" font-style="normal" font-weight="normal" text-decoration="none" x="200" y="120">UNREGISTERED</text><text fill="#eeeeee" stroke="none" font-family="Arial" font-size="24px" font-style="normal" font-weight="normal" text-decoration="none" x="200" y="150">UNREGISTERED</text><text fill="#eeeeee" stroke="none" font-family="Arial" font-size="24px" font-style="normal" font-weight="normal" text-decoration="none" x="200" y="180">UNREGISTERED</text><text fill="#eeeeee" stroke="none" font-family="Arial" font-size="24px" font-style="normal" font-weight="normal" text-decoration="none" x="200" y="210">UNREGISTERED</text><text fill="#eeeeee" stroke="none" font-family="Arial" font-size="24px" font-style="normal" font-weight="normal" text-decoration="none" x="400" y="0">UNREGISTERED</text><text fill="#eeeeee" stroke="none" font-family="Arial" font-size="24px" font-style="normal" font-weight="normal" text-decoration="none" x="400" y="30">UNREGISTERED</text><text fill="#eeeeee" stroke="none" font-family="Arial" font-size="24px" font-style="normal" font-weight="normal" text-decoration="none" x="400" y="60">UNREGISTERED</text><text fill="#eeeeee" stroke="none" font-family="Arial" font-size="24px" font-style="normal" font-weight="normal" text-decoration="none" x="400" y="90">UNREGISTERED</text><text fill="#eeeeee" stroke="none" font-family="Arial" font-size="24px" font-style="normal" font-weight="normal" text-decoration="none" x="400" y="120">UNREGISTERED</text><text fill="#eeeeee" stroke="none" font-family="Arial" font-size="24px" font-style="normal" font-weight="normal" text-decoration="none" x="400" y="150">UNREGISTERED</text><text fill="#eeeeee" stroke="none" font-family="Arial" font-size="24px" font-style="normal" font-weight="normal" text-decoration="none" x="400" y="180">UNREGISTERED</text><text fill="#eeeeee" stroke="none" font-family="Arial" font-size="24px" font-style="normal" font-weight="normal" text-decoration="none" x="400" y="210">UNREGISTERED</text><text fill="#eeeeee" stroke="none" font-family="Arial" font-size="24px" font-style="normal" font-weight="normal" text-decoration="none" x="600" y="0">UNREGISTERED</text><text fill="#eeeeee" stroke="none" font-family="Arial" font-size="24px" font-style="normal" font-weight="normal" text-decoration="none" x="600" y="30">UNREGISTERED</text><text fill="#eeeeee" stroke="none" font-family="Arial" font-size="24px" font-style="normal" font-weight="normal" text-decoration="none" x="600" y="60">UNREGISTERED</text><text fill="#eeeeee" stroke="none" font-family="Arial" font-size="24px" font-style="normal" font-weight="normal" text-decoration="none" x="600" y="90">UNREGISTERED</text><text fill="#eeeeee" stroke="none" font-family="Arial" font-size="24px" font-style="normal" font-weight="normal" text-decoration="none" x="600" y="120">UNREGISTERED</text><text fill="#eeeeee" stroke="none" font-family="Arial" font-size="24px" font-style="normal" font-weight="normal" text-decoration="none" x="600" y="150">UNREGISTERED</text><text fill="#eeeeee" stroke="none" font-family="Arial" font-size="24px" font-style="normal" font-weight="normal" text-decoration="none" x="600" y="180">UNREGISTERED</text><text fill="#eeeeee" stroke="none" font-family="Arial" font-size="24px" font-style="normal" font-weight="normal" text-decoration="none" x="600" y="210">UNREGISTERED</text><text fill="#eeeeee" stroke="none" font-family="Arial" font-size="24px" font-style="normal" font-weight="normal" text-decoration="none" x="800" y="0">UNREGISTERED</text><text fill="#eeeeee" stroke="none" font-family="Arial" font-size="24px" font-style="normal" font-weight="normal" text-decoration="none" x="800" y="30">UNREGISTERED</text><text fill="#eeeeee" stroke="none" font-family="Arial" font-size="24px" font-style="normal" font-weight="normal" text-decoration="none" x="800" y="60">UNREGISTERED</text><text fill="#eeeeee" stroke="none" font-family="Arial" font-size="24px" font-style="normal" font-weight="normal" text-decoration="none" x="800" y="90">UNREGISTERED</text><text fill="#eeeeee" stroke="none" font-family="Arial" font-size="24px" font-style="normal" font-weight="normal" text-decoration="none" x="800" y="120">UNREGISTERED</text><text fill="#eeeeee" stroke="none" font-family="Arial" font-size="24px" font-style="normal" font-weight="normal" text-decoration="none" x="800" y="150">UNREGISTERED</text><text fill="#eeeeee" stroke="none" font-family="Arial" font-size="24px" font-style="normal" font-weight="normal" text-decoration="none" x="800" y="180">UNREGISTERED</text><text fill="#eeeeee" stroke="none" font-family="Arial" font-size="24px" font-style="normal" font-weight="normal" text-decoration="none" x="800" y="210">UNREGISTERED</text><g transform="translate(-150,-150) scale(1,1)"><path fill="#C0C0C0" stroke="none" d="M 167 192.5 C 167 187.2532944 171.2532944 183 176.5 183 C 181.7467056 183 186 187.2532944 186 192.5 C 186 197.7467056 181.7467056 202 176.5 202 C 171.2532944 202 167 197.7467056 167 192.5 Z" opacity="0.2"/></g><g transform="translate(-150,-150) scale(1,1)"><path fill="#000000" stroke="none" d="M 160 185.5 C 160 180.2532944 164.2532944 176 169.5 176 C 174.7467056 176 179 180.2532944 179 185.5 C 179 190.7467056 174.7467056 195 169.5 195 C 164.2532944 195 160 190.7467056 160 185.5 Z"/></g><g transform="translate(-150,-150) scale(1,1)"><path fill="#C0C0C0" stroke="none" d="M 991 187.5 C 991 180.59644 996.59644 175 1003.5 175 C 1010.40356 175 1016 180.59644 1016 187.5 C 1016 194.40356 1010.40356 200 1003.5 200 C 996.59644 200 991 194.40356 991 187.5 Z" opacity="0.2"/></g><g transform="translate(-150,-150) scale(1,1)"><path fill="none" stroke="#000000" d="M 984 180.5 C 984 173.59644 989.59644 168 996.5 168 C 1003.40356 168 1009 173.59644 1009 180.5 C 1009 187.40356 1003.40356 193 996.5 193 C 989.59644 193 984 187.40356 984 180.5 Z" stroke-miterlimit="10"/></g><g transform="translate(-150,-150) scale(1,1)"><path fill="#000000" stroke="none" d="M 989 180.5 C 989 176.357864 992.357864 173 996.5 173 C 1000.642136 173 1004 176.357864 1004 180.5 C 1004 184.642136 1000.642136 188 996.5 188 C 992.357864 188 989 184.642136 989 180.5 Z"/></g><g transform="translate(-150,-150) scale(1,1)"><path fill="#C0C0C0" stroke="none" d="M 337 167 L 454.58447265625 167 Q 464.58447265625 167 464.58447265625 177 L 464.58447265625 204 Q 464.58447265625 214 454.58447265625 214 L 337 214 Q 327 214 327 204 L 327 177 Q 327 167 337 167 Z" opacity="0.2"/></g><g transform="translate(-150,-150) scale(1,1)"><path fill="#ffffff" stroke="none" d="M 330 160 L 447.58447265625 160 Q 457.58447265625 160 457.58447265625 170 L 457.58447265625 197 Q 457.58447265625 207 447.58447265625 207 L 330 207 Q 320 207 320 197 L 320 170 Q 320 160 330 160 Z"/></g><g transform="translate(-150,-150) scale(1,1)"><path fill="none" stroke="#000000" d="M 330 160 L 447.58447265625 160 Q 457.58447265625 160 457.58447265625 170 L 457.58447265625 197 Q 457.58447265625 207 447.58447265625 207 L 330 207 Q 320 207 320 197 L 320 170 Q 320 160 330 160 Z" stroke-miterlimit="10"/></g><g transform="translate(-150,-150) scale(1,1)"><path fill="none" stroke="#000000" d="M 320 185 L 457.58447265625 185" stroke-miterlimit="10"/></g><g transform="translate(-150,-150) scale(1,1)"><g><path fill="none" stroke="none"/><text fill="#000000" stroke="none" font-family="Arial" font-size="13px" font-style="normal" font-weight="bold" text-decoration="none" x="324.5" y="178">Realizando Cadastro</text></g></g><g transform="translate(-150,-150) scale(1,1)"><g><path fill="none" stroke="none"/><text fill="#000000" stroke="none" font-family="Arial" font-size="13px" font-style="normal" font-weight="normal" text-decoration="none" x="325" y="201">do/Cadastra</text></g></g><g transform="translate(-150,-150) scale(1,1)"><path fill="none" stroke="#000000" d="M 180 185 L 319 184" stroke-miterlimit="10"/></g><g transform="translate(-150,-150) scale(1,1)"><path fill="none" stroke="#000000" d="M 308.86787164445724 188.28251970069095 L 319 184 L 308.8073046110196 179.86370205286676" stroke-miterlimit="10"/></g><g transform="translate(-150,-150) scale(1,1)"><g><path fill="none" stroke="none"/><text fill="#000000" stroke="none" font-family="Arial" font-size="13px" font-style="normal" font-weight="normal" text-decoration="none" x="200.5" y="174"> [Inicia Cadastro]</text></g></g><g transform="translate(-150,-150) scale(1,1)"><path fill="#C0C0C0" stroke="none" d="M 649 167 L 789.66455078125 167 Q 799.66455078125 167 799.66455078125 177 L 799.66455078125 204 Q 799.66455078125 214 789.66455078125 214 L 649 214 Q 639 214 639 204 L 639 177 Q 639 167 649 167 Z" opacity="0.2"/></g><g transform="translate(-150,-150) scale(1,1)"><path fill="#ffffff" stroke="none" d="M 642 160 L 782.66455078125 160 Q 792.66455078125 160 792.66455078125 170 L 792.66455078125 197 Q 792.66455078125 207 782.66455078125 207 L 642 207 Q 632 207 632 197 L 632 170 Q 632 160 642 160 Z"/></g><g transform="translate(-150,-150) scale(1,1)"><path fill="none" stroke="#000000" d="M 642 160 L 782.66455078125 160 Q 792.66455078125 160 792.66455078125 170 L 792.66455078125 197 Q 792.66455078125 207 782.66455078125 207 L 642 207 Q 632 207 632 197 L 632 170 Q 632 160 642 160 Z" stroke-miterlimit="10"/></g><g transform="translate(-150,-150) scale(1,1)"><path fill="none" stroke="#000000" d="M 632 185 L 792.66455078125 185" stroke-miterlimit="10"/></g><g transform="translate(-150,-150) scale(1,1)"><g><path fill="none" stroke="none"/><text fill="#000000" stroke="none" font-family="Arial" font-size="13px" font-style="normal" font-weight="bold" text-decoration="none" x="636.5" y="178">Conferindo Documentos</text></g></g><g transform="translate(-150,-150) scale(1,1)"><g><path fill="none" stroke="none"/><text fill="#000000" stroke="none" font-family="Arial" font-size="13px" font-style="normal" font-weight="normal" text-decoration="none" x="637" y="201">do/ConfereDocumentos</text></g></g><g transform="translate(-150,-150) scale(1,1)"><path fill="none" stroke="#000000" d="M 459 183 L 631 183" stroke-miterlimit="10"/></g><g transform="translate(-150,-150) scale(1,1)"><path fill="none" stroke="#000000" d="M 620.8373251423759 187.209517756016 L 631 183 L 620.8373251423758 178.790482243984" stroke-miterlimit="10"/></g><g transform="translate(-150,-150) scale(1,1)"><g><path fill="none" stroke="none"/><text fill="#000000" stroke="none" font-family="Arial" font-size="13px" font-style="normal" font-weight="normal" text-decoration="none" x="475.5" y="173"> [Informações inseridas]</text></g></g><g transform="translate(-150,-150) scale(1,1)"><path fill="#C0C0C0" stroke="none" d="M 657 319 L 784.7470703125 319 Q 794.7470703125 319 794.7470703125 329 L 794.7470703125 356 Q 794.7470703125 366 784.7470703125 366 L 657 366 Q 647 366 647 356 L 647 329 Q 647 319 657 319 Z" opacity="0.2"/></g><g transform="translate(-150,-150) scale(1,1)"><path fill="#ffffff" stroke="none" d="M 650 312 L 777.7470703125 312 Q 787.7470703125 312 787.7470703125 322 L 787.7470703125 349 Q 787.7470703125 359 777.7470703125 359 L 650 359 Q 640 359 640 349 L 640 322 Q 640 312 650 312 Z"/></g><g transform="translate(-150,-150) scale(1,1)"><path fill="none" stroke="#000000" d="M 650 312 L 777.7470703125 312 Q 787.7470703125 312 787.7470703125 322 L 787.7470703125 349 Q 787.7470703125 359 777.7470703125 359 L 650 359 Q 640 359 640 349 L 640 322 Q 640 312 650 312 Z" stroke-miterlimit="10"/></g><g transform="translate(-150,-150) scale(1,1)"><path fill="none" stroke="#000000" d="M 640 337 L 787.7470703125 337" stroke-miterlimit="10"/></g><g transform="translate(-150,-150) scale(1,1)"><g><path fill="none" stroke="none"/><text fill="#000000" stroke="none" font-family="Arial" font-size="13px" font-style="normal" font-weight="bold" text-decoration="none" x="645.24267578125" y="330">Reenviar Documentos</text></g></g><g transform="translate(-150,-150) scale(1,1)"><g><path fill="none" stroke="none"/><text fill="#000000" stroke="none" font-family="Arial" font-size="13px" font-style="normal" font-weight="normal" text-decoration="none" x="645" y="353">do/ReenviaDocumentos</text></g></g><g transform="translate(-150,-150) scale(1,1)"><path fill="none" stroke="#000000" d="M 794 182 L 983 180" stroke-miterlimit="10"/></g><g transform="translate(-150,-150) scale(1,1)"><path fill="none" stroke="#000000" d="M 972.8824367650011 184.3168175993201 L 983 180 L 972.7933514298239 175.89825342507328" stroke-miterlimit="10"/></g><g transform="translate(-150,-150) scale(1,1)"><g><path fill="none" stroke="none"/><text fill="#000000" stroke="none" font-family="Arial" font-size="13px" font-style="normal" font-weight="normal" text-decoration="none" x="818.5" y="171"> [Documentos Corretos]</text></g></g><g transform="translate(-150,-150) scale(1,1)"><path fill="none" stroke="#000000" d="M 712 208 L 713 311" stroke-miterlimit="10"/></g><g transform="translate(-150,-150) scale(1,1)"><path fill="none" stroke="#000000" d="M 708.6920185272949 300.8786712517165 L 713 311 L 717.1106572799538 300.7969368948946" stroke-miterlimit="10"/></g><g transform="translate(-150,-150) scale(1,1)"><g><path fill="none" stroke="none"/><text fill="#000000" stroke="none" font-family="Arial" font-size="13px" font-style="normal" font-weight="normal" text-decoration="none" x="711.5" y="272"> [Documentos Incorretos]</text></g></g></g></svg>