<svg version="1.1" xmlns="http://www.w3.org/2000/svg" xmlns:xlink="http://www.w3.org/1999/xlink" width="1264.8525390625" height="339"><defs/><g><text fill="#eeeeee" stroke="none" font-family="Arial" font-size="24px" font-style="normal" font-weight="normal" text-decoration="none" x="0" y="0">UNREGISTERED</text><text fill="#eeeeee" stroke="none" font-family="Arial" font-size="24px" font-style="normal" font-weight="normal" text-decoration="none" x="0" y="30">UNREGISTERED</text><text fill="#eeeeee" stroke="none" font-family="Arial" font-size="24px" font-style="normal" font-weight="normal" text-decoration="none" x="0" y="60">UNREGISTERED</text><text fill="#eeeeee" stroke="none" font-family="Arial" font-size="24px" font-style="normal" font-weight="normal" text-decoration="none" x="0" y="90">UNREGISTERED</text><text fill="#eeeeee" stroke="none" font-family="Arial" font-size="24px" font-style="normal" font-weight="normal" text-decoration="none" x="0" y="120">UNREGISTERED</text><text fill="#eeeeee" stroke="none" font-family="Arial" font-size="24px" font-style="normal" font-weight="normal" text-decoration="none" x="0" y="150">UNREGISTERED</text><text fill="#eeeeee" stroke="none" font-family="Arial" font-size="24px" font-style="normal" font-weight="normal" text-decoration="none" x="0" y="180">UNREGISTERED</text><text fill="#eeeeee" stroke="none" font-family="Arial" font-size="24px" font-style="normal" font-weight="normal" text-decoration="none" x="0" y="210">UNREGISTERED</text><text fill="#eeeeee" stroke="none" font-family="Arial" font-size="24px" font-style="normal" font-weight="normal" text-decoration="none" x="0" y="240">UNREGISTERED</text><text fill="#eeeeee" stroke="none" font-family="Arial" font-size="24px" font-style="normal" font-weight="normal" text-decoration="none" x="0" y="270">UNREGISTERED</text><text fill="#eeeeee" stroke="none" font-family="Arial" font-size="24px" font-style="normal" font-weight="normal" text-decoration="none" x="0" y="300">UNREGISTERED</text><text fill="#eeeeee" stroke="none" font-family="Arial" font-size="24px" font-style="normal" font-weight="normal" text-decoration="none" x="0" y="330">UNREGISTERED</text><text fill="#eeeeee" stroke="none" font-family="Arial" font-size="24px" font-style="normal" font-weight="normal" text-decoration="none" x="200" y="0">UNREGISTERED</text><text fill="#eeeeee" stroke="none" font-family="Arial" font-size="24px" font-style="normal" font-weight="normal" text-decoration="none" x="200" y="30">UNREGISTERED</text><text fill="#eeeeee" stroke="none" font-family="Arial" font-size="24px" font-style="normal" font-weight="normal" text-decoration="none" x="200" y="60">UNREGISTERED</text><text fill="#eeeeee" stroke="none" font-family="Arial" font-size="24px" font-style="normal" font-weight="normal" text-decoration="none" x="200" y="90">UNREGISTERED</text><text fill="#eeeeee" stroke="none" font-family="Arial" font-size="24px" font-style="normal" font-weight="normal" text-decoration="none" x="200" y="120">UNREGISTERED</text><text fill="#eeeeee" stroke="none" font-family="Arial" font-size="24px" font-style="normal" font-weight="normal" text-decoration="none" x="200" y="150">UNREGISTERED</text><text fill="#eeeeee" stroke="none" font-family="Arial" font-size="24px" font-style="normal" font-weight="normal" text-decoration="none" x="200" y="180">UNREGISTERED</text><text fill="#eeeeee" stroke="none" font-family="Arial" font-size="24px" font-style="normal" font-weight="normal" text-decoration="none" x="200" y="210">UNREGISTERED</text><text fill="#eeeeee" stroke="none" font-family="Arial" font-size="24px" font-style="normal" font-weight="normal" text-decoration="none" x="200" y="240">UNREGISTERED</text><text fill="#eeeeee" stroke="none" font-family="Arial" font-size="24px" font-style="normal" font-weight="normal" text-decoration="none" x="200" y="270">UNREGISTERED</text><text fill="#eeeeee" stroke="none" font-family="Arial" font-size="24px" font-style="normal" font-weight="normal" text-decoration="none" x="200" y="300">UNREGISTERED</text><text fill="#eeeeee" stroke="none" font-family="Arial" font-size="24px" font-style="normal" font-weight="normal" text-decoration="none" x="200" y="330">UNREGISTERED</text><text fill="#eeeeee" stroke="none" font-family="Arial" font-size="24px" font-style="normal" font-weight="normal" text-decoration="none" x="400" y="0">UNREGISTERED</text><text fill="#eeeeee" stroke="none" font-family="Arial" font-size="24px" font-style="normal" font-weight="normal" text-decoration="none" x="400" y="30">UNREGISTERED</text><text fill="#eeeeee" stroke="none" font-family="Arial" font-size="24px" font-style="normal" font-weight="normal" text-decoration="none" x="400" y="60">UNREGISTERED</text><text fill="#eeeeee" stroke="none" font-family="Arial" font-size="24px" font-style="normal" font-weight="normal" text-decoration="none" x="400" y="90">UNREGISTERED</text><text fill="#eeeeee" stroke="none" font-family="Arial" font-size="24px" font-style="normal" font-weight="normal" text-decoration="none" x="400" y="120">UNREGISTERED</text><text fill="#eeeeee" stroke="none" font-family="Arial" font-size="24px" font-style="normal" font-weight="normal" text-decoration="none" x="400" y="150">UNREGISTERED</text><text fill="#eeeeee" stroke="none" font-family="Arial" font-size="24px" font-style="normal" font-weight="normal" text-decoration="none" x="400" y="180">UNREGISTERED</text><text fill="#eeeeee" stroke="none" font-family="Arial" font-size="24px" font-style="normal" font-weight="normal" text-decoration="none" x="400" y="210">UNREGISTERED</text><text fill="#eeeeee" stroke="none" font-family="Arial" font-size="24px" font-style="normal" font-weight="normal" text-decoration="none" x="400" y="240">UNREGISTERED</text><text fill="#eeeeee" stroke="none" font-family="Arial" font-size="24px" font-style="normal" font-weight="normal" text-decoration="none" x="400" y="270">UNREGISTERED</text><text fill="#eeeeee" stroke="none" font-family="Arial" font-size="24px" font-style="normal" font-weight="normal" text-decoration="none" x="400" y="300">UNREGISTERED</text><text fill="#eeeeee" stroke="none" font-family="Arial" font-size="24px" font-style="normal" font-weight="normal" text-decoration="none" x="400" y="330">UNREGISTERED</text><text fill="#eeeeee" stroke="none" font-family="Arial" font-size="24px" font-style="normal" font-weight="normal" text-decoration="none" x="600" y="0">UNREGISTERED</text><text fill="#eeeeee" stroke="none" font-family="Arial" font-size="24px" font-style="normal" font-weight="normal" text-decoration="none" x="600" y="30">UNREGISTERED</text><text fill="#eeeeee" stroke="none" font-family="Arial" font-size="24px" font-style="normal" font-weight="normal" text-decoration="none" x="600" y="60">UNREGISTERED</text><text fill="#eeeeee" stroke="none" font-family="Arial" font-size="24px" font-style="normal" font-weight="normal" text-decoration="none" x="600" y="90">UNREGISTERED</text><text fill="#eeeeee" stroke="none" font-family="Arial" font-size="24px" font-style="normal" font-weight="normal" text-decoration="none" x="600" y="120">UNREGISTERED</text><text fill="#eeeeee" stroke="none" font-family="Arial" font-size="24px" font-style="normal" font-weight="normal" text-decoration="none" x="600" y="150">UNREGISTERED</text><text fill="#eeeeee" stroke="none" font-family="Arial" font-size="24px" font-style="normal" font-weight="normal" text-decoration="none" x="600" y="180">UNREGISTERED</text><text fill="#eeeeee" stroke="none" font-family="Arial" font-size="24px" font-style="normal" font-weight="normal" text-decoration="none" x="600" y="210">UNREGISTERED</text><text fill="#eeeeee" stroke="none" font-family="Arial" font-size="24px" font-style="normal" font-weight="normal" text-decoration="none" x="600" y="240">UNREGISTERED</text><text fill="#eeeeee" stroke="none" font-family="Arial" font-size="24px" font-style="normal" font-weight="normal" text-decoration="none" x="600" y="270">UNREGISTERED</text><text fill="#eeeeee" stroke="none" font-family="Arial" font-size="24px" font-style="normal" font-weight="normal" text-decoration="none" x="600" y="300">UNREGISTERED</text><text fill="#eeeeee" stroke="none" font-family="Arial" font-size="24px" font-style="normal" font-weight="normal" text-decoration="none" x="600" y="330">UNREGISTERED</text><text fill="#eeeeee" stroke="none" font-family="Arial" font-size="24px" font-style="normal" font-weight="normal" text-decoration="none" x="800" y="0">UNREGISTERED</text><text fill="#eeeeee" stroke="none" font-family="Arial" font-size="24px" font-style="normal" font-weight="normal" text-decoration="none" x="800" y="30">UNREGISTERED</text><text fill="#eeeeee" stroke="none" font-family="Arial" font-size="24px" font-style="normal" font-weight="normal" text-decoration="none" x="800" y="60">UNREGISTERED</text><text fill="#eeeeee" stroke="none" font-family="Arial" font-size="24px" font-style="normal" font-weight="normal" text-decoration="none" x="800" y="90">UNREGISTERED</text><text fill="#eeeeee" stroke="none" font-family="Arial" font-size="24px" font-style="normal" font-weight="normal" text-decoration="none" x="800" y="120">UNREGISTERED</text><text fill="#eeeeee" stroke="none" font-family="Arial" font-size="24px" font-style="normal" font-weight="normal" text-decoration="none" x="800" y="150">UNREGISTERED</text><text fill="#eeeeee" stroke="none" font-family="Arial" font-size="24px" font-style="normal" font-weight="normal" text-decoration="none" x="800" y="180">UNREGISTERED</text><text fill="#eeeeee" stroke="none" font-family="Arial" font-size="24px" font-style="normal" font-weight="normal" text-decoration="none" x="800" y="210">UNREGISTERED</text><text fill="#eeeeee" stroke="none" font-family="Arial" font-size="24px" font-style="normal" font-weight="normal" text-decoration="none" x="800" y="240">UNREGISTERED</text><text fill="#eeeeee" stroke="none" font-family="Arial" font-size="24px" font-style="normal" font-weight="normal" text-decoration="none" x="800" y="270">UNREGISTERED</text><text fill="#eeeeee" stroke="none" font-family="Arial" font-size="24px" font-style="normal" font-weight="normal" text-decoration="none" x="800" y="300">UNREGISTERED</text><text fill="#eeeeee" stroke="none" font-family="Arial" font-size="24px" font-style="normal" font-weight="normal" text-decoration="none" x="800" y="330">UNREGISTERED</text><text fill="#eeeeee" stroke="none" font-family="Arial" font-size="24px" font-style="normal" font-weight="normal" text-decoration="none" x="1000" y="0">UNREGISTERED</text><text fill="#eeeeee" stroke="none" font-family="Arial" font-size="24px" font-style="normal" font-weight="normal" text-decoration="none" x="1000" y="30">UNREGISTERED</text><text fill="#eeeeee" stroke="none" font-family="Arial" font-size="24px" font-style="normal" font-weight="normal" text-decoration="none" x="1000" y="60">UNREGISTERED</text><text fill="#eeeeee" stroke="none" font-family="Arial" font-size="24px" font-style="normal" font-weight="normal" text-decoration="none" x="1000" y="90">UNREGISTERED</text><text fill="#eeeeee" stroke="none" font-family="Arial" font-size="24px" font-style="normal" font-weight="normal" text-decoration="none" x="1000" y="120">UNREGISTERED</text><text fill="#eeeeee" stroke="none" font-family="Arial" font-size="24px" font-style="normal" font-weight="normal" text-decoration="none" x="1000" y="150">UNREGISTERED</text><text fill="#eeeeee" stroke="none" font-family="Arial" font-size="24px" font-style="normal" font-weight="normal" text-decoration="none" x="1000" y="180">UNREGISTERED</text><text fill="#eeeeee" stroke="none" font-family="Arial" font-size="24px" font-style="normal" font-weight="normal" text-decoration="none" x="1000" y="210">UNREGISTERED</text><text fill="#eeeeee" stroke="none" font-family="Arial" font-size="24px" font-style="normal" font-weight="normal" text-decoration="none" x="1000" y="240">UNREGISTERED</text><text fill="#eeeeee" stroke="none" font-family="Arial" font-size="24px" font-style="normal" font-weight="normal" text-decoration="none" x="1000" y="270">UNREGISTERED</text><text fill="#eeeeee" stroke="none" font-family="Arial" font-size="24px" font-style="normal" font-weight="normal" text-decoration="none" x="1000" y="300">UNREGISTERED</text><text fill="#eeeeee" stroke="none" font-family="Arial" font-size="24px" font-style="normal" font-weight="normal" text-decoration="none" x="1000" y="330">UNREGISTERED</text><text fill="#eeeeee" stroke="none" font-family="Arial" font-size="24px" font-style="normal" font-weight="normal" text-decoration="none" x="1200" y="0">UNREGISTERED</text><text fill="#eeeeee" stroke="none" font-family="Arial" font-size="24px" font-style="normal" font-weight="normal" text-decoration="none" x="1200" y="30">UNREGISTERED</text><text fill="#eeeeee" stroke="none" font-family="Arial" font-size="24px" font-style="normal" font-weight="normal" text-decoration="none" x="1200" y="60">UNREGISTERED</text><text fill="#eeeeee" stroke="none" font-family="Arial" font-size="24px" font-style="normal" font-weight="normal" text-decoration="none" x="1200" y="90">UNREGISTERED</text><text fill="#eeeeee" stroke="none" font-family="Arial" font-size="24px" font-style="normal" font-weight="normal" text-decoration="none" x="1200" y="120">UNREGISTERED</text><text fill="#eeeeee" stroke="none" font-family="Arial" font-size="24px" font-style="normal" font-weight="normal" text-decoration="none" x="1200" y="150">UNREGISTERED</text><text fill="#eeeeee" stroke="none" font-family="Arial" font-size="24px" font-style="normal" font-weight="normal" text-decoration="none" x="1200" y="180">UNREGISTERED</text><text fill="#eeeeee" stroke="none" font-family="Arial" font-size="24px" font-style="normal" font-weight="normal" text-decoration="none" x="1200" y="210">UNREGISTERED</text><text fill="#eeeeee" stroke="none" font-family="Arial" font-size="24px" font-style="normal" font-weight="normal" text-decoration="none" x="1200" y="240">UNREGISTERED</text><text fill="#eeeeee" stroke="none" font-family="Arial" font-size="24px" font-style="normal" font-weight="normal" text-decoration="none" x="1200" y="270">UNREGISTERED</text><text fill="#eeeeee" stroke="none" font-family="Arial" font-size="24px" font-style="normal" font-weight="normal" text-decoration="none" x="1200" y="300">UNREGISTERED</text><text fill="#eeeeee" stroke="none" font-family="Arial" font-size="24px" font-style="normal" font-weight="normal" text-decoration="none" x="1200" y="330">UNREGISTERED</text><g transform="translate(-54,-222) scale(1,1)"><path fill="#C0C0C0" stroke="none" d="M 71 264.5 C 71 259.2532944 75.2532944 255 80.5 255 C 85.7467056 255 90 259.2532944 90 264.5 C 90 269.7467056 85.7467056 274 80.5 274 C 75.2532944 274 71 269.7467056 71 264.5 Z" opacity="0.2"/></g><g transform="translate(-54,-222) scale(1,1)"><path fill="#000000" stroke="none" d="M 64 257.5 C 64 252.2532944 68.2532944 248 73.5 248 C 78.7467056 248 83 252.2532944 83 257.5 C 83 262.7467056 78.7467056 267 73.5 267 C 68.2532944 267 64 262.7467056 64 257.5 Z"/></g><g transform="translate(-54,-222) scale(1,1)"><path fill="#C0C0C0" stroke="none" d="M 169 239 L 257.708984375 239 Q 267.708984375 239 267.708984375 249 L 267.708984375 276 Q 267.708984375 286 257.708984375 286 L 169 286 Q 159 286 159 276 L 159 249 Q 159 239 169 239 Z" opacity="0.2"/></g><g transform="translate(-54,-222) scale(1,1)"><path fill="#ffffff" stroke="none" d="M 162 232 L 250.708984375 232 Q 260.708984375 232 260.708984375 242 L 260.708984375 269 Q 260.708984375 279 250.708984375 279 L 162 279 Q 152 279 152 269 L 152 242 Q 152 232 162 232 Z"/></g><g transform="translate(-54,-222) scale(1,1)"><path fill="none" stroke="#000000" d="M 162 232 L 250.708984375 232 Q 260.708984375 232 260.708984375 242 L 260.708984375 269 Q 260.708984375 279 250.708984375 279 L 162 279 Q 152 279 152 269 L 152 242 Q 152 232 162 232 Z" stroke-miterlimit="10"/></g><g transform="translate(-54,-222) scale(1,1)"><path fill="none" stroke="#000000" d="M 152 257 L 260.708984375 257" stroke-miterlimit="10"/></g><g transform="translate(-54,-222) scale(1,1)"><g><path fill="none" stroke="none"/><text fill="#000000" stroke="none" font-family="Arial" font-size="13px" font-style="normal" font-weight="bold" text-decoration="none" x="183.236328125" y="250">Solicita</text></g></g><g transform="translate(-54,-222) scale(1,1)"><g><path fill="none" stroke="none"/><text fill="#000000" stroke="none" font-family="Arial" font-size="13px" font-style="normal" font-weight="normal" text-decoration="none" x="157" y="273">do/SolicitaOrdem</text></g></g><g transform="translate(-54,-222) scale(1,1)"><path fill="none" stroke="#000000" d="M 84 257 L 151 256" stroke-miterlimit="10"/></g><g transform="translate(-54,-222) scale(1,1)"><path fill="none" stroke="#000000" d="M 140.90127853271014 260.3607137863082 L 151 256 L 140.77563528005294 251.9426158582774" stroke-miterlimit="10"/></g><g transform="translate(-54,-222) scale(1,1)"><path fill="#C0C0C0" stroke="none" d="M 409 239 L 488.32080078125 239 Q 498.32080078125 239 498.32080078125 249 L 498.32080078125 276 Q 498.32080078125 286 488.32080078125 286 L 409 286 Q 399 286 399 276 L 399 249 Q 399 239 409 239 Z" opacity="0.2"/></g><g transform="translate(-54,-222) scale(1,1)"><path fill="#ffffff" stroke="none" d="M 402 232 L 481.32080078125 232 Q 491.32080078125 232 491.32080078125 242 L 491.32080078125 269 Q 491.32080078125 279 481.32080078125 279 L 402 279 Q 392 279 392 269 L 392 242 Q 392 232 402 232 Z"/></g><g transform="translate(-54,-222) scale(1,1)"><path fill="none" stroke="#000000" d="M 402 232 L 481.32080078125 232 Q 491.32080078125 232 491.32080078125 242 L 491.32080078125 269 Q 491.32080078125 279 481.32080078125 279 L 402 279 Q 392 279 392 269 L 392 242 Q 392 232 402 232 Z" stroke-miterlimit="10"/></g><g transform="translate(-54,-222) scale(1,1)"><path fill="none" stroke="#000000" d="M 392 257 L 491.32080078125 257" stroke-miterlimit="10"/></g><g transform="translate(-54,-222) scale(1,1)"><g><path fill="none" stroke="none"/><text fill="#000000" stroke="none" font-family="Arial" font-size="13px" font-style="normal" font-weight="bold" text-decoration="none" x="424.318603515625" y="250">Envia</text></g></g><g transform="translate(-54,-222) scale(1,1)"><g><path fill="none" stroke="none"/><text fill="#000000" stroke="none" font-family="Arial" font-size="13px" font-style="normal" font-weight="normal" text-decoration="none" x="397" y="273">do/EnviaOrdem</text></g></g><g transform="translate(-54,-222) scale(1,1)"><path fill="none" stroke="#000000" d="M 262 255 L 391 255" stroke-miterlimit="10"/></g><g transform="translate(-54,-222) scale(1,1)"><path fill="none" stroke="#000000" d="M 380.83732514237585 259.209517756016 L 391 255 L 380.83732514237585 250.790482243984" stroke-miterlimit="10"/></g><g transform="translate(-54,-222) scale(1,1)"><g><path fill="none" stroke="none"/><text fill="#000000" stroke="none" font-family="Arial" font-size="13px" font-style="normal" font-weight="normal" text-decoration="none" x="266.5" y="245"> [Encaminha Ordem]</text></g></g><g transform="translate(-54,-222) scale(1,1)"><path fill="#C0C0C0" stroke="none" d="M 625 239 L 754.8671875 239 Q 764.8671875 239 764.8671875 249 L 764.8671875 268 Q 764.8671875 278 754.8671875 278 L 625 278 Q 615 278 615 268 L 615 249 Q 615 239 625 239 Z" opacity="0.2"/></g><g transform="translate(-54,-222) scale(1,1)"><path fill="#ffffff" stroke="none" d="M 618 232 L 747.8671875 232 Q 757.8671875 232 757.8671875 242 L 757.8671875 261 Q 757.8671875 271 747.8671875 271 L 618 271 Q 608 271 608 261 L 608 242 Q 608 232 618 232 Z"/></g><g transform="translate(-54,-222) scale(1,1)"><path fill="none" stroke="#000000" d="M 618 232 L 747.8671875 232 Q 757.8671875 232 757.8671875 242 L 757.8671875 261 Q 757.8671875 271 747.8671875 271 L 618 271 Q 608 271 608 261 L 608 242 Q 608 232 618 232 Z" stroke-miterlimit="10"/></g><g transform="translate(-54,-222) scale(1,1)"><g><path fill="none" stroke="none"/><text fill="#000000" stroke="none" font-family="Arial" font-size="13px" font-style="normal" font-weight="bold" text-decoration="none" x="612.5" y="250">Aguardando Execução</text></g></g><g transform="translate(-54,-222) scale(1,1)"><path fill="none" stroke="#000000" d="M 492 254 L 607 252" stroke-miterlimit="10"/></g><g transform="translate(-54,-222) scale(1,1)"><path fill="none" stroke="#000000" d="M 596.9120596179367 256.38559674935306 L 607 252 L 596.7656637466201 247.96783414865465" stroke-miterlimit="10"/></g><g transform="translate(-54,-222) scale(1,1)"><path fill="#C0C0C0" stroke="none" d="M 649 399 L 739.8798828125 399 Q 749.8798828125 399 749.8798828125 409 L 749.8798828125 436 Q 749.8798828125 446 739.8798828125 446 L 649 446 Q 639 446 639 436 L 639 409 Q 639 399 649 399 Z" opacity="0.2"/></g><g transform="translate(-54,-222) scale(1,1)"><path fill="#ffffff" stroke="none" d="M 642 392 L 732.8798828125 392 Q 742.8798828125 392 742.8798828125 402 L 742.8798828125 429 Q 742.8798828125 439 732.8798828125 439 L 642 439 Q 632 439 632 429 L 632 402 Q 632 392 642 392 Z"/></g><g transform="translate(-54,-222) scale(1,1)"><path fill="none" stroke="#000000" d="M 642 392 L 732.8798828125 392 Q 742.8798828125 392 742.8798828125 402 L 742.8798828125 429 Q 742.8798828125 439 732.8798828125 439 L 642 439 Q 632 439 632 429 L 632 402 Q 632 392 642 392 Z" stroke-miterlimit="10"/></g><g transform="translate(-54,-222) scale(1,1)"><path fill="none" stroke="#000000" d="M 632 417 L 742.8798828125 417" stroke-miterlimit="10"/></g><g transform="translate(-54,-222) scale(1,1)"><g><path fill="none" stroke="none"/><text fill="#000000" stroke="none" font-family="Arial" font-size="13px" font-style="normal" font-weight="bold" text-decoration="none" x="636.5" y="410">Checar Detalhes</text></g></g><g transform="translate(-54,-222) scale(1,1)"><g><path fill="none" stroke="none"/><text fill="#000000" stroke="none" font-family="Arial" font-size="13px" font-style="normal" font-weight="normal" text-decoration="none" x="637" y="433">do/Detalhes</text></g></g><g transform="translate(-54,-222) scale(1,1)"><path fill="#C0C0C0" stroke="none" d="M 649 511 L 733.3798828125 511 Q 743.3798828125 511 743.3798828125 521 L 743.3798828125 548 Q 743.3798828125 558 733.3798828125 558 L 649 558 Q 639 558 639 548 L 639 521 Q 639 511 649 511 Z" opacity="0.2"/></g><g transform="translate(-54,-222) scale(1,1)"><path fill="#ffffff" stroke="none" d="M 642 504 L 726.3798828125 504 Q 736.3798828125 504 736.3798828125 514 L 736.3798828125 541 Q 736.3798828125 551 726.3798828125 551 L 642 551 Q 632 551 632 541 L 632 514 Q 632 504 642 504 Z"/></g><g transform="translate(-54,-222) scale(1,1)"><path fill="none" stroke="#000000" d="M 642 504 L 726.3798828125 504 Q 736.3798828125 504 736.3798828125 514 L 736.3798828125 541 Q 736.3798828125 551 726.3798828125 551 L 642 551 Q 632 551 632 541 L 632 514 Q 632 504 642 504 Z" stroke-miterlimit="10"/></g><g transform="translate(-54,-222) scale(1,1)"><path fill="none" stroke="#000000" d="M 632 529 L 736.3798828125 529" stroke-miterlimit="10"/></g><g transform="translate(-54,-222) scale(1,1)"><g><path fill="none" stroke="none"/><text fill="#000000" stroke="none" font-family="Arial" font-size="13px" font-style="normal" font-weight="bold" text-decoration="none" x="662.15087890625" y="522">Deletar</text></g></g><g transform="translate(-54,-222) scale(1,1)"><g><path fill="none" stroke="none"/><text fill="#000000" stroke="none" font-family="Arial" font-size="13px" font-style="normal" font-weight="normal" text-decoration="none" x="637" y="545">do/DeletaOrdem</text></g></g><g transform="translate(-54,-222) scale(1,1)"><path fill="#C0C0C0" stroke="none" d="M 961 399 L 1077.892578125 399 Q 1087.892578125 399 1087.892578125 409 L 1087.892578125 436 Q 1087.892578125 446 1077.892578125 446 L 961 446 Q 951 446 951 436 L 951 409 Q 951 399 961 399 Z" opacity="0.2"/></g><g transform="translate(-54,-222) scale(1,1)"><path fill="#ffffff" stroke="none" d="M 954 392 L 1070.892578125 392 Q 1080.892578125 392 1080.892578125 402 L 1080.892578125 429 Q 1080.892578125 439 1070.892578125 439 L 954 439 Q 944 439 944 429 L 944 402 Q 944 392 954 392 Z"/></g><g transform="translate(-54,-222) scale(1,1)"><path fill="none" stroke="#000000" d="M 954 392 L 1070.892578125 392 Q 1080.892578125 392 1080.892578125 402 L 1080.892578125 429 Q 1080.892578125 439 1070.892578125 439 L 954 439 Q 944 439 944 429 L 944 402 Q 944 392 954 392 Z" stroke-miterlimit="10"/></g><g transform="translate(-54,-222) scale(1,1)"><path fill="none" stroke="#000000" d="M 944 417 L 1080.892578125 417" stroke-miterlimit="10"/></g><g transform="translate(-54,-222) scale(1,1)"><g><path fill="none" stroke="none"/><text fill="#000000" stroke="none" font-family="Arial" font-size="13px" font-style="normal" font-weight="bold" text-decoration="none" x="951.035888671875" y="410">Alterar Informações</text></g></g><g transform="translate(-54,-222) scale(1,1)"><g><path fill="none" stroke="none"/><text fill="#000000" stroke="none" font-family="Arial" font-size="13px" font-style="normal" font-weight="normal" text-decoration="none" x="949" y="433">do/AlterarInformacoes</text></g></g><g transform="translate(-54,-222) scale(1,1)"><path fill="#C0C0C0" stroke="none" d="M 1089 239 L 1176.2744140625 239 Q 1186.2744140625 239 1186.2744140625 249 L 1186.2744140625 276 Q 1186.2744140625 286 1176.2744140625 286 L 1089 286 Q 1079 286 1079 276 L 1079 249 Q 1079 239 1089 239 Z" opacity="0.2"/></g><g transform="translate(-54,-222) scale(1,1)"><path fill="#ffffff" stroke="none" d="M 1082 232 L 1169.2744140625 232 Q 1179.2744140625 232 1179.2744140625 242 L 1179.2744140625 269 Q 1179.2744140625 279 1169.2744140625 279 L 1082 279 Q 1072 279 1072 269 L 1072 242 Q 1072 232 1082 232 Z"/></g><g transform="translate(-54,-222) scale(1,1)"><path fill="none" stroke="#000000" d="M 1082 232 L 1169.2744140625 232 Q 1179.2744140625 232 1179.2744140625 242 L 1179.2744140625 269 Q 1179.2744140625 279 1169.2744140625 279 L 1082 279 Q 1072 279 1072 269 L 1072 242 Q 1072 232 1082 232 Z" stroke-miterlimit="10"/></g><g transform="translate(-54,-222) scale(1,1)"><path fill="none" stroke="#000000" d="M 1072 257 L 1179.2744140625 257" stroke-miterlimit="10"/></g><g transform="translate(-54,-222) scale(1,1)"><g><path fill="none" stroke="none"/><text fill="#000000" stroke="none" font-family="Arial" font-size="13px" font-style="normal" font-weight="bold" text-decoration="none" x="1101.8017578125" y="250">Notifica</text></g></g><g transform="translate(-54,-222) scale(1,1)"><g><path fill="none" stroke="none"/><text fill="#000000" stroke="none" font-family="Arial" font-size="13px" font-style="normal" font-weight="normal" text-decoration="none" x="1077" y="273">do/NotificaStatus</text></g></g><g transform="translate(-54,-222) scale(1,1)"><path fill="#C0C0C0" stroke="none" d="M 1119 531.5 C 1119 524.59644 1124.59644 519 1131.5 519 C 1138.40356 519 1144 524.59644 1144 531.5 C 1144 538.40356 1138.40356 544 1131.5 544 C 1124.59644 544 1119 538.40356 1119 531.5 Z" opacity="0.2"/></g><g transform="translate(-54,-222) scale(1,1)"><path fill="none" stroke="#000000" d="M 1112 524.5 C 1112 517.59644 1117.59644 512 1124.5 512 C 1131.40356 512 1137 517.59644 1137 524.5 C 1137 531.40356 1131.40356 537 1124.5 537 C 1117.59644 537 1112 531.40356 1112 524.5 Z" stroke-miterlimit="10"/></g><g transform="translate(-54,-222) scale(1,1)"><path fill="#000000" stroke="none" d="M 1117 524.5 C 1117 520.357864 1120.357864 517 1124.5 517 C 1128.642136 517 1132 520.357864 1132 524.5 C 1132 528.642136 1128.642136 532 1124.5 532 C 1120.357864 532 1117 528.642136 1117 524.5 Z"/></g><g transform="translate(-54,-222) scale(1,1)"><path fill="none" stroke="#000000" d="M 683 272 L 686 391" stroke-miterlimit="10"/></g><g transform="translate(-54,-222) scale(1,1)"><path fill="none" stroke="#000000" d="M 681.535698771096 380.94664162890797 L 686 391 L 689.9520602056803 380.73446444988485" stroke-miterlimit="10"/></g><g transform="translate(-54,-222) scale(1,1)"><g><path fill="none" stroke="none"/><text fill="#000000" stroke="none" font-family="Arial" font-size="13px" font-style="normal" font-weight="normal" text-decoration="none" x="527.5" y="330"> [Verifica os Detalhes]</text></g></g><g transform="translate(-54,-222) scale(1,1)"><path fill="none" stroke="#000000" d="M 686 440 L 685 503" stroke-miterlimit="10"/></g><g transform="translate(-54,-222) scale(1,1)"><path fill="none" stroke="#000000" d="M 680.9523044249755 492.7717958305513 L 685 503 L 689.3702795382991 492.9054144831438" stroke-miterlimit="10"/></g><g transform="translate(-54,-222) scale(1,1)"><g><path fill="none" stroke="none"/><text fill="#000000" stroke="none" font-family="Arial" font-size="13px" font-style="normal" font-weight="normal" text-decoration="none" x="502.5" y="474"> [Deleta a ordem de Venda]</text></g></g><g transform="translate(-54,-222) scale(1,1)"><path fill="none" stroke="#000000" d="M 744 415 L 943 415" stroke-miterlimit="10"/></g><g transform="translate(-54,-222) scale(1,1)"><path fill="none" stroke="#000000" d="M 932.8373251423759 419.209517756016 L 943 415 L 932.8373251423758 410.790482243984" stroke-miterlimit="10"/></g><g transform="translate(-54,-222) scale(1,1)"><g><path fill="none" stroke="none"/><text fill="#000000" stroke="none" font-family="Arial" font-size="13px" font-style="normal" font-weight="normal" text-decoration="none" x="742.5" y="402"> [Se necessário Ajuste da Ordem]</text></g></g><g transform="translate(-54,-222) scale(1,1)"><path fill="none" stroke="#000000" d="M 964 391 L 724 272" stroke-miterlimit="10"/></g><g transform="translate(-54,-222) scale(1,1)"><path fill="none" stroke="#000000" d="M 734.9748687252782 272.743139598536 L 724 272 L 731.2349250487832 280.28588314776937" stroke-miterlimit="10"/></g><g transform="translate(-54,-222) scale(1,1)"><g><path fill="none" stroke="none"/><text fill="#000000" stroke="none" font-family="Arial" font-size="13px" font-style="normal" font-weight="normal" text-decoration="none" x="763.736328125" y="349"> [Envio das Inf de Ordem]</text></g></g><g transform="translate(-54,-222) scale(1,1)"><path fill="none" stroke="#000000" d="M 759 252 L 1071 255" stroke-miterlimit="10"/></g><g transform="translate(-54,-222) scale(1,1)"><path fill="none" stroke="#000000" d="M 1060.7973206467345 259.111609662219 L 1071 255 L 1060.8782691692868 250.69296331678123" stroke-miterlimit="10"/></g><g transform="translate(-54,-222) scale(1,1)"><g><path fill="none" stroke="none"/><text fill="#000000" stroke="none" font-family="Arial" font-size="13px" font-style="normal" font-weight="normal" text-decoration="none" x="775.5" y="243"> [Notifica Aprovação ou Reprovação da Compra]</text></g></g><g transform="translate(-54,-222) scale(1,1)"><path fill="none" stroke="#000000" d="M 1125 280 L 1124 511" stroke-miterlimit="10"/></g><g transform="translate(-54,-222) scale(1,1)"><path fill="none" stroke="#000000" d="M 1119.8345155384234 500.81919751687695 L 1124 511 L 1128.2534721640293 500.8556432165549" stroke-miterlimit="10"/></g><g transform="translate(-54,-222) scale(1,1)"><g><path fill="none" stroke="none"/><text fill="#000000" stroke="none" font-family="Arial" font-size="13px" font-style="normal" font-weight="normal" text-decoration="none" x="1134.5" y="359"> [Finaliza a ordem de Compra]</text></g></g><g transform="translate(-54,-222) scale(1,1)"><path fill="none" stroke="#000000" d="M 737 527 L 1111 524" stroke-miterlimit="10"/></g><g transform="translate(-54,-222) scale(1,1)"><path fill="none" stroke="#000000" d="M 1100.8714171725442 528.2908984965119 L 1111 524 L 1100.8038869746297 519.8721338231632" stroke-miterlimit="10"/></g></g></svg>