<svg version="1.1" xmlns="http://www.w3.org/2000/svg" xmlns:xlink="http://www.w3.org/1999/xlink" width="766.17724609375" height="342"><defs/><g><text fill="#eeeeee" stroke="none" font-family="Arial" font-size="24px" font-style="normal" font-weight="normal" text-decoration="none" x="0" y="0">UNREGISTERED</text><text fill="#eeeeee" stroke="none" font-family="Arial" font-size="24px" font-style="normal" font-weight="normal" text-decoration="none" x="0" y="30">UNREGISTERED</text><text fill="#eeeeee" stroke="none" font-family="Arial" font-size="24px" font-style="normal" font-weight="normal" text-decoration="none" x="0" y="60">UNREGISTERED</text><text fill="#eeeeee" stroke="none" font-family="Arial" font-size="24px" font-style="normal" font-weight="normal" text-decoration="none" x="0" y="90">UNREGISTERED</text><text fill="#eeeeee" stroke="none" font-family="Arial" font-size="24px" font-style="normal" font-weight="normal" text-decoration="none" x="0" y="120">UNREGISTERED</text><text fill="#eeeeee" stroke="none" font-family="Arial" font-size="24px" font-style="normal" font-weight="normal" text-decoration="none" x="0" y="150">UNREGISTERED</text><text fill="#eeeeee" stroke="none" font-family="Arial" font-size="24px" font-style="normal" font-weight="normal" text-decoration="none" x="0" y="180">UNREGISTERED</text><text fill="#eeeeee" stroke="none" font-family="Arial" font-size="24px" font-style="normal" font-weight="normal" text-decoration="none" x="0" y="210">UNREGISTERED</text><text fill="#eeeeee" stroke="none" font-family="Arial" font-size="24px" font-style="normal" font-weight="normal" text-decoration="none" x="0" y="240">UNREGISTERED</text><text fill="#eeeeee" stroke="none" font-family="Arial" font-size="24px" font-style="normal" font-weight="normal" text-decoration="none" x="0" y="270">UNREGISTERED</text><text fill="#eeeeee" stroke="none" font-family="Arial" font-size="24px" font-style="normal" font-weight="normal" text-decoration="none" x="0" y="300">UNREGISTERED</text><text fill="#eeeeee" stroke="none" font-family="Arial" font-size="24px" font-style="normal" font-weight="normal" text-decoration="none" x="0" y="330">UNREGISTERED</text><text fill="#eeeeee" stroke="none" font-family="Arial" font-size="24px" font-style="normal" font-weight="normal" text-decoration="none" x="200" y="0">UNREGISTERED</text><text fill="#eeeeee" stroke="none" font-family="Arial" font-size="24px" font-style="normal" font-weight="normal" text-decoration="none" x="200" y="30">UNREGISTERED</text><text fill="#eeeeee" stroke="none" font-family="Arial" font-size="24px" font-style="normal" font-weight="normal" text-decoration="none" x="200" y="60">UNREGISTERED</text><text fill="#eeeeee" stroke="none" font-family="Arial" font-size="24px" font-style="normal" font-weight="normal" text-decoration="none" x="200" y="90">UNREGISTERED</text><text fill="#eeeeee" stroke="none" font-family="Arial" font-size="24px" font-style="normal" font-weight="normal" text-decoration="none" x="200" y="120">UNREGISTERED</text><text fill="#eeeeee" stroke="none" font-family="Arial" font-size="24px" font-style="normal" font-weight="normal" text-decoration="none" x="200" y="150">UNREGISTERED</text><text fill="#eeeeee" stroke="none" font-family="Arial" font-size="24px" font-style="normal" font-weight="normal" text-decoration="none" x="200" y="180">UNREGISTERED</text><text fill="#eeeeee" stroke="none" font-family="Arial" font-size="24px" font-style="normal" font-weight="normal" text-decoration="none" x="200" y="210">UNREGISTERED</text><text fill="#eeeeee" stroke="none" font-family="Arial" font-size="24px" font-style="normal" font-weight="normal" text-decoration="none" x="200" y="240">UNREGISTERED</text><text fill="#eeeeee" stroke="none" font-family="Arial" font-size="24px" font-style="normal" font-weight="normal" text-decoration="none" x="200" y="270">UNREGISTERED</text><text fill="#eeeeee" stroke="none" font-family="Arial" font-size="24px" font-style="normal" font-weight="normal" text-decoration="none" x="200" y="300">UNREGISTERED</text><text fill="#eeeeee" stroke="none" font-family="Arial" font-size="24px" font-style="normal" font-weight="normal" text-decoration="none" x="200" y="330">UNREGISTERED</text><text fill="#eeeeee" stroke="none" font-family="Arial" font-size="24px" font-style="normal" font-weight="normal" text-decoration="none" x="400" y="0">UNREGISTERED</text><text fill="#eeeeee" stroke="none" font-family="Arial" font-size="24px" font-style="normal" font-weight="normal" text-decoration="none" x="400" y="30">UNREGISTERED</text><text fill="#eeeeee" stroke="none" font-family="Arial" font-size="24px" font-style="normal" font-weight="normal" text-decoration="none" x="400" y="60">UNREGISTERED</text><text fill="#eeeeee" stroke="none" font-family="Arial" font-size="24px" font-style="normal" font-weight="normal" text-decoration="none" x="400" y="90">UNREGISTERED</text><text fill="#eeeeee" stroke="none" font-family="Arial" font-size="24px" font-style="normal" font-weight="normal" text-decoration="none" x="400" y="120">UNREGISTERED</text><text fill="#eeeeee" stroke="none" font-family="Arial" font-size="24px" font-style="normal" font-weight="normal" text-decoration="none" x="400" y="150">UNREGISTERED</text><text fill="#eeeeee" stroke="none" font-family="Arial" font-size="24px" font-style="normal" font-weight="normal" text-decoration="none" x="400" y="180">UNREGISTERED</text><text fill="#eeeeee" stroke="none" font-family="Arial" font-size="24px" font-style="normal" font-weight="normal" text-decoration="none" x="400" y="210">UNREGISTERED</text><text fill="#eeeeee" stroke="none" font-family="Arial" font-size="24px" font-style="normal" font-weight="normal" text-decoration="none" x="400" y="240">UNREGISTERED</text><text fill="#eeeeee" stroke="none" font-family="Arial" font-size="24px" font-style="normal" font-weight="normal" text-decoration="none" x="400" y="270">UNREGISTERED</text><text fill="#eeeeee" stroke="none" font-family="Arial" font-size="24px" font-style="normal" font-weight="normal" text-decoration="none" x="400" y="300">UNREGISTERED</text><text fill="#eeeeee" stroke="none" font-family="Arial" font-size="24px" font-style="normal" font-weight="normal" text-decoration="none" x="400" y="330">UNREGISTERED</text><text fill="#eeeeee" stroke="none" font-family="Arial" font-size="24px" font-style="normal" font-weight="normal" text-decoration="none" x="600" y="0">UNREGISTERED</text><text fill="#eeeeee" stroke="none" font-family="Arial" font-size="24px" font-style="normal" font-weight="normal" text-decoration="none" x="600" y="30">UNREGISTERED</text><text fill="#eeeeee" stroke="none" font-family="Arial" font-size="24px" font-style="normal" font-weight="normal" text-decoration="none" x="600" y="60">UNREGISTERED</text><text fill="#eeeeee" stroke="none" font-family="Arial" font-size="24px" font-style="normal" font-weight="normal" text-decoration="none" x="600" y="90">UNREGISTERED</text><text fill="#eeeeee" stroke="none" font-family="Arial" font-size="24px" font-style="normal" font-weight="normal" text-decoration="none" x="600" y="120">UNREGISTERED</text><text fill="#eeeeee" stroke="none" font-family="Arial" font-size="24px" font-style="normal" font-weight="normal" text-decoration="none" x="600" y="150">UNREGISTERED</text><text fill="#eeeeee" stroke="none" font-family="Arial" font-size="24px" font-style="normal" font-weight="normal" text-decoration="none" x="600" y="180">UNREGISTERED</text><text fill="#eeeeee" stroke="none" font-family="Arial" font-size="24px" font-style="normal" font-weight="normal" text-decoration="none" x="600" y="210">UNREGISTERED</text><text fill="#eeeeee" stroke="none" font-family="Arial" font-size="24px" font-style="normal" font-weight="normal" text-decoration="none" x="600" y="240">UNREGISTERED</text><text fill="#eeeeee" stroke="none" font-family="Arial" font-size="24px" font-style="normal" font-weight="normal" text-decoration="none" x="600" y="270">UNREGISTERED</text><text fill="#eeeeee" stroke="none" font-family="Arial" font-size="24px" font-style="normal" font-weight="normal" text-decoration="none" x="600" y="300">UNREGISTERED</text><text fill="#eeeeee" stroke="none" font-family="Arial" font-size="24px" font-style="normal" font-weight="normal" text-decoration="none" x="600" y="330">UNREGISTERED</text><g transform="translate(-158,-70) scale(1,1)"><path fill="#ffffff" stroke="none" d="M 188.02116672585228 129.68 C 188.02116672585228 124.886167936 191.90700905079774 121 196.700439453125 121 C 201.49386985545226 121 205.37971218039772 124.886167936 205.37971218039772 129.68 C 205.37971218039772 134.47383206400002 201.49386985545226 138.36 196.700439453125 138.36 C 191.90700905079774 138.36 188.02116672585228 134.47383206400002 188.02116672585228 129.68 Z"/></g><g transform="translate(-158,-70) scale(1,1)"><path fill="none" stroke="#000000" d="M 188.02116672585228 129.68 C 188.02116672585228 124.886167936 191.90700905079774 121 196.700439453125 121 C 201.49386985545226 121 205.37971218039772 124.886167936 205.37971218039772 129.68 C 205.37971218039772 134.47383206400002 201.49386985545226 138.36 196.700439453125 138.36 C 191.90700905079774 138.36 188.02116672585228 134.47383206400002 188.02116672585228 129.68 Z" stroke-miterlimit="10"/></g><g transform="translate(-158,-70) scale(1,1)"><path fill="none" stroke="#000000" d="M 196.700439453125 138.36 L 196.700439453125 155.64" stroke-miterlimit="10"/></g><g transform="translate(-158,-70) scale(1,1)"><path fill="none" stroke="#000000" d="M 187.51062127130683 144.84 L 205.89025763494317 144.84" stroke-miterlimit="10"/></g><g transform="translate(-158,-70) scale(1,1)"><path fill="none" stroke="#000000" d="M 196.700439453125 155.64 L 183.93680308948865 173" stroke-miterlimit="10"/></g><g transform="translate(-158,-70) scale(1,1)"><path fill="none" stroke="#000000" d="M 196.700439453125 155.64 L 209.46407581676135 173" stroke-miterlimit="10"/></g><g transform="translate(-158,-70) scale(1,1)"><g><path fill="none" stroke="none"/><text fill="#000000" stroke="none" font-family="Arial" font-size="13px" font-style="normal" font-weight="bold" text-decoration="none" x="172.5" y="192">Usuario</text></g></g><g transform="translate(-158,-70) scale(1,1)"><path fill="#C0C0C0" stroke="none" d="M 359 104 C 359 94.6111584 394.5933584 87 438.5 87 C 482.4066416 87 518 94.6111584 518 104 C 518 113.3888416 482.4066416 121 438.5 121 C 394.5933584 121 359 113.3888416 359 104 Z" opacity="0.2"/></g><g transform="translate(-158,-70) scale(1,1)"><path fill="#ffffff" stroke="none" d="M 352 97 C 352 87.6111584 387.5933584 80 431.5 80 C 475.4066416 80 511 87.6111584 511 97 C 511 106.3888416 475.4066416 114 431.5 114 C 387.5933584 114 352 106.3888416 352 97 Z"/></g><g transform="translate(-158,-70) scale(1,1)"><path fill="none" stroke="#000000" d="M 352 97 C 352 87.6111584 387.5933584 80 431.5 80 C 475.4066416 80 511 87.6111584 511 97 C 511 106.3888416 475.4066416 114 431.5 114 C 387.5933584 114 352 106.3888416 352 97 Z" stroke-miterlimit="10"/></g><g transform="translate(-158,-70) scale(1,1)"><g><path fill="none" stroke="none"/><text fill="#000000" stroke="none" font-family="Arial" font-size="13px" font-style="normal" font-weight="bold" text-decoration="none" x="403.325927734375" y="102.5">Cadastro</text></g></g><g transform="translate(-158,-70) scale(1,1)"><path fill="none" stroke="#000000" d="M 226 151 L 363 115" stroke-miterlimit="10"/></g><g transform="translate(-158,-70) scale(1,1)"><path fill="#C0C0C0" stroke="none" d="M 399 224 C 399 214.6111584 438.3989376 207 487 207 C 535.6010624 207 575 214.6111584 575 224 C 575 233.3888416 535.6010624 241 487 241 C 438.3989376 241 399 233.3888416 399 224 Z" opacity="0.2"/></g><g transform="translate(-158,-70) scale(1,1)"><path fill="#ffffff" stroke="none" d="M 392 217 C 392 207.6111584 431.3989376 200 480 200 C 528.6010624 200 568 207.6111584 568 217 C 568 226.3888416 528.6010624 234 480 234 C 431.3989376 234 392 226.3888416 392 217 Z"/></g><g transform="translate(-158,-70) scale(1,1)"><path fill="none" stroke="#000000" d="M 392 217 C 392 207.6111584 431.3989376 200 480 200 C 528.6010624 200 568 207.6111584 568 217 C 568 226.3888416 528.6010624 234 480 234 C 431.3989376 234 392 226.3888416 392 217 Z" stroke-miterlimit="10"/></g><g transform="translate(-158,-70) scale(1,1)"><g><path fill="none" stroke="none"/><text fill="#000000" stroke="none" font-family="Arial" font-size="13px" font-style="normal" font-weight="bold" text-decoration="none" x="423.293212890625" y="222.5">Ordem de Compra</text></g></g><g transform="translate(-158,-70) scale(1,1)"><path fill="none" stroke="#000000" d="M 226 165 L 392 199" stroke-miterlimit="10"/></g><g transform="translate(-158,-70) scale(1,1)"><path fill="#C0C0C0" stroke="none" d="M 415 280 C 415 270.6111584 450.36950079999997 263 494 263 C 537.6304992 263 573 270.6111584 573 280 C 573 289.3888416 537.6304992 297 494 297 C 450.36950079999997 297 415 289.3888416 415 280 Z" opacity="0.2"/></g><g transform="translate(-158,-70) scale(1,1)"><path fill="#ffffff" stroke="none" d="M 408 273 C 408 263.6111584 443.36950079999997 256 487 256 C 530.6304992 256 566 263.6111584 566 273 C 566 282.3888416 530.6304992 290 487 290 C 443.36950079999997 290 408 282.3888416 408 273 Z"/></g><g transform="translate(-158,-70) scale(1,1)"><path fill="none" stroke="#000000" d="M 408 273 C 408 263.6111584 443.36950079999997 256 487 256 C 530.6304992 256 566 263.6111584 566 273 C 566 282.3888416 530.6304992 290 487 290 C 443.36950079999997 290 408 282.3888416 408 273 Z" stroke-miterlimit="10"/></g><g transform="translate(-158,-70) scale(1,1)"><g><path fill="none" stroke="none"/><text fill="#000000" stroke="none" font-family="Arial" font-size="13px" font-style="normal" font-weight="bold" text-decoration="none" x="435.70458984375" y="278.5">Ordem de Venda</text></g></g><g transform="translate(-158,-70) scale(1,1)"><path fill="none" stroke="#000000" d="M 226 171 L 441 255" stroke-miterlimit="10"/></g><g transform="translate(-158,-70) scale(1,1)"><path fill="#C0C0C0" stroke="none" d="M 431 336 C 431 326.6111584 461.4446336 319 499 319 C 536.5553664 319 567 326.6111584 567 336 C 567 345.3888416 536.5553664 353 499 353 C 461.4446336 353 431 345.3888416 431 336 Z" opacity="0.2"/></g><g transform="translate(-158,-70) scale(1,1)"><path fill="#ffffff" stroke="none" d="M 424 329 C 424 319.6111584 454.4446336 312 492 312 C 529.5553664 312 560 319.6111584 560 329 C 560 338.3888416 529.5553664 346 492 346 C 454.4446336 346 424 338.3888416 424 329 Z"/></g><g transform="translate(-158,-70) scale(1,1)"><path fill="none" stroke="#000000" d="M 424 329 C 424 319.6111584 454.4446336 312 492 312 C 529.5553664 312 560 319.6111584 560 329 C 560 338.3888416 529.5553664 346 492 346 C 454.4446336 346 424 338.3888416 424 329 Z" stroke-miterlimit="10"/></g><g transform="translate(-158,-70) scale(1,1)"><g><path fill="none" stroke="none"/><text fill="#000000" stroke="none" font-family="Arial" font-size="13px" font-style="normal" font-weight="bold" text-decoration="none" x="467.431396484375" y="334.5">Carteira</text></g></g><g transform="translate(-158,-70) scale(1,1)"><path fill="none" stroke="#000000" d="M 226 176 L 461 311" stroke-miterlimit="10"/></g><g transform="translate(-158,-70) scale(1,1)"><path fill="#ffffff" stroke="none" d="M 880.4093503196023 209.68 C 880.4093503196023 204.886167936 884.2951926445477 201 889.088623046875 201 C 893.8820534492023 201 897.7678957741477 204.886167936 897.7678957741477 209.68 C 897.7678957741477 214.47383206400002 893.8820534492023 218.36 889.088623046875 218.36 C 884.2951926445477 218.36 880.4093503196023 214.47383206400002 880.4093503196023 209.68 Z"/></g><g transform="translate(-158,-70) scale(1,1)"><path fill="none" stroke="#000000" d="M 880.4093503196023 209.68 C 880.4093503196023 204.886167936 884.2951926445477 201 889.088623046875 201 C 893.8820534492023 201 897.7678957741477 204.886167936 897.7678957741477 209.68 C 897.7678957741477 214.47383206400002 893.8820534492023 218.36 889.088623046875 218.36 C 884.2951926445477 218.36 880.4093503196023 214.47383206400002 880.4093503196023 209.68 Z" stroke-miterlimit="10"/></g><g transform="translate(-158,-70) scale(1,1)"><path fill="none" stroke="#000000" d="M 889.088623046875 218.36 L 889.088623046875 235.64" stroke-miterlimit="10"/></g><g transform="translate(-158,-70) scale(1,1)"><path fill="none" stroke="#000000" d="M 879.8988048650568 224.84 L 898.2784412286932 224.84" stroke-miterlimit="10"/></g><g transform="translate(-158,-70) scale(1,1)"><path fill="none" stroke="#000000" d="M 889.088623046875 235.64 L 876.3249866832386 253" stroke-miterlimit="10"/></g><g transform="translate(-158,-70) scale(1,1)"><path fill="none" stroke="#000000" d="M 889.088623046875 235.64 L 901.8522594105114 253" stroke-miterlimit="10"/></g><g transform="translate(-158,-70) scale(1,1)"><g><path fill="none" stroke="none"/><text fill="#000000" stroke="none" font-family="Arial" font-size="13px" font-style="normal" font-weight="bold" text-decoration="none" x="880.779541015625" y="272">B3</text></g></g><g transform="translate(-158,-70) scale(1,1)"><path fill="#C0C0C0" stroke="none" d="M 359 392 C 359 382.6111584 410.0395328 375 473 375 C 535.9604672 375 587 382.6111584 587 392 C 587 401.3888416 535.9604672 409 473 409 C 410.0395328 409 359 401.3888416 359 392 Z" opacity="0.2"/></g><g transform="translate(-158,-70) scale(1,1)"><path fill="#ffffff" stroke="none" d="M 352 385 C 352 375.6111584 403.0395328 368 466 368 C 528.9604672 368 580 375.6111584 580 385 C 580 394.3888416 528.9604672 402 466 402 C 403.0395328 402 352 394.3888416 352 385 Z"/></g><g transform="translate(-158,-70) scale(1,1)"><path fill="none" stroke="#000000" d="M 352 385 C 352 375.6111584 403.0395328 368 466 368 C 528.9604672 368 580 375.6111584 580 385 C 580 394.3888416 528.9604672 402 466 402 C 403.0395328 402 352 394.3888416 352 385 Z" stroke-miterlimit="10"/></g><g transform="translate(-158,-70) scale(1,1)"><g><path fill="none" stroke="none"/><text fill="#000000" stroke="none" font-family="Arial" font-size="13px" font-style="normal" font-weight="bold" text-decoration="none" x="389.88525390625" y="390.5">Graficos e Visualizações</text></g></g><g transform="translate(-158,-70) scale(1,1)"><path fill="none" stroke="#000000" d="M 226 184 L 444 367" stroke-miterlimit="10"/></g><g transform="translate(-158,-70) scale(1,1)"><path fill="#C0C0C0" stroke="none" d="M 383 160 C 383 150.6111584 423.294368 143 473 143 C 522.705632 143 563 150.6111584 563 160 C 563 169.3888416 522.705632 177 473 177 C 423.294368 177 383 169.3888416 383 160 Z" opacity="0.2"/></g><g transform="translate(-158,-70) scale(1,1)"><path fill="#ffffff" stroke="none" d="M 376 153 C 376 143.6111584 416.294368 136 466 136 C 515.705632 136 556 143.6111584 556 153 C 556 162.3888416 515.705632 170 466 170 C 416.294368 170 376 162.3888416 376 153 Z"/></g><g transform="translate(-158,-70) scale(1,1)"><path fill="none" stroke="#000000" d="M 376 153 C 376 143.6111584 416.294368 136 466 136 C 515.705632 136 556 143.6111584 556 153 C 556 162.3888416 515.705632 170 466 170 C 416.294368 170 376 162.3888416 376 153 Z" stroke-miterlimit="10"/></g><g transform="translate(-158,-70) scale(1,1)"><g><path fill="none" stroke="none"/><text fill="#000000" stroke="none" font-family="Arial" font-size="13px" font-style="normal" font-weight="bold" text-decoration="none" x="406.747802734375" y="158.5">Acesso ao Sistema</text></g></g><g transform="translate(-158,-70) scale(1,1)"><path fill="none" stroke="#000000" d="M 226 158 L 375 155" stroke-miterlimit="10"/></g><g transform="translate(-158,-70) scale(1,1)"><path fill="#C0C0C0" stroke="none" d="M 639 160 C 639 150.6111584 674.817216 143 719 143 C 763.182784 143 799 150.6111584 799 160 C 799 169.3888416 763.182784 177 719 177 C 674.817216 177 639 169.3888416 639 160 Z" opacity="0.2"/></g><g transform="translate(-158,-70) scale(1,1)"><path fill="#ffffff" stroke="none" d="M 632 153 C 632 143.6111584 667.817216 136 712 136 C 756.182784 136 792 143.6111584 792 153 C 792 162.3888416 756.182784 170 712 170 C 667.817216 170 632 162.3888416 632 153 Z"/></g><g transform="translate(-158,-70) scale(1,1)"><path fill="none" stroke="#000000" d="M 632 153 C 632 143.6111584 667.817216 136 712 136 C 756.182784 136 792 143.6111584 792 153 C 792 162.3888416 756.182784 170 712 170 C 667.817216 170 632 162.3888416 632 153 Z" stroke-miterlimit="10"/></g><g transform="translate(-158,-70) scale(1,1)"><g><path fill="none" stroke="none"/><text fill="#000000" stroke="none" font-family="Arial" font-size="13px" font-style="normal" font-weight="bold" text-decoration="none" x="659.9873046875" y="158.5">Guia de Iniciante</text></g></g><g transform="translate(-158,-70) scale(1,1)"><path fill="none" stroke="#000000" d="M 631 153 L 557 153" stroke-miterlimit="10" stroke-dasharray="3"/></g><g transform="translate(-158,-70) scale(1,1)"><path fill="none" stroke="#000000" d="M 567.1626748576241 148.790482243984 L 557 153 L 567.1626748576241 157.209517756016" stroke-miterlimit="10"/></g><g transform="translate(-158,-70) scale(1,1)"><g><path fill="none" stroke="none"/><text fill="#000000" stroke="none" font-family="Arial" font-size="13px" font-style="normal" font-weight="normal" text-decoration="none" x="566.5" y="188">«extend»</text></g></g><g transform="translate(-158,-70) scale(1,1)"><path fill="none" stroke="#000000" d="M 567 266 L 863 241" stroke-miterlimit="10"/></g><g transform="translate(-158,-70) scale(1,1)"><path fill="none" stroke="#000000" d="M 569 222 L 863 238" stroke-miterlimit="10"/></g><g transform="translate(-158,-70) scale(1,1)"><path fill="none" stroke="#000000" d="M 561 313 L 863 245" stroke-miterlimit="10"/></g><g transform="translate(-158,-70) scale(1,1)"><path fill="none" stroke="#000000" d="M 518 367 L 863 248" stroke-miterlimit="10"/></g></g></svg>