<svg version="1.1" xmlns="http://www.w3.org/2000/svg" xmlns:xlink="http://www.w3.org/1999/xlink" width="1200.54248046875" height="371"><defs/><g><text fill="#eeeeee" stroke="none" font-family="Arial" font-size="24px" font-style="normal" font-weight="normal" text-decoration="none" x="0" y="0">UNREGISTERED</text><text fill="#eeeeee" stroke="none" font-family="Arial" font-size="24px" font-style="normal" font-weight="normal" text-decoration="none" x="0" y="30">UNREGISTERED</text><text fill="#eeeeee" stroke="none" font-family="Arial" font-size="24px" font-style="normal" font-weight="normal" text-decoration="none" x="0" y="60">UNREGISTERED</text><text fill="#eeeeee" stroke="none" font-family="Arial" font-size="24px" font-style="normal" font-weight="normal" text-decoration="none" x="0" y="90">UNREGISTERED</text><text fill="#eeeeee" stroke="none" font-family="Arial" font-size="24px" font-style="normal" font-weight="normal" text-decoration="none" x="0" y="120">UNREGISTERED</text><text fill="#eeeeee" stroke="none" font-family="Arial" font-size="24px" font-style="normal" font-weight="normal" text-decoration="none" x="0" y="150">UNREGISTERED</text><text fill="#eeeeee" stroke="none" font-family="Arial" font-size="24px" font-style="normal" font-weight="normal" text-decoration="none" x="0" y="180">UNREGISTERED</text><text fill="#eeeeee" stroke="none" font-family="Arial" font-size="24px" font-style="normal" font-weight="normal" text-decoration="none" x="0" y="210">UNREGISTERED</text><text fill="#eeeeee" stroke="none" font-family="Arial" font-size="24px" font-style="normal" font-weight="normal" text-decoration="none" x="0" y="240">UNREGISTERED</text><text fill="#eeeeee" stroke="none" font-family="Arial" font-size="24px" font-style="normal" font-weight="normal" text-decoration="none" x="0" y="270">UNREGISTERED</text><text fill="#eeeeee" stroke="none" font-family="Arial" font-size="24px" font-style="normal" font-weight="normal" text-decoration="none" x="0" y="300">UNREGISTERED</text><text fill="#eeeeee" stroke="none" font-family="Arial" font-size="24px" font-style="normal" font-weight="normal" text-decoration="none" x="0" y="330">UNREGISTERED</text><text fill="#eeeeee" stroke="none" font-family="Arial" font-size="24px" font-style="normal" font-weight="normal" text-decoration="none" x="0" y="360">UNREGISTERED</text><text fill="#eeeeee" stroke="none" font-family="Arial" font-size="24px" font-style="normal" font-weight="normal" text-decoration="none" x="200" y="0">UNREGISTERED</text><text fill="#eeeeee" stroke="none" font-family="Arial" font-size="24px" font-style="normal" font-weight="normal" text-decoration="none" x="200" y="30">UNREGISTERED</text><text fill="#eeeeee" stroke="none" font-family="Arial" font-size="24px" font-style="normal" font-weight="normal" text-decoration="none" x="200" y="60">UNREGISTERED</text><text fill="#eeeeee" stroke="none" font-family="Arial" font-size="24px" font-style="normal" font-weight="normal" text-decoration="none" x="200" y="90">UNREGISTERED</text><text fill="#eeeeee" stroke="none" font-family="Arial" font-size="24px" font-style="normal" font-weight="normal" text-decoration="none" x="200" y="120">UNREGISTERED</text><text fill="#eeeeee" stroke="none" font-family="Arial" font-size="24px" font-style="normal" font-weight="normal" text-decoration="none" x="200" y="150">UNREGISTERED</text><text fill="#eeeeee" stroke="none" font-family="Arial" font-size="24px" font-style="normal" font-weight="normal" text-decoration="none" x="200" y="180">UNREGISTERED</text><text fill="#eeeeee" stroke="none" font-family="Arial" font-size="24px" font-style="normal" font-weight="normal" text-decoration="none" x="200" y="210">UNREGISTERED</text><text fill="#eeeeee" stroke="none" font-family="Arial" font-size="24px" font-style="normal" font-weight="normal" text-decoration="none" x="200" y="240">UNREGISTERED</text><text fill="#eeeeee" stroke="none" font-family="Arial" font-size="24px" font-style="normal" font-weight="normal" text-decoration="none" x="200" y="270">UNREGISTERED</text><text fill="#eeeeee" stroke="none" font-family="Arial" font-size="24px" font-style="normal" font-weight="normal" text-decoration="none" x="200" y="300">UNREGISTERED</text><text fill="#eeeeee" stroke="none" font-family="Arial" font-size="24px" font-style="normal" font-weight="normal" text-decoration="none" x="200" y="330">UNREGISTERED</text><text fill="#eeeeee" stroke="none" font-family="Arial" font-size="24px" font-style="normal" font-weight="normal" text-decoration="none" x="200" y="360">UNREGISTERED</text><text fill="#eeeeee" stroke="none" font-family="Arial" font-size="24px" font-style="normal" font-weight="normal" text-decoration="none" x="400" y="0">UNREGISTERED</text><text fill="#eeeeee" stroke="none" font-family="Arial" font-size="24px" font-style="normal" font-weight="normal" text-decoration="none" x="400" y="30">UNREGISTERED</text><text fill="#eeeeee" stroke="none" font-family="Arial" font-size="24px" font-style="normal" font-weight="normal" text-decoration="none" x="400" y="60">UNREGISTERED</text><text fill="#eeeeee" stroke="none" font-family="Arial" font-size="24px" font-style="normal" font-weight="normal" text-decoration="none" x="400" y="90">UNREGISTERED</text><text fill="#eeeeee" stroke="none" font-family="Arial" font-size="24px" font-style="normal" font-weight="normal" text-decoration="none" x="400" y="120">UNREGISTERED</text><text fill="#eeeeee" stroke="none" font-family="Arial" font-size="24px" font-style="normal" font-weight="normal" text-decoration="none" x="400" y="150">UNREGISTERED</text><text fill="#eeeeee" stroke="none" font-family="Arial" font-size="24px" font-style="normal" font-weight="normal" text-decoration="none" x="400" y="180">UNREGISTERED</text><text fill="#eeeeee" stroke="none" font-family="Arial" font-size="24px" font-style="normal" font-weight="normal" text-decoration="none" x="400" y="210">UNREGISTERED</text><text fill="#eeeeee" stroke="none" font-family="Arial" font-size="24px" font-style="normal" font-weight="normal" text-decoration="none" x="400" y="240">UNREGISTERED</text><text fill="#eeeeee" stroke="none" font-family="Arial" font-size="24px" font-style="normal" font-weight="normal" text-decoration="none" x="400" y="270">UNREGISTERED</text><text fill="#eeeeee" stroke="none" font-family="Arial" font-size="24px" font-style="normal" font-weight="normal" text-decoration="none" x="400" y="300">UNREGISTERED</text><text fill="#eeeeee" stroke="none" font-family="Arial" font-size="24px" font-style="normal" font-weight="normal" text-decoration="none" x="400" y="330">UNREGISTERED</text><text fill="#eeeeee" stroke="none" font-family="Arial" font-size="24px" font-style="normal" font-weight="normal" text-decoration="none" x="400" y="360">UNREGISTERED</text><text fill="#eeeeee" stroke="none" font-family="Arial" font-size="24px" font-style="normal" font-weight="normal" text-decoration="none" x="600" y="0">UNREGISTERED</text><text fill="#eeeeee" stroke="none" font-family="Arial" font-size="24px" font-style="normal" font-weight="normal" text-decoration="none" x="600" y="30">UNREGISTERED</text><text fill="#eeeeee" stroke="none" font-family="Arial" font-size="24px" font-style="normal" font-weight="normal" text-decoration="none" x="600" y="60">UNREGISTERED</text><text fill="#eeeeee" stroke="none" font-family="Arial" font-size="24px" font-style="normal" font-weight="normal" text-decoration="none" x="600" y="90">UNREGISTERED</text><text fill="#eeeeee" stroke="none" font-family="Arial" font-size="24px" font-style="normal" font-weight="normal" text-decoration="none" x="600" y="120">UNREGISTERED</text><text fill="#eeeeee" stroke="none" font-family="Arial" font-size="24px" font-style="normal" font-weight="normal" text-decoration="none" x="600" y="150">UNREGISTERED</text><text fill="#eeeeee" stroke="none" font-family="Arial" font-size="24px" font-style="normal" font-weight="normal" text-decoration="none" x="600" y="180">UNREGISTERED</text><text fill="#eeeeee" stroke="none" font-family="Arial" font-size="24px" font-style="normal" font-weight="normal" text-decoration="none" x="600" y="210">UNREGISTERED</text><text fill="#eeeeee" stroke="none" font-family="Arial" font-size="24px" font-style="normal" font-weight="normal" text-decoration="none" x="600" y="240">UNREGISTERED</text><text fill="#eeeeee" stroke="none" font-family="Arial" font-size="24px" font-style="normal" font-weight="normal" text-decoration="none" x="600" y="270">UNREGISTERED</text><text fill="#eeeeee" stroke="none" font-family="Arial" font-size="24px" font-style="normal" font-weight="normal" text-decoration="none" x="600" y="300">UNREGISTERED</text><text fill="#eeeeee" stroke="none" font-family="Arial" font-size="24px" font-style="normal" font-weight="normal" text-decoration="none" x="600" y="330">UNREGISTERED</text><text fill="#eeeeee" stroke="none" font-family="Arial" font-size="24px" font-style="normal" font-weight="normal" text-decoration="none" x="600" y="360">UNREGISTERED</text><text fill="#eeeeee" stroke="none" font-family="Arial" font-size="24px" font-style="normal" font-weight="normal" text-decoration="none" x="800" y="0">UNREGISTERED</text><text fill="#eeeeee" stroke="none" font-family="Arial" font-size="24px" font-style="normal" font-weight="normal" text-decoration="none" x="800" y="30">UNREGISTERED</text><text fill="#eeeeee" stroke="none" font-family="Arial" font-size="24px" font-style="normal" font-weight="normal" text-decoration="none" x="800" y="60">UNREGISTERED</text><text fill="#eeeeee" stroke="none" font-family="Arial" font-size="24px" font-style="normal" font-weight="normal" text-decoration="none" x="800" y="90">UNREGISTERED</text><text fill="#eeeeee" stroke="none" font-family="Arial" font-size="24px" font-style="normal" font-weight="normal" text-decoration="none" x="800" y="120">UNREGISTERED</text><text fill="#eeeeee" stroke="none" font-family="Arial" font-size="24px" font-style="normal" font-weight="normal" text-decoration="none" x="800" y="150">UNREGISTERED</text><text fill="#eeeeee" stroke="none" font-family="Arial" font-size="24px" font-style="normal" font-weight="normal" text-decoration="none" x="800" y="180">UNREGISTERED</text><text fill="#eeeeee" stroke="none" font-family="Arial" font-size="24px" font-style="normal" font-weight="normal" text-decoration="none" x="800" y="210">UNREGISTERED</text><text fill="#eeeeee" stroke="none" font-family="Arial" font-size="24px" font-style="normal" font-weight="normal" text-decoration="none" x="800" y="240">UNREGISTERED</text><text fill="#eeeeee" stroke="none" font-family="Arial" font-size="24px" font-style="normal" font-weight="normal" text-decoration="none" x="800" y="270">UNREGISTERED</text><text fill="#eeeeee" stroke="none" font-family="Arial" font-size="24px" font-style="normal" font-weight="normal" text-decoration="none" x="800" y="300">UNREGISTERED</text><text fill="#eeeeee" stroke="none" font-family="Arial" font-size="24px" font-style="normal" font-weight="normal" text-decoration="none" x="800" y="330">UNREGISTERED</text><text fill="#eeeeee" stroke="none" font-family="Arial" font-size="24px" font-style="normal" font-weight="normal" text-decoration="none" x="800" y="360">UNREGISTERED</text><text fill="#eeeeee" stroke="none" font-family="Arial" font-size="24px" font-style="normal" font-weight="normal" text-decoration="none" x="1000" y="0">UNREGISTERED</text><text fill="#eeeeee" stroke="none" font-family="Arial" font-size="24px" font-style="normal" font-weight="normal" text-decoration="none" x="1000" y="30">UNREGISTERED</text><text fill="#eeeeee" stroke="none" font-family="Arial" font-size="24px" font-style="normal" font-weight="normal" text-decoration="none" x="1000" y="60">UNREGISTERED</text><text fill="#eeeeee" stroke="none" font-family="Arial" font-size="24px" font-style="normal" font-weight="normal" text-decoration="none" x="1000" y="90">UNREGISTERED</text><text fill="#eeeeee" stroke="none" font-family="Arial" font-size="24px" font-style="normal" font-weight="normal" text-decoration="none" x="1000" y="120">UNREGISTERED</text><text fill="#eeeeee" stroke="none" font-family="Arial" font-size="24px" font-style="normal" font-weight="normal" text-decoration="none" x="1000" y="150">UNREGISTERED</text><text fill="#eeeeee" stroke="none" font-family="Arial" font-size="24px" font-style="normal" font-weight="normal" text-decoration="none" x="1000" y="180">UNREGISTERED</text><text fill="#eeeeee" stroke="none" font-family="Arial" font-size="24px" font-style="normal" font-weight="normal" text-decoration="none" x="1000" y="210">UNREGISTERED</text><text fill="#eeeeee" stroke="none" font-family="Arial" font-size="24px" font-style="normal" font-weight="normal" text-decoration="none" x="1000" y="240">UNREGISTERED</text><text fill="#eeeeee" stroke="none" font-family="Arial" font-size="24px" font-style="normal" font-weight="normal" text-decoration="none" x="1000" y="270">UNREGISTERED</text><text fill="#eeeeee" stroke="none" font-family="Arial" font-size="24px" font-style="normal" font-weight="normal" text-decoration="none" x="1000" y="300">UNREGISTERED</text><text fill="#eeeeee" stroke="none" font-family="Arial" font-size="24px" font-style="normal" font-weight="normal" text-decoration="none" x="1000" y="330">UNREGISTERED</text><text fill="#eeeeee" stroke="none" font-family="Arial" font-size="24px" font-style="normal" font-weight="normal" text-decoration="none" x="1000" y="360">UNREGISTERED</text><text fill="#eeeeee" stroke="none" font-family="Arial" font-size="24px" font-style="normal" font-weight="normal" text-decoration="none" x="1200" y="0">UNREGISTERED</text><text fill="#eeeeee" stroke="none" font-family="Arial" font-size="24px" font-style="normal" font-weight="normal" text-decoration="none" x="1200" y="30">UNREGISTERED</text><text fill="#eeeeee" stroke="none" font-family="Arial" font-size="24px" font-style="normal" font-weight="normal" text-decoration="none" x="1200" y="60">UNREGISTERED</text><text fill="#eeeeee" stroke="none" font-family="Arial" font-size="24px" font-style="normal" font-weight="normal" text-decoration="none" x="1200" y="90">UNREGISTERED</text><text fill="#eeeeee" stroke="none" font-family="Arial" font-size="24px" font-style="normal" font-weight="normal" text-decoration="none" x="1200" y="120">UNREGISTERED</text><text fill="#eeeeee" stroke="none" font-family="Arial" font-size="24px" font-style="normal" font-weight="normal" text-decoration="none" x="1200" y="150">UNREGISTERED</text><text fill="#eeeeee" stroke="none" font-family="Arial" font-size="24px" font-style="normal" font-weight="normal" text-decoration="none" x="1200" y="180">UNREGISTERED</text><text fill="#eeeeee" stroke="none" font-family="Arial" font-size="24px" font-style="normal" font-weight="normal" text-decoration="none" x="1200" y="210">UNREGISTERED</text><text fill="#eeeeee" stroke="none" font-family="Arial" font-size="24px" font-style="normal" font-weight="normal" text-decoration="none" x="1200" y="240">UNREGISTERED</text><text fill="#eeeeee" stroke="none" font-family="Arial" font-size="24px" font-style="normal" font-weight="normal" text-decoration="none" x="1200" y="270">UNREGISTERED</text><text fill="#eeeeee" stroke="none" font-family="Arial" font-size="24px" font-style="normal" font-weight="normal" text-decoration="none" x="1200" y="300">UNREGISTERED</text><text fill="#eeeeee" stroke="none" font-family="Arial" font-size="24px" font-style="normal" font-weight="normal" text-decoration="none" x="1200" y="330">UNREGISTERED</text><text fill="#eeeeee" stroke="none" font-family="Arial" font-size="24px" font-style="normal" font-weight="normal" text-decoration="none" x="1200" y="360">UNREGISTERED</text><g transform="translate(-126,-94) scale(1,1)"><path fill="#C0C0C0" stroke="none" d="M 143 272.5 C 143 267.2532944 147.2532944 263 152.5 263 C 157.7467056 263 162 267.2532944 162 272.5 C 162 277.7467056 157.7467056 282 152.5 282 C 147.2532944 282 143 277.7467056 143 272.5 Z" opacity="0.2"/></g><g transform="translate(-126,-94) scale(1,1)"><path fill="#000000" stroke="none" d="M 136 265.5 C 136 260.2532944 140.2532944 256 145.5 256 C 150.7467056 256 155 260.2532944 155 265.5 C 155 270.7467056 150.7467056 275 145.5 275 C 140.2532944 275 136 270.7467056 136 265.5 Z"/></g><g transform="translate(-126,-94) scale(1,1)"><path fill="#C0C0C0" stroke="none" d="M 457 255 L 585.42626953125 255 Q 595.42626953125 255 595.42626953125 265 L 595.42626953125 284 Q 595.42626953125 294 585.42626953125 294 L 457 294 Q 447 294 447 284 L 447 265 Q 447 255 457 255 Z" opacity="0.2"/></g><g transform="translate(-126,-94) scale(1,1)"><path fill="#ffffff" stroke="none" d="M 450 248 L 578.42626953125 248 Q 588.42626953125 248 588.42626953125 258 L 588.42626953125 277 Q 588.42626953125 287 578.42626953125 287 L 450 287 Q 440 287 440 277 L 440 258 Q 440 248 450 248 Z"/></g><g transform="translate(-126,-94) scale(1,1)"><path fill="none" stroke="#000000" d="M 450 248 L 578.42626953125 248 Q 588.42626953125 248 588.42626953125 258 L 588.42626953125 277 Q 588.42626953125 287 578.42626953125 287 L 450 287 Q 440 287 440 277 L 440 258 Q 440 248 450 248 Z" stroke-miterlimit="10"/></g><g transform="translate(-126,-94) scale(1,1)"><g><path fill="none" stroke="none"/><text fill="#000000" stroke="none" font-family="Arial" font-size="13px" font-style="normal" font-weight="bold" text-decoration="none" x="444.5" y="266">Baixando Informações</text></g></g><g transform="translate(-126,-94) scale(1,1)"><path fill="none" stroke="#000000" d="M 156 265 L 439 267" stroke-miterlimit="10"/></g><g transform="translate(-126,-94) scale(1,1)"><path fill="none" stroke="#000000" d="M 428.8078304181908 271.13759340869103 L 439 267 L 428.86732741662127 262.7187681307776" stroke-miterlimit="10"/></g><g transform="translate(-126,-94) scale(1,1)"><g><path fill="none" stroke="none"/><text fill="#000000" stroke="none" font-family="Arial" font-size="13px" font-style="normal" font-weight="normal" text-decoration="none" x="166.5791015625" y="256"> [Recebe Informações para Criar os Gráficos]</text></g></g><g transform="translate(-126,-94) scale(1,1)"><path fill="#C0C0C0" stroke="none" d="M 913 111 L 1012.5380859375 111 Q 1022.5380859375 111 1022.5380859375 121 L 1022.5380859375 148 Q 1022.5380859375 158 1012.5380859375 158 L 913 158 Q 903 158 903 148 L 903 121 Q 903 111 913 111 Z" opacity="0.2"/></g><g transform="translate(-126,-94) scale(1,1)"><path fill="#ffffff" stroke="none" d="M 906 104 L 1005.5380859375 104 Q 1015.5380859375 104 1015.5380859375 114 L 1015.5380859375 141 Q 1015.5380859375 151 1005.5380859375 151 L 906 151 Q 896 151 896 141 L 896 114 Q 896 104 906 104 Z"/></g><g transform="translate(-126,-94) scale(1,1)"><path fill="none" stroke="#000000" d="M 906 104 L 1005.5380859375 104 Q 1015.5380859375 104 1015.5380859375 114 L 1015.5380859375 141 Q 1015.5380859375 151 1005.5380859375 151 L 906 151 Q 896 151 896 141 L 896 114 Q 896 104 906 104 Z" stroke-miterlimit="10"/></g><g transform="translate(-126,-94) scale(1,1)"><path fill="none" stroke="#000000" d="M 896 129 L 1015.5380859375 129" stroke-miterlimit="10"/></g><g transform="translate(-126,-94) scale(1,1)"><g><path fill="none" stroke="none"/><text fill="#000000" stroke="none" font-family="Arial" font-size="13px" font-style="normal" font-weight="bold" text-decoration="none" x="927.59814453125" y="122">Histórico</text></g></g><g transform="translate(-126,-94) scale(1,1)"><g><path fill="none" stroke="none"/><text fill="#000000" stroke="none" font-family="Arial" font-size="13px" font-style="normal" font-weight="normal" text-decoration="none" x="901" y="145">do/GraficoHistorico</text></g></g><g transform="translate(-126,-94) scale(1,1)"><path fill="#C0C0C0" stroke="none" d="M 913 255 L 1008.9453125 255 Q 1018.9453125 255 1018.9453125 265 L 1018.9453125 292 Q 1018.9453125 302 1008.9453125 302 L 913 302 Q 903 302 903 292 L 903 265 Q 903 255 913 255 Z" opacity="0.2"/></g><g transform="translate(-126,-94) scale(1,1)"><path fill="#ffffff" stroke="none" d="M 906 248 L 1001.9453125 248 Q 1011.9453125 248 1011.9453125 258 L 1011.9453125 285 Q 1011.9453125 295 1001.9453125 295 L 906 295 Q 896 295 896 285 L 896 258 Q 896 248 906 248 Z"/></g><g transform="translate(-126,-94) scale(1,1)"><path fill="none" stroke="#000000" d="M 906 248 L 1001.9453125 248 Q 1011.9453125 248 1011.9453125 258 L 1011.9453125 285 Q 1011.9453125 295 1001.9453125 295 L 906 295 Q 896 295 896 285 L 896 258 Q 896 248 906 248 Z" stroke-miterlimit="10"/></g><g transform="translate(-126,-94) scale(1,1)"><path fill="none" stroke="#000000" d="M 896 273 L 1011.9453125 273" stroke-miterlimit="10"/></g><g transform="translate(-126,-94) scale(1,1)"><g><path fill="none" stroke="none"/><text fill="#000000" stroke="none" font-family="Arial" font-size="13px" font-style="normal" font-weight="bold" text-decoration="none" x="928.686767578125" y="266">Intraday</text></g></g><g transform="translate(-126,-94) scale(1,1)"><g><path fill="none" stroke="none"/><text fill="#000000" stroke="none" font-family="Arial" font-size="13px" font-style="normal" font-weight="normal" text-decoration="none" x="901" y="289">do/GraficoIntraday</text></g></g><g transform="translate(-126,-94) scale(1,1)"><path fill="#C0C0C0" stroke="none" d="M 897 415 L 1009.5634765625 415 Q 1019.5634765625 415 1019.5634765625 425 L 1019.5634765625 452 Q 1019.5634765625 462 1009.5634765625 462 L 897 462 Q 887 462 887 452 L 887 425 Q 887 415 897 415 Z" opacity="0.2"/></g><g transform="translate(-126,-94) scale(1,1)"><path fill="#ffffff" stroke="none" d="M 890 408 L 1002.5634765625 408 Q 1012.5634765625 408 1012.5634765625 418 L 1012.5634765625 445 Q 1012.5634765625 455 1002.5634765625 455 L 890 455 Q 880 455 880 445 L 880 418 Q 880 408 890 408 Z"/></g><g transform="translate(-126,-94) scale(1,1)"><path fill="none" stroke="#000000" d="M 890 408 L 1002.5634765625 408 Q 1012.5634765625 408 1012.5634765625 418 L 1012.5634765625 445 Q 1012.5634765625 455 1002.5634765625 455 L 890 455 Q 880 455 880 445 L 880 418 Q 880 408 890 408 Z" stroke-miterlimit="10"/></g><g transform="translate(-126,-94) scale(1,1)"><path fill="none" stroke="#000000" d="M 880 433 L 1012.5634765625 433" stroke-miterlimit="10"/></g><g transform="translate(-126,-94) scale(1,1)"><g><path fill="none" stroke="none"/><text fill="#000000" stroke="none" font-family="Arial" font-size="13px" font-style="normal" font-weight="bold" text-decoration="none" x="902.200439453125" y="426">Altas e Baixas</text></g></g><g transform="translate(-126,-94) scale(1,1)"><g><path fill="none" stroke="none"/><text fill="#000000" stroke="none" font-family="Arial" font-size="13px" font-style="normal" font-weight="normal" text-decoration="none" x="885" y="449">do/GraficoAltaBAixa</text></g></g><g transform="translate(-126,-94) scale(1,1)"><path fill="none" stroke="#000000" d="M 577 247 L 895 146" stroke-miterlimit="10"/></g><g transform="translate(-126,-94) scale(1,1)"><path fill="none" stroke="#000000" d="M 886.5883843534183 153.08835116329467 L 895 146 L 884.0398683605699 145.0643107105644" stroke-miterlimit="10"/></g><g transform="translate(-126,-94) scale(1,1)"><g><path fill="none" stroke="none"/><text fill="#000000" stroke="none" font-family="Arial" font-size="13px" font-style="normal" font-weight="normal" text-decoration="none" x="574.986328125" y="161"> [Monta Grafico do Histórico de Acões]</text></g></g><g transform="translate(-126,-94) scale(1,1)"><path fill="none" stroke="#000000" d="M 589 268 L 895 270" stroke-miterlimit="10"/></g><g transform="translate(-126,-94) scale(1,1)"><path fill="none" stroke="#000000" d="M 884.810029602802 274.1430065537275 L 895 270 L 884.8650548034101 265.7241508606922" stroke-miterlimit="10"/></g><g transform="translate(-126,-94) scale(1,1)"><g><path fill="none" stroke="none"/><text fill="#000000" stroke="none" font-family="Arial" font-size="13px" font-style="normal" font-weight="normal" text-decoration="none" x="659.884033203125" y="259"> [Monta  Grafico de Intraday]</text></g></g><g transform="translate(-126,-94) scale(1,1)"><path fill="none" stroke="#000000" d="M 569 288 L 883 407" stroke-miterlimit="10"/></g><g transform="translate(-126,-94) scale(1,1)"><path fill="none" stroke="#000000" d="M 872.0050968390543 407.33482007321425 L 883 407 L 874.9886758721588 399.4621829606531" stroke-miterlimit="10"/></g><g transform="translate(-126,-94) scale(1,1)"><g><path fill="none" stroke="none"/><text fill="#000000" stroke="none" font-family="Arial" font-size="13px" font-style="normal" font-weight="normal" text-decoration="none" x="579.989501953125" y="395"> [Monta Grafico de Altas e Baixas]</text></g></g><g transform="translate(-126,-94) scale(1,1)"><path fill="#C0C0C0" stroke="none" d="M 1295 283.5 C 1295 276.59644 1300.59644 271 1307.5 271 C 1314.40356 271 1320 276.59644 1320 283.5 C 1320 290.40356 1314.40356 296 1307.5 296 C 1300.59644 296 1295 290.40356 1295 283.5 Z" opacity="0.2"/></g><g transform="translate(-126,-94) scale(1,1)"><path fill="none" stroke="#000000" d="M 1288 276.5 C 1288 269.59644 1293.59644 264 1300.5 264 C 1307.40356 264 1313 269.59644 1313 276.5 C 1313 283.40356 1307.40356 289 1300.5 289 C 1293.59644 289 1288 283.40356 1288 276.5 Z" stroke-miterlimit="10"/></g><g transform="translate(-126,-94) scale(1,1)"><path fill="#000000" stroke="none" d="M 1293 276.5 C 1293 272.357864 1296.357864 269 1300.5 269 C 1304.642136 269 1308 272.357864 1308 276.5 C 1308 280.642136 1304.642136 284 1300.5 284 C 1296.357864 284 1293 280.642136 1293 276.5 Z"/></g><g transform="translate(-126,-94) scale(1,1)"><path fill="none" stroke="#000000" d="M 1013 152 L 1287 270" stroke-miterlimit="10"/></g><g transform="translate(-126,-94) scale(1,1)"><path fill="none" stroke="#000000" d="M 1276.0010707976257 269.84651905278304 L 1287 270 L 1279.3311099937705 262.11405515665035" stroke-miterlimit="10"/></g><g transform="translate(-126,-94) scale(1,1)"><g><path fill="none" stroke="none"/><text fill="#000000" stroke="none" font-family="Arial" font-size="13px" font-style="normal" font-weight="normal" text-decoration="none" x="1096.305908203125" y="179"> [Exibe Grafico do Histórico de Acões]</text></g></g><g transform="translate(-126,-94) scale(1,1)"><path fill="none" stroke="#000000" d="M 1013 272 L 1287 276" stroke-miterlimit="10"/></g><g transform="translate(-126,-94) scale(1,1)"><path fill="none" stroke="#000000" d="M 1276.776961623934 280.0607248566584 L 1287 276 L 1276.8998541572776 271.64258632262937" stroke-miterlimit="10"/></g><g transform="translate(-126,-94) scale(1,1)"><g><path fill="none" stroke="none"/><text fill="#000000" stroke="none" font-family="Arial" font-size="13px" font-style="normal" font-weight="normal" text-decoration="none" x="1058.11181640625" y="263"> [Exibe Grafico de Intraday]</text></g></g><g transform="translate(-126,-94) scale(1,1)"><path fill="none" stroke="#000000" d="M 1001 407 L 1287 282" stroke-miterlimit="10"/></g><g transform="translate(-126,-94) scale(1,1)"><path fill="none" stroke="#000000" d="M 1279.3737358514084 289.92717447366374 L 1287 282 L 1276.0020580794344 282.2127757313875" stroke-miterlimit="10"/></g><g transform="translate(-126,-94) scale(1,1)"><g><path fill="none" stroke="none"/><text fill="#000000" stroke="none" font-family="Arial" font-size="13px" font-style="normal" font-weight="normal" text-decoration="none" x="1080.792236328125" y="402"> [Exibe Grafico de Altas e Baixas]</text></g></g></g></svg>