<svg version="1.1" xmlns="http://www.w3.org/2000/svg" xmlns:xlink="http://www.w3.org/1999/xlink" width="681.5244140625" height="559"><defs/><g><text fill="#eeeeee" stroke="none" font-family="Arial" font-size="24px" font-style="normal" font-weight="normal" text-decoration="none" x="0" y="0">UNREGISTERED</text><text fill="#eeeeee" stroke="none" font-family="Arial" font-size="24px" font-style="normal" font-weight="normal" text-decoration="none" x="0" y="30">UNREGISTERED</text><text fill="#eeeeee" stroke="none" font-family="Arial" font-size="24px" font-style="normal" font-weight="normal" text-decoration="none" x="0" y="60">UNREGISTERED</text><text fill="#eeeeee" stroke="none" font-family="Arial" font-size="24px" font-style="normal" font-weight="normal" text-decoration="none" x="0" y="90">UNREGISTERED</text><text fill="#eeeeee" stroke="none" font-family="Arial" font-size="24px" font-style="normal" font-weight="normal" text-decoration="none" x="0" y="120">UNREGISTERED</text><text fill="#eeeeee" stroke="none" font-family="Arial" font-size="24px" font-style="normal" font-weight="normal" text-decoration="none" x="0" y="150">UNREGISTERED</text><text fill="#eeeeee" stroke="none" font-family="Arial" font-size="24px" font-style="normal" font-weight="normal" text-decoration="none" x="0" y="180">UNREGISTERED</text><text fill="#eeeeee" stroke="none" font-family="Arial" font-size="24px" font-style="normal" font-weight="normal" text-decoration="none" x="0" y="210">UNREGISTERED</text><text fill="#eeeeee" stroke="none" font-family="Arial" font-size="24px" font-style="normal" font-weight="normal" text-decoration="none" x="0" y="240">UNREGISTERED</text><text fill="#eeeeee" stroke="none" font-family="Arial" font-size="24px" font-style="normal" font-weight="normal" text-decoration="none" x="0" y="270">UNREGISTERED</text><text fill="#eeeeee" stroke="none" font-family="Arial" font-size="24px" font-style="normal" font-weight="normal" text-decoration="none" x="0" y="300">UNREGISTERED</text><text fill="#eeeeee" stroke="none" font-family="Arial" font-size="24px" font-style="normal" font-weight="normal" text-decoration="none" x="0" y="330">UNREGISTERED</text><text fill="#eeeeee" stroke="none" font-family="Arial" font-size="24px" font-style="normal" font-weight="normal" text-decoration="none" x="0" y="360">UNREGISTERED</text><text fill="#eeeeee" stroke="none" font-family="Arial" font-size="24px" font-style="normal" font-weight="normal" text-decoration="none" x="0" y="390">UNREGISTERED</text><text fill="#eeeeee" stroke="none" font-family="Arial" font-size="24px" font-style="normal" font-weight="normal" text-decoration="none" x="0" y="420">UNREGISTERED</text><text fill="#eeeeee" stroke="none" font-family="Arial" font-size="24px" font-style="normal" font-weight="normal" text-decoration="none" x="0" y="450">UNREGISTERED</text><text fill="#eeeeee" stroke="none" font-family="Arial" font-size="24px" font-style="normal" font-weight="normal" text-decoration="none" x="0" y="480">UNREGISTERED</text><text fill="#eeeeee" stroke="none" font-family="Arial" font-size="24px" font-style="normal" font-weight="normal" text-decoration="none" x="0" y="510">UNREGISTERED</text><text fill="#eeeeee" stroke="none" font-family="Arial" font-size="24px" font-style="normal" font-weight="normal" text-decoration="none" x="0" y="540">UNREGISTERED</text><text fill="#eeeeee" stroke="none" font-family="Arial" font-size="24px" font-style="normal" font-weight="normal" text-decoration="none" x="200" y="0">UNREGISTERED</text><text fill="#eeeeee" stroke="none" font-family="Arial" font-size="24px" font-style="normal" font-weight="normal" text-decoration="none" x="200" y="30">UNREGISTERED</text><text fill="#eeeeee" stroke="none" font-family="Arial" font-size="24px" font-style="normal" font-weight="normal" text-decoration="none" x="200" y="60">UNREGISTERED</text><text fill="#eeeeee" stroke="none" font-family="Arial" font-size="24px" font-style="normal" font-weight="normal" text-decoration="none" x="200" y="90">UNREGISTERED</text><text fill="#eeeeee" stroke="none" font-family="Arial" font-size="24px" font-style="normal" font-weight="normal" text-decoration="none" x="200" y="120">UNREGISTERED</text><text fill="#eeeeee" stroke="none" font-family="Arial" font-size="24px" font-style="normal" font-weight="normal" text-decoration="none" x="200" y="150">UNREGISTERED</text><text fill="#eeeeee" stroke="none" font-family="Arial" font-size="24px" font-style="normal" font-weight="normal" text-decoration="none" x="200" y="180">UNREGISTERED</text><text fill="#eeeeee" stroke="none" font-family="Arial" font-size="24px" font-style="normal" font-weight="normal" text-decoration="none" x="200" y="210">UNREGISTERED</text><text fill="#eeeeee" stroke="none" font-family="Arial" font-size="24px" font-style="normal" font-weight="normal" text-decoration="none" x="200" y="240">UNREGISTERED</text><text fill="#eeeeee" stroke="none" font-family="Arial" font-size="24px" font-style="normal" font-weight="normal" text-decoration="none" x="200" y="270">UNREGISTERED</text><text fill="#eeeeee" stroke="none" font-family="Arial" font-size="24px" font-style="normal" font-weight="normal" text-decoration="none" x="200" y="300">UNREGISTERED</text><text fill="#eeeeee" stroke="none" font-family="Arial" font-size="24px" font-style="normal" font-weight="normal" text-decoration="none" x="200" y="330">UNREGISTERED</text><text fill="#eeeeee" stroke="none" font-family="Arial" font-size="24px" font-style="normal" font-weight="normal" text-decoration="none" x="200" y="360">UNREGISTERED</text><text fill="#eeeeee" stroke="none" font-family="Arial" font-size="24px" font-style="normal" font-weight="normal" text-decoration="none" x="200" y="390">UNREGISTERED</text><text fill="#eeeeee" stroke="none" font-family="Arial" font-size="24px" font-style="normal" font-weight="normal" text-decoration="none" x="200" y="420">UNREGISTERED</text><text fill="#eeeeee" stroke="none" font-family="Arial" font-size="24px" font-style="normal" font-weight="normal" text-decoration="none" x="200" y="450">UNREGISTERED</text><text fill="#eeeeee" stroke="none" font-family="Arial" font-size="24px" font-style="normal" font-weight="normal" text-decoration="none" x="200" y="480">UNREGISTERED</text><text fill="#eeeeee" stroke="none" font-family="Arial" font-size="24px" font-style="normal" font-weight="normal" text-decoration="none" x="200" y="510">UNREGISTERED</text><text fill="#eeeeee" stroke="none" font-family="Arial" font-size="24px" font-style="normal" font-weight="normal" text-decoration="none" x="200" y="540">UNREGISTERED</text><text fill="#eeeeee" stroke="none" font-family="Arial" font-size="24px" font-style="normal" font-weight="normal" text-decoration="none" x="400" y="0">UNREGISTERED</text><text fill="#eeeeee" stroke="none" font-family="Arial" font-size="24px" font-style="normal" font-weight="normal" text-decoration="none" x="400" y="30">UNREGISTERED</text><text fill="#eeeeee" stroke="none" font-family="Arial" font-size="24px" font-style="normal" font-weight="normal" text-decoration="none" x="400" y="60">UNREGISTERED</text><text fill="#eeeeee" stroke="none" font-family="Arial" font-size="24px" font-style="normal" font-weight="normal" text-decoration="none" x="400" y="90">UNREGISTERED</text><text fill="#eeeeee" stroke="none" font-family="Arial" font-size="24px" font-style="normal" font-weight="normal" text-decoration="none" x="400" y="120">UNREGISTERED</text><text fill="#eeeeee" stroke="none" font-family="Arial" font-size="24px" font-style="normal" font-weight="normal" text-decoration="none" x="400" y="150">UNREGISTERED</text><text fill="#eeeeee" stroke="none" font-family="Arial" font-size="24px" font-style="normal" font-weight="normal" text-decoration="none" x="400" y="180">UNREGISTERED</text><text fill="#eeeeee" stroke="none" font-family="Arial" font-size="24px" font-style="normal" font-weight="normal" text-decoration="none" x="400" y="210">UNREGISTERED</text><text fill="#eeeeee" stroke="none" font-family="Arial" font-size="24px" font-style="normal" font-weight="normal" text-decoration="none" x="400" y="240">UNREGISTERED</text><text fill="#eeeeee" stroke="none" font-family="Arial" font-size="24px" font-style="normal" font-weight="normal" text-decoration="none" x="400" y="270">UNREGISTERED</text><text fill="#eeeeee" stroke="none" font-family="Arial" font-size="24px" font-style="normal" font-weight="normal" text-decoration="none" x="400" y="300">UNREGISTERED</text><text fill="#eeeeee" stroke="none" font-family="Arial" font-size="24px" font-style="normal" font-weight="normal" text-decoration="none" x="400" y="330">UNREGISTERED</text><text fill="#eeeeee" stroke="none" font-family="Arial" font-size="24px" font-style="normal" font-weight="normal" text-decoration="none" x="400" y="360">UNREGISTERED</text><text fill="#eeeeee" stroke="none" font-family="Arial" font-size="24px" font-style="normal" font-weight="normal" text-decoration="none" x="400" y="390">UNREGISTERED</text><text fill="#eeeeee" stroke="none" font-family="Arial" font-size="24px" font-style="normal" font-weight="normal" text-decoration="none" x="400" y="420">UNREGISTERED</text><text fill="#eeeeee" stroke="none" font-family="Arial" font-size="24px" font-style="normal" font-weight="normal" text-decoration="none" x="400" y="450">UNREGISTERED</text><text fill="#eeeeee" stroke="none" font-family="Arial" font-size="24px" font-style="normal" font-weight="normal" text-decoration="none" x="400" y="480">UNREGISTERED</text><text fill="#eeeeee" stroke="none" font-family="Arial" font-size="24px" font-style="normal" font-weight="normal" text-decoration="none" x="400" y="510">UNREGISTERED</text><text fill="#eeeeee" stroke="none" font-family="Arial" font-size="24px" font-style="normal" font-weight="normal" text-decoration="none" x="400" y="540">UNREGISTERED</text><text fill="#eeeeee" stroke="none" font-family="Arial" font-size="24px" font-style="normal" font-weight="normal" text-decoration="none" x="600" y="0">UNREGISTERED</text><text fill="#eeeeee" stroke="none" font-family="Arial" font-size="24px" font-style="normal" font-weight="normal" text-decoration="none" x="600" y="30">UNREGISTERED</text><text fill="#eeeeee" stroke="none" font-family="Arial" font-size="24px" font-style="normal" font-weight="normal" text-decoration="none" x="600" y="60">UNREGISTERED</text><text fill="#eeeeee" stroke="none" font-family="Arial" font-size="24px" font-style="normal" font-weight="normal" text-decoration="none" x="600" y="90">UNREGISTERED</text><text fill="#eeeeee" stroke="none" font-family="Arial" font-size="24px" font-style="normal" font-weight="normal" text-decoration="none" x="600" y="120">UNREGISTERED</text><text fill="#eeeeee" stroke="none" font-family="Arial" font-size="24px" font-style="normal" font-weight="normal" text-decoration="none" x="600" y="150">UNREGISTERED</text><text fill="#eeeeee" stroke="none" font-family="Arial" font-size="24px" font-style="normal" font-weight="normal" text-decoration="none" x="600" y="180">UNREGISTERED</text><text fill="#eeeeee" stroke="none" font-family="Arial" font-size="24px" font-style="normal" font-weight="normal" text-decoration="none" x="600" y="210">UNREGISTERED</text><text fill="#eeeeee" stroke="none" font-family="Arial" font-size="24px" font-style="normal" font-weight="normal" text-decoration="none" x="600" y="240">UNREGISTERED</text><text fill="#eeeeee" stroke="none" font-family="Arial" font-size="24px" font-style="normal" font-weight="normal" text-decoration="none" x="600" y="270">UNREGISTERED</text><text fill="#eeeeee" stroke="none" font-family="Arial" font-size="24px" font-style="normal" font-weight="normal" text-decoration="none" x="600" y="300">UNREGISTERED</text><text fill="#eeeeee" stroke="none" font-family="Arial" font-size="24px" font-style="normal" font-weight="normal" text-decoration="none" x="600" y="330">UNREGISTERED</text><text fill="#eeeeee" stroke="none" font-family="Arial" font-size="24px" font-style="normal" font-weight="normal" text-decoration="none" x="600" y="360">UNREGISTERED</text><text fill="#eeeeee" stroke="none" font-family="Arial" font-size="24px" font-style="normal" font-weight="normal" text-decoration="none" x="600" y="390">UNREGISTERED</text><text fill="#eeeeee" stroke="none" font-family="Arial" font-size="24px" font-style="normal" font-weight="normal" text-decoration="none" x="600" y="420">UNREGISTERED</text><text fill="#eeeeee" stroke="none" font-family="Arial" font-size="24px" font-style="normal" font-weight="normal" text-decoration="none" x="600" y="450">UNREGISTERED</text><text fill="#eeeeee" stroke="none" font-family="Arial" font-size="24px" font-style="normal" font-weight="normal" text-decoration="none" x="600" y="480">UNREGISTERED</text><text fill="#eeeeee" stroke="none" font-family="Arial" font-size="24px" font-style="normal" font-weight="normal" text-decoration="none" x="600" y="510">UNREGISTERED</text><text fill="#eeeeee" stroke="none" font-family="Arial" font-size="24px" font-style="normal" font-weight="normal" text-decoration="none" x="600" y="540">UNREGISTERED</text><g transform="translate(-102,-38) scale(1,1)"><rect fill="#C0C0C0" stroke="none" x="159" y="55" width="145.92529296875" height="190" opacity="0.2"/></g><g transform="translate(-102,-38) scale(1,1)"><rect fill="#ffffff" stroke="none" x="152" y="48" width="145.92529296875" height="190"/></g><g transform="translate(-102,-38) scale(1,1)"><path fill="none" stroke="#000000" d="M 152 48 L 297.92529296875 48 L 297.92529296875 238 L 152 238 L 152 48 Z Z" stroke-miterlimit="10"/></g><g transform="translate(-102,-38) scale(1,1)"><path fill="none" stroke="#000000" d="M 152 73 L 297.92529296875 73" stroke-miterlimit="10"/></g><g transform="translate(-102,-38) scale(1,1)"><path fill="none" stroke="#000000" d="M 152 186 L 297.92529296875 186" stroke-miterlimit="10"/></g><g transform="translate(-102,-38) scale(1,1)"><g><path fill="none" stroke="none"/><text fill="#000000" stroke="none" font-family="Arial" font-size="13px" font-style="normal" font-weight="bold" text-decoration="none" x="202.19677734375" y="66">Pessoa</text></g></g><g transform="translate(-102,-38) scale(1,1)"><g><path fill="none" stroke="none"/><text fill="#000000" stroke="none" font-family="Arial" font-size="13px" font-style="normal" font-weight="normal" text-decoration="none" x="157" y="89">+Nome</text></g></g><g transform="translate(-102,-38) scale(1,1)"><g><path fill="none" stroke="none"/><text fill="#000000" stroke="none" font-family="Arial" font-size="13px" font-style="normal" font-weight="normal" text-decoration="none" x="157" y="104">+Cpf</text></g></g><g transform="translate(-102,-38) scale(1,1)"><g><path fill="none" stroke="none"/><text fill="#000000" stroke="none" font-family="Arial" font-size="13px" font-style="normal" font-weight="normal" text-decoration="none" x="157" y="119">+Endereco</text></g></g><g transform="translate(-102,-38) scale(1,1)"><g><path fill="none" stroke="none"/><text fill="#000000" stroke="none" font-family="Arial" font-size="13px" font-style="normal" font-weight="normal" text-decoration="none" x="157" y="134">+CadastroLiberado</text></g></g><g transform="translate(-102,-38) scale(1,1)"><g><path fill="none" stroke="none"/><text fill="#000000" stroke="none" font-family="Arial" font-size="13px" font-style="normal" font-weight="normal" text-decoration="none" x="157" y="149">+Rg</text></g></g><g transform="translate(-102,-38) scale(1,1)"><g><path fill="none" stroke="none"/><text fill="#000000" stroke="none" font-family="Arial" font-size="13px" font-style="normal" font-weight="normal" text-decoration="none" x="157" y="164">+DataNascimento</text></g></g><g transform="translate(-102,-38) scale(1,1)"><g><path fill="none" stroke="none"/><text fill="#000000" stroke="none" font-family="Arial" font-size="13px" font-style="normal" font-weight="normal" text-decoration="none" x="157" y="179">+Email</text></g></g><g transform="translate(-102,-38) scale(1,1)"><g><path fill="none" stroke="none"/><text fill="#000000" stroke="none" font-family="Arial" font-size="13px" font-style="normal" font-weight="normal" text-decoration="none" x="157" y="202">+ConfereDocumentos()</text></g></g><g transform="translate(-102,-38) scale(1,1)"><g><path fill="none" stroke="none"/><text fill="#000000" stroke="none" font-family="Arial" font-size="13px" font-style="normal" font-weight="normal" text-decoration="none" x="157" y="217">+Cadastra()</text></g></g><g transform="translate(-102,-38) scale(1,1)"><g><path fill="none" stroke="none"/><text fill="#000000" stroke="none" font-family="Arial" font-size="13px" font-style="normal" font-weight="normal" text-decoration="none" x="157" y="232">+ReenviaDocumentos()</text></g></g><g transform="translate(-102,-38) scale(1,1)"><rect fill="#C0C0C0" stroke="none" x="383" y="55" width="166.14892578125" height="190" opacity="0.2"/></g><g transform="translate(-102,-38) scale(1,1)"><rect fill="#ffffff" stroke="none" x="376" y="48" width="166.14892578125" height="190"/></g><g transform="translate(-102,-38) scale(1,1)"><path fill="none" stroke="#000000" d="M 376 48 L 542.14892578125 48 L 542.14892578125 238 L 376 238 L 376 48 Z Z" stroke-miterlimit="10"/></g><g transform="translate(-102,-38) scale(1,1)"><path fill="none" stroke="#000000" d="M 376 73 L 542.14892578125 73" stroke-miterlimit="10"/></g><g transform="translate(-102,-38) scale(1,1)"><path fill="none" stroke="#000000" d="M 376 141 L 542.14892578125 141" stroke-miterlimit="10"/></g><g transform="translate(-102,-38) scale(1,1)"><g><path fill="none" stroke="none"/><text fill="#000000" stroke="none" font-family="Arial" font-size="13px" font-style="normal" font-weight="bold" text-decoration="none" x="434.8740234375" y="66">Usuario</text></g></g><g transform="translate(-102,-38) scale(1,1)"><g><path fill="none" stroke="none"/><text fill="#000000" stroke="none" font-family="Arial" font-size="13px" font-style="normal" font-weight="normal" text-decoration="none" x="381" y="89">+Username</text></g></g><g transform="translate(-102,-38) scale(1,1)"><g><path fill="none" stroke="none"/><text fill="#000000" stroke="none" font-family="Arial" font-size="13px" font-style="normal" font-weight="normal" text-decoration="none" x="381" y="104">+Senha</text></g></g><g transform="translate(-102,-38) scale(1,1)"><g><path fill="none" stroke="none"/><text fill="#000000" stroke="none" font-family="Arial" font-size="13px" font-style="normal" font-weight="normal" text-decoration="none" x="381" y="119">+Notificacao</text></g></g><g transform="translate(-102,-38) scale(1,1)"><g><path fill="none" stroke="none"/><text fill="#000000" stroke="none" font-family="Arial" font-size="13px" font-style="normal" font-weight="normal" text-decoration="none" x="381" y="134">+UltimoLogin</text></g></g><g transform="translate(-102,-38) scale(1,1)"><g><path fill="none" stroke="none"/><text fill="#000000" stroke="none" font-family="Arial" font-size="13px" font-style="normal" font-weight="normal" text-decoration="none" x="381" y="157">+ModificarInformacoes()</text></g></g><g transform="translate(-102,-38) scale(1,1)"><g><path fill="none" stroke="none"/><text fill="#000000" stroke="none" font-family="Arial" font-size="13px" font-style="normal" font-weight="normal" text-decoration="none" x="381" y="172">+BloqueiaUsuario()</text></g></g><g transform="translate(-102,-38) scale(1,1)"><g><path fill="none" stroke="none"/><text fill="#000000" stroke="none" font-family="Arial" font-size="13px" font-style="normal" font-weight="normal" text-decoration="none" x="381" y="187">+AtualizaLogin()</text></g></g><g transform="translate(-102,-38) scale(1,1)"><g><path fill="none" stroke="none"/><text fill="#000000" stroke="none" font-family="Arial" font-size="13px" font-style="normal" font-weight="normal" text-decoration="none" x="381" y="202">+RecuperacaoSenha()</text></g></g><g transform="translate(-102,-38) scale(1,1)"><g><path fill="none" stroke="none"/><text fill="#000000" stroke="none" font-family="Arial" font-size="13px" font-style="normal" font-weight="normal" text-decoration="none" x="381" y="217">+Login()</text></g></g><g transform="translate(-102,-38) scale(1,1)"><g><path fill="none" stroke="none"/><text fill="#000000" stroke="none" font-family="Arial" font-size="13px" font-style="normal" font-weight="normal" text-decoration="none" x="381" y="232">+HabilitaDesabilitaAlertas()</text></g></g><g transform="translate(-102,-38) scale(1,1)"><rect fill="#C0C0C0" stroke="none" x="639" y="263" width="136" height="190" opacity="0.2"/></g><g transform="translate(-102,-38) scale(1,1)"><rect fill="#ffffff" stroke="none" x="632" y="256" width="136" height="190"/></g><g transform="translate(-102,-38) scale(1,1)"><path fill="none" stroke="#000000" d="M 632 256 L 768 256 L 768 446 L 632 446 L 632 256 Z Z" stroke-miterlimit="10"/></g><g transform="translate(-102,-38) scale(1,1)"><path fill="none" stroke="#000000" d="M 632 281 L 768 281" stroke-miterlimit="10"/></g><g transform="translate(-102,-38) scale(1,1)"><path fill="none" stroke="#000000" d="M 632 349 L 768 349" stroke-miterlimit="10"/></g><g transform="translate(-102,-38) scale(1,1)"><g><path fill="none" stroke="none"/><text fill="#000000" stroke="none" font-family="Arial" font-size="13px" font-style="normal" font-weight="bold" text-decoration="none" x="654.490478515625" y="274">OrdemCompra</text></g></g><g transform="translate(-102,-38) scale(1,1)"><g><path fill="none" stroke="none"/><text fill="#000000" stroke="none" font-family="Arial" font-size="13px" font-style="normal" font-weight="normal" text-decoration="none" x="637" y="297">+Tipo</text></g></g><g transform="translate(-102,-38) scale(1,1)"><g><path fill="none" stroke="none"/><text fill="#000000" stroke="none" font-family="Arial" font-size="13px" font-style="normal" font-weight="normal" text-decoration="none" x="637" y="312">+Quantidade</text></g></g><g transform="translate(-102,-38) scale(1,1)"><g><path fill="none" stroke="none"/><text fill="#000000" stroke="none" font-family="Arial" font-size="13px" font-style="normal" font-weight="normal" text-decoration="none" x="637" y="327">+ValorGatilho</text></g></g><g transform="translate(-102,-38) scale(1,1)"><g><path fill="none" stroke="none"/><text fill="#000000" stroke="none" font-family="Arial" font-size="13px" font-style="normal" font-weight="normal" text-decoration="none" x="637" y="342">+Aprovado</text></g></g><g transform="translate(-102,-38) scale(1,1)"><g><path fill="none" stroke="none"/><text fill="#000000" stroke="none" font-family="Arial" font-size="13px" font-style="normal" font-weight="normal" text-decoration="none" x="637" y="365">+EnviaOrdem()</text></g></g><g transform="translate(-102,-38) scale(1,1)"><g><path fill="none" stroke="none"/><text fill="#000000" stroke="none" font-family="Arial" font-size="13px" font-style="normal" font-weight="normal" text-decoration="none" x="637" y="380">+NotificaStatus()</text></g></g><g transform="translate(-102,-38) scale(1,1)"><g><path fill="none" stroke="none"/><text fill="#000000" stroke="none" font-family="Arial" font-size="13px" font-style="normal" font-weight="normal" text-decoration="none" x="637" y="395">+AlterarInformacoes()</text></g></g><g transform="translate(-102,-38) scale(1,1)"><g><path fill="none" stroke="none"/><text fill="#000000" stroke="none" font-family="Arial" font-size="13px" font-style="normal" font-weight="normal" text-decoration="none" x="637" y="410">+DeletaOrdem()</text></g></g><g transform="translate(-102,-38) scale(1,1)"><g><path fill="none" stroke="none"/><text fill="#000000" stroke="none" font-family="Arial" font-size="13px" font-style="normal" font-weight="normal" text-decoration="none" x="637" y="425">+SolicitaOrdem()</text></g></g><g transform="translate(-102,-38) scale(1,1)"><g><path fill="none" stroke="none"/><text fill="#000000" stroke="none" font-family="Arial" font-size="13px" font-style="normal" font-weight="normal" text-decoration="none" x="637" y="440">+Detalhes()</text></g></g><g transform="translate(-102,-38) scale(1,1)"><path fill="none" stroke="#000000" d="M 299 143 L 375 143" stroke-miterlimit="10"/></g><g transform="translate(-102,-38) scale(1,1)"><g><path fill="none" stroke="none"/><text fill="#000000" stroke="none" font-family="Arial" font-size="13px" font-style="normal" font-weight="normal" text-decoration="none" x="313.5" y="133">+Possui</text></g></g><g transform="translate(-102,-38) scale(1,1)"><rect fill="#C0C0C0" stroke="none" x="399" y="279" width="135.0771484375" height="145" opacity="0.2"/></g><g transform="translate(-102,-38) scale(1,1)"><rect fill="#ffffff" stroke="none" x="392" y="272" width="135.0771484375" height="145"/></g><g transform="translate(-102,-38) scale(1,1)"><path fill="none" stroke="#000000" d="M 392 272 L 527.0771484375 272 L 527.0771484375 417 L 392 417 L 392 272 Z Z" stroke-miterlimit="10"/></g><g transform="translate(-102,-38) scale(1,1)"><path fill="none" stroke="#000000" d="M 392 297 L 527.0771484375 297" stroke-miterlimit="10"/></g><g transform="translate(-102,-38) scale(1,1)"><path fill="none" stroke="#000000" d="M 392 350 L 527.0771484375 350" stroke-miterlimit="10"/></g><g transform="translate(-102,-38) scale(1,1)"><g><path fill="none" stroke="none"/><text fill="#000000" stroke="none" font-family="Arial" font-size="13px" font-style="normal" font-weight="bold" text-decoration="none" x="443.64404296875" y="290">Acao</text></g></g><g transform="translate(-102,-38) scale(1,1)"><g><path fill="none" stroke="none"/><text fill="#000000" stroke="none" font-family="Arial" font-size="13px" font-style="normal" font-weight="normal" text-decoration="none" x="397" y="313">+Codigo</text></g></g><g transform="translate(-102,-38) scale(1,1)"><g><path fill="none" stroke="none"/><text fill="#000000" stroke="none" font-family="Arial" font-size="13px" font-style="normal" font-weight="normal" text-decoration="none" x="397" y="328">+Maxima</text></g></g><g transform="translate(-102,-38) scale(1,1)"><g><path fill="none" stroke="none"/><text fill="#000000" stroke="none" font-family="Arial" font-size="13px" font-style="normal" font-weight="normal" text-decoration="none" x="397" y="343">+Minima</text></g></g><g transform="translate(-102,-38) scale(1,1)"><g><path fill="none" stroke="none"/><text fill="#000000" stroke="none" font-family="Arial" font-size="13px" font-style="normal" font-weight="normal" text-decoration="none" x="397" y="366">+ConfereOrdem()</text></g></g><g transform="translate(-102,-38) scale(1,1)"><g><path fill="none" stroke="none"/><text fill="#000000" stroke="none" font-family="Arial" font-size="13px" font-style="normal" font-weight="normal" text-decoration="none" x="397" y="381">+SolicitaAltasBaixas()</text></g></g><g transform="translate(-102,-38) scale(1,1)"><g><path fill="none" stroke="none"/><text fill="#000000" stroke="none" font-family="Arial" font-size="13px" font-style="normal" font-weight="normal" text-decoration="none" x="397" y="396">+Visualizar()</text></g></g><g transform="translate(-102,-38) scale(1,1)"><g><path fill="none" stroke="none"/><text fill="#000000" stroke="none" font-family="Arial" font-size="13px" font-style="normal" font-weight="normal" text-decoration="none" x="397" y="411">+MaximoMinimo()</text></g></g><g transform="translate(-102,-38) scale(1,1)"><rect fill="#C0C0C0" stroke="none" x="583" y="479" width="110.50537109375" height="115" opacity="0.2"/></g><g transform="translate(-102,-38) scale(1,1)"><rect fill="#ffffff" stroke="none" x="576" y="472" width="110.50537109375" height="115"/></g><g transform="translate(-102,-38) scale(1,1)"><path fill="none" stroke="#000000" d="M 576 472 L 686.50537109375 472 L 686.50537109375 587 L 576 587 L 576 472 Z Z" stroke-miterlimit="10"/></g><g transform="translate(-102,-38) scale(1,1)"><path fill="none" stroke="#000000" d="M 576 497 L 686.50537109375 497" stroke-miterlimit="10"/></g><g transform="translate(-102,-38) scale(1,1)"><path fill="none" stroke="#000000" d="M 576 550 L 686.50537109375 550" stroke-miterlimit="10"/></g><g transform="translate(-102,-38) scale(1,1)"><g><path fill="none" stroke="none"/><text fill="#000000" stroke="none" font-family="Arial" font-size="13px" font-style="normal" font-weight="bold" text-decoration="none" x="605.608154296875" y="490">Cotacao</text></g></g><g transform="translate(-102,-38) scale(1,1)"><g><path fill="none" stroke="none"/><text fill="#000000" stroke="none" font-family="Arial" font-size="13px" font-style="normal" font-weight="normal" text-decoration="none" x="581" y="513">+DataHora</text></g></g><g transform="translate(-102,-38) scale(1,1)"><g><path fill="none" stroke="none"/><text fill="#000000" stroke="none" font-family="Arial" font-size="13px" font-style="normal" font-weight="normal" text-decoration="none" x="581" y="528">+Valor</text></g></g><g transform="translate(-102,-38) scale(1,1)"><g><path fill="none" stroke="none"/><text fill="#000000" stroke="none" font-family="Arial" font-size="13px" font-style="normal" font-weight="normal" text-decoration="none" x="581" y="543">+Codigo</text></g></g><g transform="translate(-102,-38) scale(1,1)"><g><path fill="none" stroke="none"/><text fill="#000000" stroke="none" font-family="Arial" font-size="13px" font-style="normal" font-weight="normal" text-decoration="none" x="581" y="566">+Historico()</text></g></g><g transform="translate(-102,-38) scale(1,1)"><g><path fill="none" stroke="none"/><text fill="#000000" stroke="none" font-family="Arial" font-size="13px" font-style="normal" font-weight="normal" text-decoration="none" x="581" y="581">+UltimaCotacao()</text></g></g><g transform="translate(-102,-38) scale(1,1)"><path fill="none" stroke="#000000" d="M 577 471 L 528 418" stroke-miterlimit="10"/></g><g transform="translate(-102,-38) scale(1,1)"><g><path fill="none" stroke="none"/><text fill="#000000" stroke="none" font-family="Arial" font-size="13px" font-style="normal" font-weight="normal" text-decoration="none" x="547.5" y="438">+Atualiza</text></g></g><g transform="translate(-102,-38) scale(1,1)"><path fill="none" stroke="#000000" d="M 528 346 L 631 349" stroke-miterlimit="10"/></g><g transform="translate(-102,-38) scale(1,1)"><g><path fill="none" stroke="none"/><text fill="#000000" stroke="none" font-family="Arial" font-size="13px" font-style="normal" font-weight="normal" text-decoration="none" x="552.5" y="337">+Contem</text></g></g><g transform="translate(-102,-38) scale(1,1)"><path fill="none" stroke="#000000" d="M 543 216 L 631 291" stroke-miterlimit="10"/></g><g transform="translate(-102,-38) scale(1,1)"><g><path fill="none" stroke="none"/><text fill="#000000" stroke="none" font-family="Arial" font-size="13px" font-style="normal" font-weight="normal" text-decoration="none" x="570.5" y="246">+Realiza</text></g></g><g transform="translate(-102,-38) scale(1,1)"><rect fill="#C0C0C0" stroke="none" x="119" y="271" width="184.20166015625" height="205" opacity="0.2"/></g><g transform="translate(-102,-38) scale(1,1)"><rect fill="#ffffff" stroke="none" x="112" y="264" width="184.20166015625" height="205"/></g><g transform="translate(-102,-38) scale(1,1)"><path fill="none" stroke="#000000" d="M 112 264 L 296.20166015625 264 L 296.20166015625 469 L 112 469 L 112 264 Z Z" stroke-miterlimit="10"/></g><g transform="translate(-102,-38) scale(1,1)"><path fill="none" stroke="#000000" d="M 112 289 L 296.20166015625 289" stroke-miterlimit="10"/></g><g transform="translate(-102,-38) scale(1,1)"><path fill="none" stroke="#000000" d="M 112 357 L 296.20166015625 357" stroke-miterlimit="10"/></g><g transform="translate(-102,-38) scale(1,1)"><g><path fill="none" stroke="none"/><text fill="#000000" stroke="none" font-family="Arial" font-size="13px" font-style="normal" font-weight="bold" text-decoration="none" x="164.002685546875" y="282">OrdemVenda</text></g></g><g transform="translate(-102,-38) scale(1,1)"><g><path fill="none" stroke="none"/><text fill="#000000" stroke="none" font-family="Arial" font-size="13px" font-style="normal" font-weight="normal" text-decoration="none" x="117" y="305">+Tipo</text></g></g><g transform="translate(-102,-38) scale(1,1)"><g><path fill="none" stroke="none"/><text fill="#000000" stroke="none" font-family="Arial" font-size="13px" font-style="normal" font-weight="normal" text-decoration="none" x="117" y="320">+Quantidade</text></g></g><g transform="translate(-102,-38) scale(1,1)"><g><path fill="none" stroke="none"/><text fill="#000000" stroke="none" font-family="Arial" font-size="13px" font-style="normal" font-weight="normal" text-decoration="none" x="117" y="335">+ValorGatilho</text></g></g><g transform="translate(-102,-38) scale(1,1)"><g><path fill="none" stroke="none"/><text fill="#000000" stroke="none" font-family="Arial" font-size="13px" font-style="normal" font-weight="normal" text-decoration="none" x="117" y="350">+Aprovado</text></g></g><g transform="translate(-102,-38) scale(1,1)"><g><path fill="none" stroke="none"/><text fill="#000000" stroke="none" font-family="Arial" font-size="13px" font-style="normal" font-weight="normal" text-decoration="none" x="117" y="373">+EnviaOrdem()</text></g></g><g transform="translate(-102,-38) scale(1,1)"><g><path fill="none" stroke="none"/><text fill="#000000" stroke="none" font-family="Arial" font-size="13px" font-style="normal" font-weight="normal" text-decoration="none" x="117" y="388">+NotificaStatus()</text></g></g><g transform="translate(-102,-38) scale(1,1)"><g><path fill="none" stroke="none"/><text fill="#000000" stroke="none" font-family="Arial" font-size="13px" font-style="normal" font-weight="normal" text-decoration="none" x="117" y="403">+AlterarInformacoes()</text></g></g><g transform="translate(-102,-38) scale(1,1)"><g><path fill="none" stroke="none"/><text fill="#000000" stroke="none" font-family="Arial" font-size="13px" font-style="normal" font-weight="normal" text-decoration="none" x="117" y="418">+DeletaOrdem()</text></g></g><g transform="translate(-102,-38) scale(1,1)"><g><path fill="none" stroke="none"/><text fill="#000000" stroke="none" font-family="Arial" font-size="13px" font-style="normal" font-weight="normal" text-decoration="none" x="117" y="433">+NotificaMercadoFracionario()</text></g></g><g transform="translate(-102,-38) scale(1,1)"><g><path fill="none" stroke="none"/><text fill="#000000" stroke="none" font-family="Arial" font-size="13px" font-style="normal" font-weight="normal" text-decoration="none" x="117" y="448">+SolicitaOrdem()</text></g></g><g transform="translate(-102,-38) scale(1,1)"><g><path fill="none" stroke="none"/><text fill="#000000" stroke="none" font-family="Arial" font-size="13px" font-style="normal" font-weight="normal" text-decoration="none" x="117" y="463">+Detalhes()</text></g></g><g transform="translate(-102,-38) scale(1,1)"><path fill="none" stroke="#000000" d="M 297 358 L 391 350" stroke-miterlimit="10"/></g><g transform="translate(-102,-38) scale(1,1)"><g><path fill="none" stroke="none"/><text fill="#000000" stroke="none" font-family="Arial" font-size="13px" font-style="normal" font-weight="normal" text-decoration="none" x="315.5" y="344">+Contem</text></g></g><g transform="translate(-102,-38) scale(1,1)"><rect fill="#C0C0C0" stroke="none" x="631" y="63" width="149.5244140625" height="145" opacity="0.2"/></g><g transform="translate(-102,-38) scale(1,1)"><rect fill="#ffffff" stroke="none" x="624" y="56" width="149.5244140625" height="145"/></g><g transform="translate(-102,-38) scale(1,1)"><path fill="none" stroke="#000000" d="M 624 56 L 773.5244140625 56 L 773.5244140625 201 L 624 201 L 624 56 Z Z" stroke-miterlimit="10"/></g><g transform="translate(-102,-38) scale(1,1)"><path fill="none" stroke="#000000" d="M 624 81 L 773.5244140625 81" stroke-miterlimit="10"/></g><g transform="translate(-102,-38) scale(1,1)"><path fill="none" stroke="#000000" d="M 624 104 L 773.5244140625 104" stroke-miterlimit="10"/></g><g transform="translate(-102,-38) scale(1,1)"><g><path fill="none" stroke="none"/><text fill="#000000" stroke="none" font-family="Arial" font-size="13px" font-style="normal" font-weight="bold" text-decoration="none" x="674.193603515625" y="74">Carteira</text></g></g><g transform="translate(-102,-38) scale(1,1)"><g><path fill="none" stroke="none"/><text fill="#000000" stroke="none" font-family="Arial" font-size="13px" font-style="normal" font-weight="normal" text-decoration="none" x="629" y="97">+GrupoAcoes</text></g></g><g transform="translate(-102,-38) scale(1,1)"><g><path fill="none" stroke="none"/><text fill="#000000" stroke="none" font-family="Arial" font-size="13px" font-style="normal" font-weight="normal" text-decoration="none" x="629" y="120">+SolicitaCotacoes()</text></g></g><g transform="translate(-102,-38) scale(1,1)"><g><path fill="none" stroke="none"/><text fill="#000000" stroke="none" font-family="Arial" font-size="13px" font-style="normal" font-weight="normal" text-decoration="none" x="629" y="135">+NegocioRapido()</text></g></g><g transform="translate(-102,-38) scale(1,1)"><g><path fill="none" stroke="none"/><text fill="#000000" stroke="none" font-family="Arial" font-size="13px" font-style="normal" font-weight="normal" text-decoration="none" x="629" y="150">+Recomendacoes()</text></g></g><g transform="translate(-102,-38) scale(1,1)"><g><path fill="none" stroke="none"/><text fill="#000000" stroke="none" font-family="Arial" font-size="13px" font-style="normal" font-weight="normal" text-decoration="none" x="629" y="165">+SimulacaoCompra()</text></g></g><g transform="translate(-102,-38) scale(1,1)"><g><path fill="none" stroke="none"/><text fill="#000000" stroke="none" font-family="Arial" font-size="13px" font-style="normal" font-weight="normal" text-decoration="none" x="629" y="180">+SimulacaoVenda()</text></g></g><g transform="translate(-102,-38) scale(1,1)"><g><path fill="none" stroke="none"/><text fill="#000000" stroke="none" font-family="Arial" font-size="13px" font-style="normal" font-weight="normal" text-decoration="none" x="629" y="195">+CriaGrupo()</text></g></g><g transform="translate(-102,-38) scale(1,1)"><rect fill="#C0C0C0" stroke="none" x="311" y="503" width="135.07080078125" height="87" opacity="0.2"/></g><g transform="translate(-102,-38) scale(1,1)"><rect fill="#ffffff" stroke="none" x="304" y="496" width="135.07080078125" height="87"/></g><g transform="translate(-102,-38) scale(1,1)"><path fill="none" stroke="#000000" d="M 304 496 L 439.07080078125 496 L 439.07080078125 583 L 304 583 L 304 496 Z Z" stroke-miterlimit="10"/></g><g transform="translate(-102,-38) scale(1,1)"><path fill="none" stroke="#000000" d="M 304 521 L 439.07080078125 521" stroke-miterlimit="10"/></g><g transform="translate(-102,-38) scale(1,1)"><path fill="none" stroke="#000000" d="M 304 531 L 439.07080078125 531" stroke-miterlimit="10"/></g><g transform="translate(-102,-38) scale(1,1)"><g><path fill="none" stroke="none"/><text fill="#000000" stroke="none" font-family="Arial" font-size="13px" font-style="normal" font-weight="bold" text-decoration="none" x="345.1640625" y="514">Graficos</text></g></g><g transform="translate(-102,-38) scale(1,1)"><g><path fill="none" stroke="none"/><text fill="#000000" stroke="none" font-family="Arial" font-size="13px" font-style="normal" font-weight="normal" text-decoration="none" x="309" y="547">+GraficoHistorico()</text></g></g><g transform="translate(-102,-38) scale(1,1)"><g><path fill="none" stroke="none"/><text fill="#000000" stroke="none" font-family="Arial" font-size="13px" font-style="normal" font-weight="normal" text-decoration="none" x="309" y="562">+GraficoIntraday()</text></g></g><g transform="translate(-102,-38) scale(1,1)"><g><path fill="none" stroke="none"/><text fill="#000000" stroke="none" font-family="Arial" font-size="13px" font-style="normal" font-weight="normal" text-decoration="none" x="309" y="577">+GraficoAltasBaixas()</text></g></g><g transform="translate(-102,-38) scale(1,1)"><path fill="none" stroke="#000000" d="M 391 495 L 426 418" stroke-miterlimit="10"/></g><g transform="translate(-102,-38) scale(1,1)"><g><path fill="none" stroke="none"/><text fill="#000000" stroke="none" font-family="Arial" font-size="13px" font-style="normal" font-weight="normal" text-decoration="none" x="338.91455078125" y="461">+Compõe</text></g></g><g transform="translate(-102,-38) scale(1,1)"><path fill="none" stroke="#000000" d="M 543 138 L 623 133" stroke-miterlimit="10"/></g><g transform="translate(-102,-38) scale(1,1)"><g><path fill="none" stroke="none"/><text fill="#000000" stroke="none" font-family="Arial" font-size="13px" font-style="normal" font-weight="normal" text-decoration="none" x="566.121337890625" y="125">+Tem</text></g></g><g transform="translate(-102,-38) scale(1,1)"><path fill="none" stroke="#000000" d="M 375 216 L 297 284" stroke-miterlimit="10"/></g><g transform="translate(-102,-38) scale(1,1)"><g><path fill="none" stroke="none"/><text fill="#000000" stroke="none" font-family="Arial" font-size="13px" font-style="normal" font-weight="normal" text-decoration="none" x="321.5" y="270">+Realiza</text></g></g></g></svg>