<svg version="1.1" xmlns="http://www.w3.org/2000/svg" xmlns:xlink="http://www.w3.org/1999/xlink" width="1133" height="283"><defs/><g><text fill="#eeeeee" stroke="none" font-family="Arial" font-size="24px" font-style="normal" font-weight="normal" text-decoration="none" x="0" y="0">UNREGISTERED</text><text fill="#eeeeee" stroke="none" font-family="Arial" font-size="24px" font-style="normal" font-weight="normal" text-decoration="none" x="0" y="30">UNREGISTERED</text><text fill="#eeeeee" stroke="none" font-family="Arial" font-size="24px" font-style="normal" font-weight="normal" text-decoration="none" x="0" y="60">UNREGISTERED</text><text fill="#eeeeee" stroke="none" font-family="Arial" font-size="24px" font-style="normal" font-weight="normal" text-decoration="none" x="0" y="90">UNREGISTERED</text><text fill="#eeeeee" stroke="none" font-family="Arial" font-size="24px" font-style="normal" font-weight="normal" text-decoration="none" x="0" y="120">UNREGISTERED</text><text fill="#eeeeee" stroke="none" font-family="Arial" font-size="24px" font-style="normal" font-weight="normal" text-decoration="none" x="0" y="150">UNREGISTERED</text><text fill="#eeeeee" stroke="none" font-family="Arial" font-size="24px" font-style="normal" font-weight="normal" text-decoration="none" x="0" y="180">UNREGISTERED</text><text fill="#eeeeee" stroke="none" font-family="Arial" font-size="24px" font-style="normal" font-weight="normal" text-decoration="none" x="0" y="210">UNREGISTERED</text><text fill="#eeeeee" stroke="none" font-family="Arial" font-size="24px" font-style="normal" font-weight="normal" text-decoration="none" x="0" y="240">UNREGISTERED</text><text fill="#eeeeee" stroke="none" font-family="Arial" font-size="24px" font-style="normal" font-weight="normal" text-decoration="none" x="0" y="270">UNREGISTERED</text><text fill="#eeeeee" stroke="none" font-family="Arial" font-size="24px" font-style="normal" font-weight="normal" text-decoration="none" x="200" y="0">UNREGISTERED</text><text fill="#eeeeee" stroke="none" font-family="Arial" font-size="24px" font-style="normal" font-weight="normal" text-decoration="none" x="200" y="30">UNREGISTERED</text><text fill="#eeeeee" stroke="none" font-family="Arial" font-size="24px" font-style="normal" font-weight="normal" text-decoration="none" x="200" y="60">UNREGISTERED</text><text fill="#eeeeee" stroke="none" font-family="Arial" font-size="24px" font-style="normal" font-weight="normal" text-decoration="none" x="200" y="90">UNREGISTERED</text><text fill="#eeeeee" stroke="none" font-family="Arial" font-size="24px" font-style="normal" font-weight="normal" text-decoration="none" x="200" y="120">UNREGISTERED</text><text fill="#eeeeee" stroke="none" font-family="Arial" font-size="24px" font-style="normal" font-weight="normal" text-decoration="none" x="200" y="150">UNREGISTERED</text><text fill="#eeeeee" stroke="none" font-family="Arial" font-size="24px" font-style="normal" font-weight="normal" text-decoration="none" x="200" y="180">UNREGISTERED</text><text fill="#eeeeee" stroke="none" font-family="Arial" font-size="24px" font-style="normal" font-weight="normal" text-decoration="none" x="200" y="210">UNREGISTERED</text><text fill="#eeeeee" stroke="none" font-family="Arial" font-size="24px" font-style="normal" font-weight="normal" text-decoration="none" x="200" y="240">UNREGISTERED</text><text fill="#eeeeee" stroke="none" font-family="Arial" font-size="24px" font-style="normal" font-weight="normal" text-decoration="none" x="200" y="270">UNREGISTERED</text><text fill="#eeeeee" stroke="none" font-family="Arial" font-size="24px" font-style="normal" font-weight="normal" text-decoration="none" x="400" y="0">UNREGISTERED</text><text fill="#eeeeee" stroke="none" font-family="Arial" font-size="24px" font-style="normal" font-weight="normal" text-decoration="none" x="400" y="30">UNREGISTERED</text><text fill="#eeeeee" stroke="none" font-family="Arial" font-size="24px" font-style="normal" font-weight="normal" text-decoration="none" x="400" y="60">UNREGISTERED</text><text fill="#eeeeee" stroke="none" font-family="Arial" font-size="24px" font-style="normal" font-weight="normal" text-decoration="none" x="400" y="90">UNREGISTERED</text><text fill="#eeeeee" stroke="none" font-family="Arial" font-size="24px" font-style="normal" font-weight="normal" text-decoration="none" x="400" y="120">UNREGISTERED</text><text fill="#eeeeee" stroke="none" font-family="Arial" font-size="24px" font-style="normal" font-weight="normal" text-decoration="none" x="400" y="150">UNREGISTERED</text><text fill="#eeeeee" stroke="none" font-family="Arial" font-size="24px" font-style="normal" font-weight="normal" text-decoration="none" x="400" y="180">UNREGISTERED</text><text fill="#eeeeee" stroke="none" font-family="Arial" font-size="24px" font-style="normal" font-weight="normal" text-decoration="none" x="400" y="210">UNREGISTERED</text><text fill="#eeeeee" stroke="none" font-family="Arial" font-size="24px" font-style="normal" font-weight="normal" text-decoration="none" x="400" y="240">UNREGISTERED</text><text fill="#eeeeee" stroke="none" font-family="Arial" font-size="24px" font-style="normal" font-weight="normal" text-decoration="none" x="400" y="270">UNREGISTERED</text><text fill="#eeeeee" stroke="none" font-family="Arial" font-size="24px" font-style="normal" font-weight="normal" text-decoration="none" x="600" y="0">UNREGISTERED</text><text fill="#eeeeee" stroke="none" font-family="Arial" font-size="24px" font-style="normal" font-weight="normal" text-decoration="none" x="600" y="30">UNREGISTERED</text><text fill="#eeeeee" stroke="none" font-family="Arial" font-size="24px" font-style="normal" font-weight="normal" text-decoration="none" x="600" y="60">UNREGISTERED</text><text fill="#eeeeee" stroke="none" font-family="Arial" font-size="24px" font-style="normal" font-weight="normal" text-decoration="none" x="600" y="90">UNREGISTERED</text><text fill="#eeeeee" stroke="none" font-family="Arial" font-size="24px" font-style="normal" font-weight="normal" text-decoration="none" x="600" y="120">UNREGISTERED</text><text fill="#eeeeee" stroke="none" font-family="Arial" font-size="24px" font-style="normal" font-weight="normal" text-decoration="none" x="600" y="150">UNREGISTERED</text><text fill="#eeeeee" stroke="none" font-family="Arial" font-size="24px" font-style="normal" font-weight="normal" text-decoration="none" x="600" y="180">UNREGISTERED</text><text fill="#eeeeee" stroke="none" font-family="Arial" font-size="24px" font-style="normal" font-weight="normal" text-decoration="none" x="600" y="210">UNREGISTERED</text><text fill="#eeeeee" stroke="none" font-family="Arial" font-size="24px" font-style="normal" font-weight="normal" text-decoration="none" x="600" y="240">UNREGISTERED</text><text fill="#eeeeee" stroke="none" font-family="Arial" font-size="24px" font-style="normal" font-weight="normal" text-decoration="none" x="600" y="270">UNREGISTERED</text><text fill="#eeeeee" stroke="none" font-family="Arial" font-size="24px" font-style="normal" font-weight="normal" text-decoration="none" x="800" y="0">UNREGISTERED</text><text fill="#eeeeee" stroke="none" font-family="Arial" font-size="24px" font-style="normal" font-weight="normal" text-decoration="none" x="800" y="30">UNREGISTERED</text><text fill="#eeeeee" stroke="none" font-family="Arial" font-size="24px" font-style="normal" font-weight="normal" text-decoration="none" x="800" y="60">UNREGISTERED</text><text fill="#eeeeee" stroke="none" font-family="Arial" font-size="24px" font-style="normal" font-weight="normal" text-decoration="none" x="800" y="90">UNREGISTERED</text><text fill="#eeeeee" stroke="none" font-family="Arial" font-size="24px" font-style="normal" font-weight="normal" text-decoration="none" x="800" y="120">UNREGISTERED</text><text fill="#eeeeee" stroke="none" font-family="Arial" font-size="24px" font-style="normal" font-weight="normal" text-decoration="none" x="800" y="150">UNREGISTERED</text><text fill="#eeeeee" stroke="none" font-family="Arial" font-size="24px" font-style="normal" font-weight="normal" text-decoration="none" x="800" y="180">UNREGISTERED</text><text fill="#eeeeee" stroke="none" font-family="Arial" font-size="24px" font-style="normal" font-weight="normal" text-decoration="none" x="800" y="210">UNREGISTERED</text><text fill="#eeeeee" stroke="none" font-family="Arial" font-size="24px" font-style="normal" font-weight="normal" text-decoration="none" x="800" y="240">UNREGISTERED</text><text fill="#eeeeee" stroke="none" font-family="Arial" font-size="24px" font-style="normal" font-weight="normal" text-decoration="none" x="800" y="270">UNREGISTERED</text><text fill="#eeeeee" stroke="none" font-family="Arial" font-size="24px" font-style="normal" font-weight="normal" text-decoration="none" x="1000" y="0">UNREGISTERED</text><text fill="#eeeeee" stroke="none" font-family="Arial" font-size="24px" font-style="normal" font-weight="normal" text-decoration="none" x="1000" y="30">UNREGISTERED</text><text fill="#eeeeee" stroke="none" font-family="Arial" font-size="24px" font-style="normal" font-weight="normal" text-decoration="none" x="1000" y="60">UNREGISTERED</text><text fill="#eeeeee" stroke="none" font-family="Arial" font-size="24px" font-style="normal" font-weight="normal" text-decoration="none" x="1000" y="90">UNREGISTERED</text><text fill="#eeeeee" stroke="none" font-family="Arial" font-size="24px" font-style="normal" font-weight="normal" text-decoration="none" x="1000" y="120">UNREGISTERED</text><text fill="#eeeeee" stroke="none" font-family="Arial" font-size="24px" font-style="normal" font-weight="normal" text-decoration="none" x="1000" y="150">UNREGISTERED</text><text fill="#eeeeee" stroke="none" font-family="Arial" font-size="24px" font-style="normal" font-weight="normal" text-decoration="none" x="1000" y="180">UNREGISTERED</text><text fill="#eeeeee" stroke="none" font-family="Arial" font-size="24px" font-style="normal" font-weight="normal" text-decoration="none" x="1000" y="210">UNREGISTERED</text><text fill="#eeeeee" stroke="none" font-family="Arial" font-size="24px" font-style="normal" font-weight="normal" text-decoration="none" x="1000" y="240">UNREGISTERED</text><text fill="#eeeeee" stroke="none" font-family="Arial" font-size="24px" font-style="normal" font-weight="normal" text-decoration="none" x="1000" y="270">UNREGISTERED</text><g transform="translate(-70,-150) scale(1,1)"><path fill="#C0C0C0" stroke="none" d="M 87 192.5 C 87 187.2532944 91.2532944 183 96.5 183 C 101.7467056 183 106 187.2532944 106 192.5 C 106 197.7467056 101.7467056 202 96.5 202 C 91.2532944 202 87 197.7467056 87 192.5 Z" opacity="0.2"/></g><g transform="translate(-70,-150) scale(1,1)"><path fill="#000000" stroke="none" d="M 80 185.5 C 80 180.2532944 84.2532944 176 89.5 176 C 94.7467056 176 99 180.2532944 99 185.5 C 99 190.7467056 94.7467056 195 89.5 195 C 84.2532944 195 80 190.7467056 80 185.5 Z"/></g><g transform="translate(-70,-150) scale(1,1)"><path fill="#C0C0C0" stroke="none" d="M 209 167 L 315.01904296875 167 Q 325.01904296875 167 325.01904296875 177 L 325.01904296875 204 Q 325.01904296875 214 315.01904296875 214 L 209 214 Q 199 214 199 204 L 199 177 Q 199 167 209 167 Z" opacity="0.2"/></g><g transform="translate(-70,-150) scale(1,1)"><path fill="#ffffff" stroke="none" d="M 202 160 L 308.01904296875 160 Q 318.01904296875 160 318.01904296875 170 L 318.01904296875 197 Q 318.01904296875 207 308.01904296875 207 L 202 207 Q 192 207 192 197 L 192 170 Q 192 160 202 160 Z"/></g><g transform="translate(-70,-150) scale(1,1)"><path fill="none" stroke="#000000" d="M 202 160 L 308.01904296875 160 Q 318.01904296875 160 318.01904296875 170 L 318.01904296875 197 Q 318.01904296875 207 308.01904296875 207 L 202 207 Q 192 207 192 197 L 192 170 Q 192 160 202 160 Z" stroke-miterlimit="10"/></g><g transform="translate(-70,-150) scale(1,1)"><path fill="none" stroke="#000000" d="M 192 185 L 318.01904296875 185" stroke-miterlimit="10"/></g><g transform="translate(-70,-150) scale(1,1)"><g><path fill="none" stroke="none"/><text fill="#000000" stroke="none" font-family="Arial" font-size="13px" font-style="normal" font-weight="bold" text-decoration="none" x="200.114990234375" y="178">Criação do Grupo</text></g></g><g transform="translate(-70,-150) scale(1,1)"><g><path fill="none" stroke="none"/><text fill="#000000" stroke="none" font-family="Arial" font-size="13px" font-style="normal" font-weight="normal" text-decoration="none" x="197" y="201">do/CriacaoGrupo</text></g></g><g transform="translate(-70,-150) scale(1,1)"><path fill="none" stroke="#000000" d="M 100 185 L 191 184" stroke-miterlimit="10"/></g><g transform="translate(-70,-150) scale(1,1)"><path fill="none" stroke="#000000" d="M 180.88419434488017 188.32093461508566 L 191 184 L 180.7916830567088 179.9024073914903" stroke-miterlimit="10"/></g><g transform="translate(-70,-150) scale(1,1)"><g><path fill="none" stroke="none"/><text fill="#000000" stroke="none" font-family="Arial" font-size="13px" font-style="normal" font-weight="normal" text-decoration="none" x="99.5" y="174"> [Inicia Carteira]</text></g></g><g transform="translate(-70,-150) scale(1,1)"><path fill="#C0C0C0" stroke="none" d="M 465 167 L 568.89892578125 167 Q 578.89892578125 167 578.89892578125 177 L 578.89892578125 204 Q 578.89892578125 214 568.89892578125 214 L 465 214 Q 455 214 455 204 L 455 177 Q 455 167 465 167 Z" opacity="0.2"/></g><g transform="translate(-70,-150) scale(1,1)"><path fill="#ffffff" stroke="none" d="M 458 160 L 561.89892578125 160 Q 571.89892578125 160 571.89892578125 170 L 571.89892578125 197 Q 571.89892578125 207 561.89892578125 207 L 458 207 Q 448 207 448 197 L 448 170 Q 448 160 458 160 Z"/></g><g transform="translate(-70,-150) scale(1,1)"><path fill="none" stroke="#000000" d="M 458 160 L 561.89892578125 160 Q 571.89892578125 160 571.89892578125 170 L 571.89892578125 197 Q 571.89892578125 207 561.89892578125 207 L 458 207 Q 448 207 448 197 L 448 170 Q 448 160 458 160 Z" stroke-miterlimit="10"/></g><g transform="translate(-70,-150) scale(1,1)"><path fill="none" stroke="#000000" d="M 448 185 L 571.89892578125 185" stroke-miterlimit="10"/></g><g transform="translate(-70,-150) scale(1,1)"><g><path fill="none" stroke="none"/><text fill="#000000" stroke="none" font-family="Arial" font-size="13px" font-style="normal" font-weight="bold" text-decoration="none" x="461.186767578125" y="178">SolicitaCotacao</text></g></g><g transform="translate(-70,-150) scale(1,1)"><g><path fill="none" stroke="none"/><text fill="#000000" stroke="none" font-family="Arial" font-size="13px" font-style="normal" font-weight="normal" text-decoration="none" x="453" y="201">do/SolicitaCotacoes</text></g></g><g transform="translate(-70,-150) scale(1,1)"><path fill="none" stroke="#000000" d="M 319 183 L 447 183" stroke-miterlimit="10"/></g><g transform="translate(-70,-150) scale(1,1)"><path fill="none" stroke="#000000" d="M 436.83732514237585 187.209517756016 L 447 183 L 436.83732514237585 178.790482243984" stroke-miterlimit="10"/></g><g transform="translate(-70,-150) scale(1,1)"><g><path fill="none" stroke="none"/><text fill="#000000" stroke="none" font-family="Arial" font-size="13px" font-style="normal" font-weight="normal" text-decoration="none" x="325.5" y="173"> [Solicita a Cotação]</text></g></g><g transform="translate(-70,-150) scale(1,1)"><path fill="#C0C0C0" stroke="none" d="M 817 167 L 912.96435546875 167 Q 922.96435546875 167 922.96435546875 177 L 922.96435546875 204 Q 922.96435546875 214 912.96435546875 214 L 817 214 Q 807 214 807 204 L 807 177 Q 807 167 817 167 Z" opacity="0.2"/></g><g transform="translate(-70,-150) scale(1,1)"><path fill="#ffffff" stroke="none" d="M 810 160 L 905.96435546875 160 Q 915.96435546875 160 915.96435546875 170 L 915.96435546875 197 Q 915.96435546875 207 905.96435546875 207 L 810 207 Q 800 207 800 197 L 800 170 Q 800 160 810 160 Z"/></g><g transform="translate(-70,-150) scale(1,1)"><path fill="none" stroke="#000000" d="M 810 160 L 905.96435546875 160 Q 915.96435546875 160 915.96435546875 170 L 915.96435546875 197 Q 915.96435546875 207 905.96435546875 207 L 810 207 Q 800 207 800 197 L 800 170 Q 800 160 810 160 Z" stroke-miterlimit="10"/></g><g transform="translate(-70,-150) scale(1,1)"><path fill="none" stroke="#000000" d="M 800 185 L 915.96435546875 185" stroke-miterlimit="10"/></g><g transform="translate(-70,-150) scale(1,1)"><g><path fill="none" stroke="none"/><text fill="#000000" stroke="none" font-family="Arial" font-size="13px" font-style="normal" font-weight="bold" text-decoration="none" x="807.048583984375" y="178">Compra e Venda</text></g></g><g transform="translate(-70,-150) scale(1,1)"><g><path fill="none" stroke="none"/><text fill="#000000" stroke="none" font-family="Arial" font-size="13px" font-style="normal" font-weight="normal" text-decoration="none" x="805" y="201">do/NegócioRapido</text></g></g><g transform="translate(-70,-150) scale(1,1)"><path fill="none" stroke="#000000" d="M 573 183 L 799 183" stroke-miterlimit="10"/></g><g transform="translate(-70,-150) scale(1,1)"><path fill="none" stroke="#000000" d="M 788.8373251423759 187.209517756016 L 799 183 L 788.8373251423758 178.790482243984" stroke-miterlimit="10"/></g><g transform="translate(-70,-150) scale(1,1)"><g><path fill="none" stroke="none"/><text fill="#000000" stroke="none" font-family="Arial" font-size="13px" font-style="normal" font-weight="normal" text-decoration="none" x="583.5" y="173"> [Compra e venda rápida de Ações]</text></g></g><g transform="translate(-70,-150) scale(1,1)"><path fill="#C0C0C0" stroke="none" d="M 377 383 L 491.00439453125 383 Q 501.00439453125 383 501.00439453125 393 L 501.00439453125 420 Q 501.00439453125 430 491.00439453125 430 L 377 430 Q 367 430 367 420 L 367 393 Q 367 383 377 383 Z" opacity="0.2"/></g><g transform="translate(-70,-150) scale(1,1)"><path fill="#ffffff" stroke="none" d="M 370 376 L 484.00439453125 376 Q 494.00439453125 376 494.00439453125 386 L 494.00439453125 413 Q 494.00439453125 423 484.00439453125 423 L 370 423 Q 360 423 360 413 L 360 386 Q 360 376 370 376 Z"/></g><g transform="translate(-70,-150) scale(1,1)"><path fill="none" stroke="#000000" d="M 370 376 L 484.00439453125 376 Q 494.00439453125 376 494.00439453125 386 L 494.00439453125 413 Q 494.00439453125 423 484.00439453125 423 L 370 423 Q 360 423 360 413 L 360 386 Q 360 376 370 376 Z" stroke-miterlimit="10"/></g><g transform="translate(-70,-150) scale(1,1)"><path fill="none" stroke="#000000" d="M 360 401 L 494.00439453125 401" stroke-miterlimit="10"/></g><g transform="translate(-70,-150) scale(1,1)"><g><path fill="none" stroke="none"/><text fill="#000000" stroke="none" font-family="Arial" font-size="13px" font-style="normal" font-weight="bold" text-decoration="none" x="376.79541015625" y="394">Simular Compra</text></g></g><g transform="translate(-70,-150) scale(1,1)"><g><path fill="none" stroke="none"/><text fill="#000000" stroke="none" font-family="Arial" font-size="13px" font-style="normal" font-weight="normal" text-decoration="none" x="365" y="417">do/SimulacaoCompra</text></g></g><g transform="translate(-70,-150) scale(1,1)"><path fill="#C0C0C0" stroke="none" d="M 593 383 L 697.6416015625 383 Q 707.6416015625 383 707.6416015625 393 L 707.6416015625 420 Q 707.6416015625 430 697.6416015625 430 L 593 430 Q 583 430 583 420 L 583 393 Q 583 383 593 383 Z" opacity="0.2"/></g><g transform="translate(-70,-150) scale(1,1)"><path fill="#ffffff" stroke="none" d="M 586 376 L 690.6416015625 376 Q 700.6416015625 376 700.6416015625 386 L 700.6416015625 413 Q 700.6416015625 423 690.6416015625 423 L 586 423 Q 576 423 576 413 L 576 386 Q 576 376 586 376 Z"/></g><g transform="translate(-70,-150) scale(1,1)"><path fill="none" stroke="#000000" d="M 586 376 L 690.6416015625 376 Q 700.6416015625 376 700.6416015625 386 L 700.6416015625 413 Q 700.6416015625 423 690.6416015625 423 L 586 423 Q 576 423 576 413 L 576 386 Q 576 376 586 376 Z" stroke-miterlimit="10"/></g><g transform="translate(-70,-150) scale(1,1)"><path fill="none" stroke="#000000" d="M 576 401 L 700.6416015625 401" stroke-miterlimit="10"/></g><g transform="translate(-70,-150) scale(1,1)"><g><path fill="none" stroke="none"/><text fill="#000000" stroke="none" font-family="Arial" font-size="13px" font-style="normal" font-weight="bold" text-decoration="none" x="593.525390625" y="394">Simular Venda</text></g></g><g transform="translate(-70,-150) scale(1,1)"><g><path fill="none" stroke="none"/><text fill="#000000" stroke="none" font-family="Arial" font-size="13px" font-style="normal" font-weight="normal" text-decoration="none" x="581" y="417">do/SimulacaoVenda</text></g></g><g transform="translate(-70,-150) scale(1,1)"><path fill="#C0C0C0" stroke="none" d="M 1175 187.5 C 1175 180.59644 1180.59644 175 1187.5 175 C 1194.40356 175 1200 180.59644 1200 187.5 C 1200 194.40356 1194.40356 200 1187.5 200 C 1180.59644 200 1175 194.40356 1175 187.5 Z" opacity="0.2"/></g><g transform="translate(-70,-150) scale(1,1)"><path fill="none" stroke="#000000" d="M 1168 180.5 C 1168 173.59644 1173.59644 168 1180.5 168 C 1187.40356 168 1193 173.59644 1193 180.5 C 1193 187.40356 1187.40356 193 1180.5 193 C 1173.59644 193 1168 187.40356 1168 180.5 Z" stroke-miterlimit="10"/></g><g transform="translate(-70,-150) scale(1,1)"><path fill="#000000" stroke="none" d="M 1173 180.5 C 1173 176.357864 1176.357864 173 1180.5 173 C 1184.642136 173 1188 176.357864 1188 180.5 C 1188 184.642136 1184.642136 188 1180.5 188 C 1176.357864 188 1173 184.642136 1173 180.5 Z"/></g><g transform="translate(-70,-150) scale(1,1)"><path fill="none" stroke="#000000" d="M 917 182 L 1167 180" stroke-miterlimit="10"/></g><g transform="translate(-70,-150) scale(1,1)"><path fill="none" stroke="#000000" d="M 1156.8713253968256 184.29068185525438 L 1167 180 L 1156.803975267899 175.87191573942783" stroke-miterlimit="10"/></g><g transform="translate(-70,-150) scale(1,1)"><g><path fill="none" stroke="none"/><text fill="#000000" stroke="none" font-family="Arial" font-size="13px" font-style="normal" font-weight="normal" text-decoration="none" x="939.5" y="171"> [Finalização da Compra ou Venda]</text></g></g><g transform="translate(-70,-150) scale(1,1)"><path fill="#C0C0C0" stroke="none" d="M 465 279 L 569.62890625 279 Q 579.62890625 279 579.62890625 289 L 579.62890625 316 Q 579.62890625 326 569.62890625 326 L 465 326 Q 455 326 455 316 L 455 289 Q 455 279 465 279 Z" opacity="0.2"/></g><g transform="translate(-70,-150) scale(1,1)"><path fill="#ffffff" stroke="none" d="M 458 272 L 562.62890625 272 Q 572.62890625 272 572.62890625 282 L 572.62890625 309 Q 572.62890625 319 562.62890625 319 L 458 319 Q 448 319 448 309 L 448 282 Q 448 272 458 272 Z"/></g><g transform="translate(-70,-150) scale(1,1)"><path fill="none" stroke="#000000" d="M 458 272 L 562.62890625 272 Q 572.62890625 272 572.62890625 282 L 572.62890625 309 Q 572.62890625 319 562.62890625 319 L 458 319 Q 448 319 448 309 L 448 282 Q 448 272 458 272 Z" stroke-miterlimit="10"/></g><g transform="translate(-70,-150) scale(1,1)"><path fill="none" stroke="#000000" d="M 448 297 L 572.62890625 297" stroke-miterlimit="10"/></g><g transform="translate(-70,-150) scale(1,1)"><g><path fill="none" stroke="none"/><text fill="#000000" stroke="none" font-family="Arial" font-size="13px" font-style="normal" font-weight="bold" text-decoration="none" x="473.469482421875" y="290">Recomenda</text></g></g><g transform="translate(-70,-150) scale(1,1)"><g><path fill="none" stroke="none"/><text fill="#000000" stroke="none" font-family="Arial" font-size="13px" font-style="normal" font-weight="normal" text-decoration="none" x="453" y="313">do/Recomendacoes</text></g></g><g transform="translate(-70,-150) scale(1,1)"><path fill="none" stroke="#000000" d="M 490 320 L 446 375" stroke-miterlimit="10"/></g><g transform="translate(-70,-150) scale(1,1)"><path fill="none" stroke="#000000" d="M 449.06149153499416 364.4346192883948 L 446 375 L 455.63565377193316 369.693949077946" stroke-miterlimit="10"/></g><g transform="translate(-70,-150) scale(1,1)"><g><path fill="none" stroke="none"/><text fill="#000000" stroke="none" font-family="Arial" font-size="13px" font-style="normal" font-weight="normal" text-decoration="none" x="485.5" y="361"> [Simular]</text></g></g><g transform="translate(-70,-150) scale(1,1)"><path fill="none" stroke="#000000" d="M 541 320 L 608 375" stroke-miterlimit="10"/></g><g transform="translate(-70,-150) scale(1,1)"><path fill="none" stroke="#000000" d="M 597.4740698837885 371.8055054877756 L 608 375 L 602.8158921685882 365.29819470447404" stroke-miterlimit="10"/></g><g transform="translate(-70,-150) scale(1,1)"><path fill="none" stroke="#000000" d="M 509 208 L 510 271" stroke-miterlimit="10"/></g><g transform="translate(-70,-150) scale(1,1)"><path fill="none" stroke="#000000" d="M 505.62972046170086 260.9054144831438 L 510 271 L 514.0476955750245 260.7717958305513" stroke-miterlimit="10"/></g><g transform="translate(-70,-150) scale(1,1)"><g><path fill="none" stroke="none"/><text fill="#000000" stroke="none" font-family="Arial" font-size="13px" font-style="normal" font-weight="normal" text-decoration="none" x="430.5" y="243"> [DIsponibiliza Recomendações]</text></g></g></g></svg>