<svg version="1.1" xmlns="http://www.w3.org/2000/svg" xmlns:xlink="http://www.w3.org/1999/xlink" width="1381" height="483"><defs/><g><text fill="#eeeeee" stroke="none" font-family="Arial" font-size="24px" font-style="normal" font-weight="normal" text-decoration="none" x="0" y="0">UNREGISTERED</text><text fill="#eeeeee" stroke="none" font-family="Arial" font-size="24px" font-style="normal" font-weight="normal" text-decoration="none" x="0" y="30">UNREGISTERED</text><text fill="#eeeeee" stroke="none" font-family="Arial" font-size="24px" font-style="normal" font-weight="normal" text-decoration="none" x="0" y="60">UNREGISTERED</text><text fill="#eeeeee" stroke="none" font-family="Arial" font-size="24px" font-style="normal" font-weight="normal" text-decoration="none" x="0" y="90">UNREGISTERED</text><text fill="#eeeeee" stroke="none" font-family="Arial" font-size="24px" font-style="normal" font-weight="normal" text-decoration="none" x="0" y="120">UNREGISTERED</text><text fill="#eeeeee" stroke="none" font-family="Arial" font-size="24px" font-style="normal" font-weight="normal" text-decoration="none" x="0" y="150">UNREGISTERED</text><text fill="#eeeeee" stroke="none" font-family="Arial" font-size="24px" font-style="normal" font-weight="normal" text-decoration="none" x="0" y="180">UNREGISTERED</text><text fill="#eeeeee" stroke="none" font-family="Arial" font-size="24px" font-style="normal" font-weight="normal" text-decoration="none" x="0" y="210">UNREGISTERED</text><text fill="#eeeeee" stroke="none" font-family="Arial" font-size="24px" font-style="normal" font-weight="normal" text-decoration="none" x="0" y="240">UNREGISTERED</text><text fill="#eeeeee" stroke="none" font-family="Arial" font-size="24px" font-style="normal" font-weight="normal" text-decoration="none" x="0" y="270">UNREGISTERED</text><text fill="#eeeeee" stroke="none" font-family="Arial" font-size="24px" font-style="normal" font-weight="normal" text-decoration="none" x="0" y="300">UNREGISTERED</text><text fill="#eeeeee" stroke="none" font-family="Arial" font-size="24px" font-style="normal" font-weight="normal" text-decoration="none" x="0" y="330">UNREGISTERED</text><text fill="#eeeeee" stroke="none" font-family="Arial" font-size="24px" font-style="normal" font-weight="normal" text-decoration="none" x="0" y="360">UNREGISTERED</text><text fill="#eeeeee" stroke="none" font-family="Arial" font-size="24px" font-style="normal" font-weight="normal" text-decoration="none" x="0" y="390">UNREGISTERED</text><text fill="#eeeeee" stroke="none" font-family="Arial" font-size="24px" font-style="normal" font-weight="normal" text-decoration="none" x="0" y="420">UNREGISTERED</text><text fill="#eeeeee" stroke="none" font-family="Arial" font-size="24px" font-style="normal" font-weight="normal" text-decoration="none" x="0" y="450">UNREGISTERED</text><text fill="#eeeeee" stroke="none" font-family="Arial" font-size="24px" font-style="normal" font-weight="normal" text-decoration="none" x="0" y="480">UNREGISTERED</text><text fill="#eeeeee" stroke="none" font-family="Arial" font-size="24px" font-style="normal" font-weight="normal" text-decoration="none" x="200" y="0">UNREGISTERED</text><text fill="#eeeeee" stroke="none" font-family="Arial" font-size="24px" font-style="normal" font-weight="normal" text-decoration="none" x="200" y="30">UNREGISTERED</text><text fill="#eeeeee" stroke="none" font-family="Arial" font-size="24px" font-style="normal" font-weight="normal" text-decoration="none" x="200" y="60">UNREGISTERED</text><text fill="#eeeeee" stroke="none" font-family="Arial" font-size="24px" font-style="normal" font-weight="normal" text-decoration="none" x="200" y="90">UNREGISTERED</text><text fill="#eeeeee" stroke="none" font-family="Arial" font-size="24px" font-style="normal" font-weight="normal" text-decoration="none" x="200" y="120">UNREGISTERED</text><text fill="#eeeeee" stroke="none" font-family="Arial" font-size="24px" font-style="normal" font-weight="normal" text-decoration="none" x="200" y="150">UNREGISTERED</text><text fill="#eeeeee" stroke="none" font-family="Arial" font-size="24px" font-style="normal" font-weight="normal" text-decoration="none" x="200" y="180">UNREGISTERED</text><text fill="#eeeeee" stroke="none" font-family="Arial" font-size="24px" font-style="normal" font-weight="normal" text-decoration="none" x="200" y="210">UNREGISTERED</text><text fill="#eeeeee" stroke="none" font-family="Arial" font-size="24px" font-style="normal" font-weight="normal" text-decoration="none" x="200" y="240">UNREGISTERED</text><text fill="#eeeeee" stroke="none" font-family="Arial" font-size="24px" font-style="normal" font-weight="normal" text-decoration="none" x="200" y="270">UNREGISTERED</text><text fill="#eeeeee" stroke="none" font-family="Arial" font-size="24px" font-style="normal" font-weight="normal" text-decoration="none" x="200" y="300">UNREGISTERED</text><text fill="#eeeeee" stroke="none" font-family="Arial" font-size="24px" font-style="normal" font-weight="normal" text-decoration="none" x="200" y="330">UNREGISTERED</text><text fill="#eeeeee" stroke="none" font-family="Arial" font-size="24px" font-style="normal" font-weight="normal" text-decoration="none" x="200" y="360">UNREGISTERED</text><text fill="#eeeeee" stroke="none" font-family="Arial" font-size="24px" font-style="normal" font-weight="normal" text-decoration="none" x="200" y="390">UNREGISTERED</text><text fill="#eeeeee" stroke="none" font-family="Arial" font-size="24px" font-style="normal" font-weight="normal" text-decoration="none" x="200" y="420">UNREGISTERED</text><text fill="#eeeeee" stroke="none" font-family="Arial" font-size="24px" font-style="normal" font-weight="normal" text-decoration="none" x="200" y="450">UNREGISTERED</text><text fill="#eeeeee" stroke="none" font-family="Arial" font-size="24px" font-style="normal" font-weight="normal" text-decoration="none" x="200" y="480">UNREGISTERED</text><text fill="#eeeeee" stroke="none" font-family="Arial" font-size="24px" font-style="normal" font-weight="normal" text-decoration="none" x="400" y="0">UNREGISTERED</text><text fill="#eeeeee" stroke="none" font-family="Arial" font-size="24px" font-style="normal" font-weight="normal" text-decoration="none" x="400" y="30">UNREGISTERED</text><text fill="#eeeeee" stroke="none" font-family="Arial" font-size="24px" font-style="normal" font-weight="normal" text-decoration="none" x="400" y="60">UNREGISTERED</text><text fill="#eeeeee" stroke="none" font-family="Arial" font-size="24px" font-style="normal" font-weight="normal" text-decoration="none" x="400" y="90">UNREGISTERED</text><text fill="#eeeeee" stroke="none" font-family="Arial" font-size="24px" font-style="normal" font-weight="normal" text-decoration="none" x="400" y="120">UNREGISTERED</text><text fill="#eeeeee" stroke="none" font-family="Arial" font-size="24px" font-style="normal" font-weight="normal" text-decoration="none" x="400" y="150">UNREGISTERED</text><text fill="#eeeeee" stroke="none" font-family="Arial" font-size="24px" font-style="normal" font-weight="normal" text-decoration="none" x="400" y="180">UNREGISTERED</text><text fill="#eeeeee" stroke="none" font-family="Arial" font-size="24px" font-style="normal" font-weight="normal" text-decoration="none" x="400" y="210">UNREGISTERED</text><text fill="#eeeeee" stroke="none" font-family="Arial" font-size="24px" font-style="normal" font-weight="normal" text-decoration="none" x="400" y="240">UNREGISTERED</text><text fill="#eeeeee" stroke="none" font-family="Arial" font-size="24px" font-style="normal" font-weight="normal" text-decoration="none" x="400" y="270">UNREGISTERED</text><text fill="#eeeeee" stroke="none" font-family="Arial" font-size="24px" font-style="normal" font-weight="normal" text-decoration="none" x="400" y="300">UNREGISTERED</text><text fill="#eeeeee" stroke="none" font-family="Arial" font-size="24px" font-style="normal" font-weight="normal" text-decoration="none" x="400" y="330">UNREGISTERED</text><text fill="#eeeeee" stroke="none" font-family="Arial" font-size="24px" font-style="normal" font-weight="normal" text-decoration="none" x="400" y="360">UNREGISTERED</text><text fill="#eeeeee" stroke="none" font-family="Arial" font-size="24px" font-style="normal" font-weight="normal" text-decoration="none" x="400" y="390">UNREGISTERED</text><text fill="#eeeeee" stroke="none" font-family="Arial" font-size="24px" font-style="normal" font-weight="normal" text-decoration="none" x="400" y="420">UNREGISTERED</text><text fill="#eeeeee" stroke="none" font-family="Arial" font-size="24px" font-style="normal" font-weight="normal" text-decoration="none" x="400" y="450">UNREGISTERED</text><text fill="#eeeeee" stroke="none" font-family="Arial" font-size="24px" font-style="normal" font-weight="normal" text-decoration="none" x="400" y="480">UNREGISTERED</text><text fill="#eeeeee" stroke="none" font-family="Arial" font-size="24px" font-style="normal" font-weight="normal" text-decoration="none" x="600" y="0">UNREGISTERED</text><text fill="#eeeeee" stroke="none" font-family="Arial" font-size="24px" font-style="normal" font-weight="normal" text-decoration="none" x="600" y="30">UNREGISTERED</text><text fill="#eeeeee" stroke="none" font-family="Arial" font-size="24px" font-style="normal" font-weight="normal" text-decoration="none" x="600" y="60">UNREGISTERED</text><text fill="#eeeeee" stroke="none" font-family="Arial" font-size="24px" font-style="normal" font-weight="normal" text-decoration="none" x="600" y="90">UNREGISTERED</text><text fill="#eeeeee" stroke="none" font-family="Arial" font-size="24px" font-style="normal" font-weight="normal" text-decoration="none" x="600" y="120">UNREGISTERED</text><text fill="#eeeeee" stroke="none" font-family="Arial" font-size="24px" font-style="normal" font-weight="normal" text-decoration="none" x="600" y="150">UNREGISTERED</text><text fill="#eeeeee" stroke="none" font-family="Arial" font-size="24px" font-style="normal" font-weight="normal" text-decoration="none" x="600" y="180">UNREGISTERED</text><text fill="#eeeeee" stroke="none" font-family="Arial" font-size="24px" font-style="normal" font-weight="normal" text-decoration="none" x="600" y="210">UNREGISTERED</text><text fill="#eeeeee" stroke="none" font-family="Arial" font-size="24px" font-style="normal" font-weight="normal" text-decoration="none" x="600" y="240">UNREGISTERED</text><text fill="#eeeeee" stroke="none" font-family="Arial" font-size="24px" font-style="normal" font-weight="normal" text-decoration="none" x="600" y="270">UNREGISTERED</text><text fill="#eeeeee" stroke="none" font-family="Arial" font-size="24px" font-style="normal" font-weight="normal" text-decoration="none" x="600" y="300">UNREGISTERED</text><text fill="#eeeeee" stroke="none" font-family="Arial" font-size="24px" font-style="normal" font-weight="normal" text-decoration="none" x="600" y="330">UNREGISTERED</text><text fill="#eeeeee" stroke="none" font-family="Arial" font-size="24px" font-style="normal" font-weight="normal" text-decoration="none" x="600" y="360">UNREGISTERED</text><text fill="#eeeeee" stroke="none" font-family="Arial" font-size="24px" font-style="normal" font-weight="normal" text-decoration="none" x="600" y="390">UNREGISTERED</text><text fill="#eeeeee" stroke="none" font-family="Arial" font-size="24px" font-style="normal" font-weight="normal" text-decoration="none" x="600" y="420">UNREGISTERED</text><text fill="#eeeeee" stroke="none" font-family="Arial" font-size="24px" font-style="normal" font-weight="normal" text-decoration="none" x="600" y="450">UNREGISTERED</text><text fill="#eeeeee" stroke="none" font-family="Arial" font-size="24px" font-style="normal" font-weight="normal" text-decoration="none" x="600" y="480">UNREGISTERED</text><text fill="#eeeeee" stroke="none" font-family="Arial" font-size="24px" font-style="normal" font-weight="normal" text-decoration="none" x="800" y="0">UNREGISTERED</text><text fill="#eeeeee" stroke="none" font-family="Arial" font-size="24px" font-style="normal" font-weight="normal" text-decoration="none" x="800" y="30">UNREGISTERED</text><text fill="#eeeeee" stroke="none" font-family="Arial" font-size="24px" font-style="normal" font-weight="normal" text-decoration="none" x="800" y="60">UNREGISTERED</text><text fill="#eeeeee" stroke="none" font-family="Arial" font-size="24px" font-style="normal" font-weight="normal" text-decoration="none" x="800" y="90">UNREGISTERED</text><text fill="#eeeeee" stroke="none" font-family="Arial" font-size="24px" font-style="normal" font-weight="normal" text-decoration="none" x="800" y="120">UNREGISTERED</text><text fill="#eeeeee" stroke="none" font-family="Arial" font-size="24px" font-style="normal" font-weight="normal" text-decoration="none" x="800" y="150">UNREGISTERED</text><text fill="#eeeeee" stroke="none" font-family="Arial" font-size="24px" font-style="normal" font-weight="normal" text-decoration="none" x="800" y="180">UNREGISTERED</text><text fill="#eeeeee" stroke="none" font-family="Arial" font-size="24px" font-style="normal" font-weight="normal" text-decoration="none" x="800" y="210">UNREGISTERED</text><text fill="#eeeeee" stroke="none" font-family="Arial" font-size="24px" font-style="normal" font-weight="normal" text-decoration="none" x="800" y="240">UNREGISTERED</text><text fill="#eeeeee" stroke="none" font-family="Arial" font-size="24px" font-style="normal" font-weight="normal" text-decoration="none" x="800" y="270">UNREGISTERED</text><text fill="#eeeeee" stroke="none" font-family="Arial" font-size="24px" font-style="normal" font-weight="normal" text-decoration="none" x="800" y="300">UNREGISTERED</text><text fill="#eeeeee" stroke="none" font-family="Arial" font-size="24px" font-style="normal" font-weight="normal" text-decoration="none" x="800" y="330">UNREGISTERED</text><text fill="#eeeeee" stroke="none" font-family="Arial" font-size="24px" font-style="normal" font-weight="normal" text-decoration="none" x="800" y="360">UNREGISTERED</text><text fill="#eeeeee" stroke="none" font-family="Arial" font-size="24px" font-style="normal" font-weight="normal" text-decoration="none" x="800" y="390">UNREGISTERED</text><text fill="#eeeeee" stroke="none" font-family="Arial" font-size="24px" font-style="normal" font-weight="normal" text-decoration="none" x="800" y="420">UNREGISTERED</text><text fill="#eeeeee" stroke="none" font-family="Arial" font-size="24px" font-style="normal" font-weight="normal" text-decoration="none" x="800" y="450">UNREGISTERED</text><text fill="#eeeeee" stroke="none" font-family="Arial" font-size="24px" font-style="normal" font-weight="normal" text-decoration="none" x="800" y="480">UNREGISTERED</text><text fill="#eeeeee" stroke="none" font-family="Arial" font-size="24px" font-style="normal" font-weight="normal" text-decoration="none" x="1000" y="0">UNREGISTERED</text><text fill="#eeeeee" stroke="none" font-family="Arial" font-size="24px" font-style="normal" font-weight="normal" text-decoration="none" x="1000" y="30">UNREGISTERED</text><text fill="#eeeeee" stroke="none" font-family="Arial" font-size="24px" font-style="normal" font-weight="normal" text-decoration="none" x="1000" y="60">UNREGISTERED</text><text fill="#eeeeee" stroke="none" font-family="Arial" font-size="24px" font-style="normal" font-weight="normal" text-decoration="none" x="1000" y="90">UNREGISTERED</text><text fill="#eeeeee" stroke="none" font-family="Arial" font-size="24px" font-style="normal" font-weight="normal" text-decoration="none" x="1000" y="120">UNREGISTERED</text><text fill="#eeeeee" stroke="none" font-family="Arial" font-size="24px" font-style="normal" font-weight="normal" text-decoration="none" x="1000" y="150">UNREGISTERED</text><text fill="#eeeeee" stroke="none" font-family="Arial" font-size="24px" font-style="normal" font-weight="normal" text-decoration="none" x="1000" y="180">UNREGISTERED</text><text fill="#eeeeee" stroke="none" font-family="Arial" font-size="24px" font-style="normal" font-weight="normal" text-decoration="none" x="1000" y="210">UNREGISTERED</text><text fill="#eeeeee" stroke="none" font-family="Arial" font-size="24px" font-style="normal" font-weight="normal" text-decoration="none" x="1000" y="240">UNREGISTERED</text><text fill="#eeeeee" stroke="none" font-family="Arial" font-size="24px" font-style="normal" font-weight="normal" text-decoration="none" x="1000" y="270">UNREGISTERED</text><text fill="#eeeeee" stroke="none" font-family="Arial" font-size="24px" font-style="normal" font-weight="normal" text-decoration="none" x="1000" y="300">UNREGISTERED</text><text fill="#eeeeee" stroke="none" font-family="Arial" font-size="24px" font-style="normal" font-weight="normal" text-decoration="none" x="1000" y="330">UNREGISTERED</text><text fill="#eeeeee" stroke="none" font-family="Arial" font-size="24px" font-style="normal" font-weight="normal" text-decoration="none" x="1000" y="360">UNREGISTERED</text><text fill="#eeeeee" stroke="none" font-family="Arial" font-size="24px" font-style="normal" font-weight="normal" text-decoration="none" x="1000" y="390">UNREGISTERED</text><text fill="#eeeeee" stroke="none" font-family="Arial" font-size="24px" font-style="normal" font-weight="normal" text-decoration="none" x="1000" y="420">UNREGISTERED</text><text fill="#eeeeee" stroke="none" font-family="Arial" font-size="24px" font-style="normal" font-weight="normal" text-decoration="none" x="1000" y="450">UNREGISTERED</text><text fill="#eeeeee" stroke="none" font-family="Arial" font-size="24px" font-style="normal" font-weight="normal" text-decoration="none" x="1000" y="480">UNREGISTERED</text><text fill="#eeeeee" stroke="none" font-family="Arial" font-size="24px" font-style="normal" font-weight="normal" text-decoration="none" x="1200" y="0">UNREGISTERED</text><text fill="#eeeeee" stroke="none" font-family="Arial" font-size="24px" font-style="normal" font-weight="normal" text-decoration="none" x="1200" y="30">UNREGISTERED</text><text fill="#eeeeee" stroke="none" font-family="Arial" font-size="24px" font-style="normal" font-weight="normal" text-decoration="none" x="1200" y="60">UNREGISTERED</text><text fill="#eeeeee" stroke="none" font-family="Arial" font-size="24px" font-style="normal" font-weight="normal" text-decoration="none" x="1200" y="90">UNREGISTERED</text><text fill="#eeeeee" stroke="none" font-family="Arial" font-size="24px" font-style="normal" font-weight="normal" text-decoration="none" x="1200" y="120">UNREGISTERED</text><text fill="#eeeeee" stroke="none" font-family="Arial" font-size="24px" font-style="normal" font-weight="normal" text-decoration="none" x="1200" y="150">UNREGISTERED</text><text fill="#eeeeee" stroke="none" font-family="Arial" font-size="24px" font-style="normal" font-weight="normal" text-decoration="none" x="1200" y="180">UNREGISTERED</text><text fill="#eeeeee" stroke="none" font-family="Arial" font-size="24px" font-style="normal" font-weight="normal" text-decoration="none" x="1200" y="210">UNREGISTERED</text><text fill="#eeeeee" stroke="none" font-family="Arial" font-size="24px" font-style="normal" font-weight="normal" text-decoration="none" x="1200" y="240">UNREGISTERED</text><text fill="#eeeeee" stroke="none" font-family="Arial" font-size="24px" font-style="normal" font-weight="normal" text-decoration="none" x="1200" y="270">UNREGISTERED</text><text fill="#eeeeee" stroke="none" font-family="Arial" font-size="24px" font-style="normal" font-weight="normal" text-decoration="none" x="1200" y="300">UNREGISTERED</text><text fill="#eeeeee" stroke="none" font-family="Arial" font-size="24px" font-style="normal" font-weight="normal" text-decoration="none" x="1200" y="330">UNREGISTERED</text><text fill="#eeeeee" stroke="none" font-family="Arial" font-size="24px" font-style="normal" font-weight="normal" text-decoration="none" x="1200" y="360">UNREGISTERED</text><text fill="#eeeeee" stroke="none" font-family="Arial" font-size="24px" font-style="normal" font-weight="normal" text-decoration="none" x="1200" y="390">UNREGISTERED</text><text fill="#eeeeee" stroke="none" font-family="Arial" font-size="24px" font-style="normal" font-weight="normal" text-decoration="none" x="1200" y="420">UNREGISTERED</text><text fill="#eeeeee" stroke="none" font-family="Arial" font-size="24px" font-style="normal" font-weight="normal" text-decoration="none" x="1200" y="450">UNREGISTERED</text><text fill="#eeeeee" stroke="none" font-family="Arial" font-size="24px" font-style="normal" font-weight="normal" text-decoration="none" x="1200" y="480">UNREGISTERED</text><g transform="translate(-102,-246) scale(1,1)"><path fill="#C0C0C0" stroke="none" d="M 119 464.5 C 119 459.2532944 123.2532944 455 128.5 455 C 133.7467056 455 138 459.2532944 138 464.5 C 138 469.7467056 133.7467056 474 128.5 474 C 123.2532944 474 119 469.7467056 119 464.5 Z" opacity="0.2"/></g><g transform="translate(-102,-246) scale(1,1)"><path fill="#000000" stroke="none" d="M 112 457.5 C 112 452.2532944 116.2532944 448 121.5 448 C 126.7467056 448 131 452.2532944 131 457.5 C 131 462.7467056 126.7467056 467 121.5 467 C 116.2532944 467 112 462.7467056 112 457.5 Z"/></g><g transform="translate(-102,-246) scale(1,1)"><path fill="#C0C0C0" stroke="none" d="M 657 439 L 757.2490234375 439 Q 767.2490234375 439 767.2490234375 449 L 767.2490234375 476 Q 767.2490234375 486 757.2490234375 486 L 657 486 Q 647 486 647 476 L 647 449 Q 647 439 657 439 Z" opacity="0.2"/></g><g transform="translate(-102,-246) scale(1,1)"><path fill="#ffffff" stroke="none" d="M 650 432 L 750.2490234375 432 Q 760.2490234375 432 760.2490234375 442 L 760.2490234375 469 Q 760.2490234375 479 750.2490234375 479 L 650 479 Q 640 479 640 469 L 640 442 Q 640 432 650 432 Z"/></g><g transform="translate(-102,-246) scale(1,1)"><path fill="none" stroke="#000000" d="M 650 432 L 750.2490234375 432 Q 760.2490234375 432 760.2490234375 442 L 760.2490234375 469 Q 760.2490234375 479 750.2490234375 479 L 650 479 Q 640 479 640 469 L 640 442 Q 640 432 650 432 Z" stroke-miterlimit="10"/></g><g transform="translate(-102,-246) scale(1,1)"><path fill="none" stroke="#000000" d="M 640 457 L 760.2490234375 457" stroke-miterlimit="10"/></g><g transform="translate(-102,-246) scale(1,1)"><g><path fill="none" stroke="none"/><text fill="#000000" stroke="none" font-family="Arial" font-size="13px" font-style="normal" font-weight="bold" text-decoration="none" x="644.5" y="450">Ordem Disponível</text></g></g><g transform="translate(-102,-246) scale(1,1)"><g><path fill="none" stroke="none"/><text fill="#000000" stroke="none" font-family="Arial" font-size="13px" font-style="normal" font-weight="normal" text-decoration="none" x="645" y="473">do/ConfereOrdem</text></g></g><g transform="translate(-102,-246) scale(1,1)"><path fill="#C0C0C0" stroke="none" d="M 337 439 L 430.75537109375 439 Q 440.75537109375 439 440.75537109375 449 L 440.75537109375 476 Q 440.75537109375 486 430.75537109375 486 L 337 486 Q 327 486 327 476 L 327 449 Q 327 439 337 439 Z" opacity="0.2"/></g><g transform="translate(-102,-246) scale(1,1)"><path fill="#ffffff" stroke="none" d="M 330 432 L 423.75537109375 432 Q 433.75537109375 432 433.75537109375 442 L 433.75537109375 469 Q 433.75537109375 479 423.75537109375 479 L 330 479 Q 320 479 320 469 L 320 442 Q 320 432 330 432 Z"/></g><g transform="translate(-102,-246) scale(1,1)"><path fill="none" stroke="#000000" d="M 330 432 L 423.75537109375 432 Q 433.75537109375 432 433.75537109375 442 L 433.75537109375 469 Q 433.75537109375 479 423.75537109375 479 L 330 479 Q 320 479 320 469 L 320 442 Q 320 432 330 432 Z" stroke-miterlimit="10"/></g><g transform="translate(-102,-246) scale(1,1)"><path fill="none" stroke="#000000" d="M 320 457 L 433.75537109375 457" stroke-miterlimit="10"/></g><g transform="translate(-102,-246) scale(1,1)"><g><path fill="none" stroke="none"/><text fill="#000000" stroke="none" font-family="Arial" font-size="13px" font-style="normal" font-weight="bold" text-decoration="none" x="324.5" y="450">Entra no sistema</text></g></g><g transform="translate(-102,-246) scale(1,1)"><g><path fill="none" stroke="none"/><text fill="#000000" stroke="none" font-family="Arial" font-size="13px" font-style="normal" font-weight="normal" text-decoration="none" x="325" y="473">do/VIsualizar</text></g></g><g transform="translate(-102,-246) scale(1,1)"><path fill="none" stroke="#000000" d="M 132 457 L 319 455" stroke-miterlimit="10"/></g><g transform="translate(-102,-246) scale(1,1)"><path fill="none" stroke="#000000" d="M 308.882925337162 459.31796251333446 L 319 455 L 308.7928873260486 450.8994084742248" stroke-miterlimit="10"/></g><g transform="translate(-102,-246) scale(1,1)"><g><path fill="none" stroke="none"/><text fill="#000000" stroke="none" font-family="Arial" font-size="13px" font-style="normal" font-weight="normal" text-decoration="none" x="167.708984375" y="446"> [Acessa o sistema]</text></g></g><g transform="translate(-102,-246) scale(1,1)"><path fill="none" stroke="#000000" d="M 435 455 L 639 455" stroke-miterlimit="10"/></g><g transform="translate(-102,-246) scale(1,1)"><path fill="none" stroke="#000000" d="M 628.8373251423759 459.209517756016 L 639 455 L 628.8373251423758 450.790482243984" stroke-miterlimit="10"/></g><g transform="translate(-102,-246) scale(1,1)"><g><path fill="none" stroke="none"/><text fill="#000000" stroke="none" font-family="Arial" font-size="13px" font-style="normal" font-weight="normal" text-decoration="none" x="466.97900390625" y="445"> [Confere se tem ordem]</text></g></g><g transform="translate(-102,-246) scale(1,1)"><path fill="#C0C0C0" stroke="none" d="M 969 263 L 1024.49169921875 263 Q 1034.49169921875 263 1034.49169921875 273 L 1034.49169921875 300 Q 1034.49169921875 310 1024.49169921875 310 L 969 310 Q 959 310 959 300 L 959 273 Q 959 263 969 263 Z" opacity="0.2"/></g><g transform="translate(-102,-246) scale(1,1)"><path fill="#ffffff" stroke="none" d="M 962 256 L 1017.49169921875 256 Q 1027.49169921875 256 1027.49169921875 266 L 1027.49169921875 293 Q 1027.49169921875 303 1017.49169921875 303 L 962 303 Q 952 303 952 293 L 952 266 Q 952 256 962 256 Z"/></g><g transform="translate(-102,-246) scale(1,1)"><path fill="none" stroke="#000000" d="M 962 256 L 1017.49169921875 256 Q 1027.49169921875 256 1027.49169921875 266 L 1027.49169921875 293 Q 1027.49169921875 303 1017.49169921875 303 L 962 303 Q 952 303 952 293 L 952 266 Q 952 256 962 256 Z" stroke-miterlimit="10"/></g><g transform="translate(-102,-246) scale(1,1)"><path fill="none" stroke="#000000" d="M 952 281 L 1027.49169921875 281" stroke-miterlimit="10"/></g><g transform="translate(-102,-246) scale(1,1)"><g><path fill="none" stroke="none"/><text fill="#000000" stroke="none" font-family="Arial" font-size="13px" font-style="normal" font-weight="bold" text-decoration="none" x="966.259521484375" y="274">Se tiver</text></g></g><g transform="translate(-102,-246) scale(1,1)"><g><path fill="none" stroke="none"/><text fill="#000000" stroke="none" font-family="Arial" font-size="13px" font-style="normal" font-weight="normal" text-decoration="none" x="957" y="297">do/Notifica</text></g></g><g transform="translate(-102,-246) scale(1,1)"><path fill="#C0C0C0" stroke="none" d="M 1193 439 L 1309.89892578125 439 Q 1319.89892578125 439 1319.89892578125 449 L 1319.89892578125 476 Q 1319.89892578125 486 1309.89892578125 486 L 1193 486 Q 1183 486 1183 476 L 1183 449 Q 1183 439 1193 439 Z" opacity="0.2"/></g><g transform="translate(-102,-246) scale(1,1)"><path fill="#ffffff" stroke="none" d="M 1186 432 L 1302.89892578125 432 Q 1312.89892578125 432 1312.89892578125 442 L 1312.89892578125 469 Q 1312.89892578125 479 1302.89892578125 479 L 1186 479 Q 1176 479 1176 469 L 1176 442 Q 1176 432 1186 432 Z"/></g><g transform="translate(-102,-246) scale(1,1)"><path fill="none" stroke="#000000" d="M 1186 432 L 1302.89892578125 432 Q 1312.89892578125 432 1312.89892578125 442 L 1312.89892578125 469 Q 1312.89892578125 479 1302.89892578125 479 L 1186 479 Q 1176 479 1176 469 L 1176 442 Q 1176 432 1186 432 Z" stroke-miterlimit="10"/></g><g transform="translate(-102,-246) scale(1,1)"><path fill="none" stroke="#000000" d="M 1176 457 L 1312.89892578125 457" stroke-miterlimit="10"/></g><g transform="translate(-102,-246) scale(1,1)"><g><path fill="none" stroke="none"/><text fill="#000000" stroke="none" font-family="Arial" font-size="13px" font-style="normal" font-weight="bold" text-decoration="none" x="1189.90087890625" y="450">Solicitar mercado</text></g></g><g transform="translate(-102,-246) scale(1,1)"><g><path fill="none" stroke="none"/><text fill="#000000" stroke="none" font-family="Arial" font-size="13px" font-style="normal" font-weight="normal" text-decoration="none" x="1181" y="473">do/SolicitaAltasBaixas</text></g></g><g transform="translate(-102,-246) scale(1,1)"><path fill="#C0C0C0" stroke="none" d="M 951 464.5 L 962.5 455 L 973 464.5 L 962.5 473 L 951 464.5" opacity="0.2"/></g><g transform="translate(-102,-246) scale(1,1)"><path fill="#ffffff" stroke="none" d="M 944 457 L 955 448 L 966 457 L 955 466 L 944 457"/></g><g transform="translate(-102,-246) scale(1,1)"><path fill="none" stroke="#000000" d="M 944 457 L 955 448 L 966 457 L 955 466 L 944 457 L 944 457" stroke-miterlimit="10"/></g><g transform="translate(-102,-246) scale(1,1)"><path fill="none" stroke="#000000" d="M 761 455 L 943 457" stroke-miterlimit="10"/></g><g transform="translate(-102,-246) scale(1,1)"><path fill="none" stroke="#000000" d="M 932.7916830567087 461.09759260850973 L 943 457 L 932.8841943448801 452.67906538491434" stroke-miterlimit="10"/></g><g transform="translate(-102,-246) scale(1,1)"><g><path fill="none" stroke="none"/><text fill="#000000" stroke="none" font-family="Arial" font-size="13px" font-style="normal" font-weight="normal" text-decoration="none" x="770.5" y="442"> [Já tinha ordem para a ação]</text></g></g><g transform="translate(-102,-246) scale(1,1)"><path fill="none" stroke="#000000" d="M 957 447 L 984 304" stroke-miterlimit="10"/></g><g transform="translate(-102,-246) scale(1,1)"><path fill="none" stroke="#000000" d="M 986.250920111716 314.7672354228313 L 984 304 L 977.9780556927876 313.2052260570196" stroke-miterlimit="10"/></g><g transform="translate(-102,-246) scale(1,1)"><g><path fill="none" stroke="none"/><text fill="#000000" stroke="none" font-family="Arial" font-size="13px" font-style="normal" font-weight="normal" text-decoration="none" x="985.72265625" y="390"> [Se sim]</text></g></g><g transform="translate(-102,-246) scale(1,1)"><path fill="#C0C0C0" stroke="none" d="M 1201 679 L 1312.80810546875 679 Q 1322.80810546875 679 1322.80810546875 689 L 1322.80810546875 716 Q 1322.80810546875 726 1312.80810546875 726 L 1201 726 Q 1191 726 1191 716 L 1191 689 Q 1191 679 1201 679 Z" opacity="0.2"/></g><g transform="translate(-102,-246) scale(1,1)"><path fill="#ffffff" stroke="none" d="M 1194 672 L 1305.80810546875 672 Q 1315.80810546875 672 1315.80810546875 682 L 1315.80810546875 709 Q 1315.80810546875 719 1305.80810546875 719 L 1194 719 Q 1184 719 1184 709 L 1184 682 Q 1184 672 1194 672 Z"/></g><g transform="translate(-102,-246) scale(1,1)"><path fill="none" stroke="#000000" d="M 1194 672 L 1305.80810546875 672 Q 1315.80810546875 672 1315.80810546875 682 L 1315.80810546875 709 Q 1315.80810546875 719 1305.80810546875 719 L 1194 719 Q 1184 719 1184 709 L 1184 682 Q 1184 672 1194 672 Z" stroke-miterlimit="10"/></g><g transform="translate(-102,-246) scale(1,1)"><path fill="none" stroke="#000000" d="M 1184 697 L 1315.80810546875 697" stroke-miterlimit="10"/></g><g transform="translate(-102,-246) scale(1,1)"><g><path fill="none" stroke="none"/><text fill="#000000" stroke="none" font-family="Arial" font-size="13px" font-style="normal" font-weight="bold" text-decoration="none" x="1188.5" y="690">Máximos e Mínimos</text></g></g><g transform="translate(-102,-246) scale(1,1)"><g><path fill="none" stroke="none"/><text fill="#000000" stroke="none" font-family="Arial" font-size="13px" font-style="normal" font-weight="normal" text-decoration="none" x="1189" y="713">do/MaximoMinimo</text></g></g><g transform="translate(-102,-246) scale(1,1)"><path fill="#C0C0C0" stroke="none" d="M 1455 587.5 C 1455 580.59644 1460.59644 575 1467.5 575 C 1474.40356 575 1480 580.59644 1480 587.5 C 1480 594.40356 1474.40356 600 1467.5 600 C 1460.59644 600 1455 594.40356 1455 587.5 Z" opacity="0.2"/></g><g transform="translate(-102,-246) scale(1,1)"><path fill="none" stroke="#000000" d="M 1448 580.5 C 1448 573.59644 1453.59644 568 1460.5 568 C 1467.40356 568 1473 573.59644 1473 580.5 C 1473 587.40356 1467.40356 593 1460.5 593 C 1453.59644 593 1448 587.40356 1448 580.5 Z" stroke-miterlimit="10"/></g><g transform="translate(-102,-246) scale(1,1)"><path fill="#000000" stroke="none" d="M 1453 580.5 C 1453 576.357864 1456.357864 573 1460.5 573 C 1464.642136 573 1468 576.357864 1468 580.5 C 1468 584.642136 1464.642136 588 1460.5 588 C 1456.357864 588 1453 584.642136 1453 580.5 Z"/></g><g transform="translate(-102,-246) scale(1,1)"><path fill="none" stroke="#000000" d="M 1293 671 L 1447 587" stroke-miterlimit="10"/></g><g transform="translate(-102,-246) scale(1,1)"><path fill="none" stroke="#000000" d="M 1440.0939692801294 595.5619355110981 L 1447 587 L 1436.0624961869175 588.1709015068762" stroke-miterlimit="10"/></g><g transform="translate(-102,-246) scale(1,1)"><path fill="none" stroke="#000000" d="M 1287 480 L 1447 572" stroke-miterlimit="10"/></g><g transform="translate(-102,-246) scale(1,1)"><path fill="none" stroke="#000000" d="M 1436.0915900615755 570.5834575137736 L 1447 572 L 1440.288236158427 563.2849425627279" stroke-miterlimit="10"/></g><g transform="translate(-102,-246) scale(1,1)"><path fill="none" stroke="#000000" d="M 967 457 L 1175 455" stroke-miterlimit="10"/></g><g transform="translate(-102,-246) scale(1,1)"><path fill="none" stroke="#000000" d="M 1164.8782691692868 459.30703668321877 L 1175 455 L 1164.7973206467345 450.888390337781" stroke-miterlimit="10"/></g><g transform="translate(-102,-246) scale(1,1)"><g><path fill="none" stroke="none"/><text fill="#000000" stroke="none" font-family="Arial" font-size="13px" font-style="normal" font-weight="normal" text-decoration="none" x="1014.5" y="450"> [Se Não]</text></g></g><g transform="translate(-102,-246) scale(1,1)"><path fill="none" stroke="#000000" d="M 967 467 L 1219 671" stroke-miterlimit="10"/></g><g transform="translate(-102,-246) scale(1,1)"><path fill="none" stroke="#000000" d="M 1208.452491978612 667.8774890650699 L 1219 671 L 1213.7497342098752 661.333836897039" stroke-miterlimit="10"/></g><g transform="translate(-102,-246) scale(1,1)"><g><path fill="none" stroke="none"/><text fill="#000000" stroke="none" font-family="Arial" font-size="13px" font-style="normal" font-weight="normal" text-decoration="none" x="990.5" y="570"> [Se Não]</text></g></g><g transform="translate(-102,-246) scale(1,1)"><path fill="none" stroke="#000000" d="M 1025 304 L 1209 431" stroke-miterlimit="10"/></g><g transform="translate(-102,-246) scale(1,1)"><path fill="none" stroke="#000000" d="M 1198.2449526788594 428.6915465956564 L 1209 431 L 1203.0273561635038 421.7627100509747" stroke-miterlimit="10"/></g><g transform="translate(-102,-246) scale(1,1)"><g><path fill="none" stroke="none"/><text fill="#000000" stroke="none" font-family="Arial" font-size="13px" font-style="normal" font-weight="normal" text-decoration="none" x="1095.5" y="347"> [Verificar Mercado]</text></g></g><g transform="translate(-102,-246) scale(1,1)"><path fill="none" stroke="#000000" d="M 1245 480 L 1249 671" stroke-miterlimit="10"/></g><g transform="translate(-102,-246) scale(1,1)"><path fill="none" stroke="#000000" d="M 1244.5786208247448 660.9276911192806 L 1249 671 L 1252.9958107147422 660.7514148912178" stroke-miterlimit="10"/></g><g transform="translate(-102,-246) scale(1,1)"><g><path fill="none" stroke="none"/><text fill="#000000" stroke="none" font-family="Arial" font-size="13px" font-style="normal" font-weight="normal" text-decoration="none" x="1079.5" y="554"> [Possibilidade de verificar Máximos e Mínimos]</text></g></g></g></svg>