<svg version="1.1" xmlns="http://www.w3.org/2000/svg" xmlns:xlink="http://www.w3.org/1999/xlink" width="659.970703125" height="525"><defs/><g><text fill="#eeeeee" stroke="none" font-family="Arial" font-size="24px" font-style="normal" font-weight="normal" text-decoration="none" x="0" y="0">UNREGISTERED</text><text fill="#eeeeee" stroke="none" font-family="Arial" font-size="24px" font-style="normal" font-weight="normal" text-decoration="none" x="0" y="30">UNREGISTERED</text><text fill="#eeeeee" stroke="none" font-family="Arial" font-size="24px" font-style="normal" font-weight="normal" text-decoration="none" x="0" y="60">UNREGISTERED</text><text fill="#eeeeee" stroke="none" font-family="Arial" font-size="24px" font-style="normal" font-weight="normal" text-decoration="none" x="0" y="90">UNREGISTERED</text><text fill="#eeeeee" stroke="none" font-family="Arial" font-size="24px" font-style="normal" font-weight="normal" text-decoration="none" x="0" y="120">UNREGISTERED</text><text fill="#eeeeee" stroke="none" font-family="Arial" font-size="24px" font-style="normal" font-weight="normal" text-decoration="none" x="0" y="150">UNREGISTERED</text><text fill="#eeeeee" stroke="none" font-family="Arial" font-size="24px" font-style="normal" font-weight="normal" text-decoration="none" x="0" y="180">UNREGISTERED</text><text fill="#eeeeee" stroke="none" font-family="Arial" font-size="24px" font-style="normal" font-weight="normal" text-decoration="none" x="0" y="210">UNREGISTERED</text><text fill="#eeeeee" stroke="none" font-family="Arial" font-size="24px" font-style="normal" font-weight="normal" text-decoration="none" x="0" y="240">UNREGISTERED</text><text fill="#eeeeee" stroke="none" font-family="Arial" font-size="24px" font-style="normal" font-weight="normal" text-decoration="none" x="0" y="270">UNREGISTERED</text><text fill="#eeeeee" stroke="none" font-family="Arial" font-size="24px" font-style="normal" font-weight="normal" text-decoration="none" x="0" y="300">UNREGISTERED</text><text fill="#eeeeee" stroke="none" font-family="Arial" font-size="24px" font-style="normal" font-weight="normal" text-decoration="none" x="0" y="330">UNREGISTERED</text><text fill="#eeeeee" stroke="none" font-family="Arial" font-size="24px" font-style="normal" font-weight="normal" text-decoration="none" x="0" y="360">UNREGISTERED</text><text fill="#eeeeee" stroke="none" font-family="Arial" font-size="24px" font-style="normal" font-weight="normal" text-decoration="none" x="0" y="390">UNREGISTERED</text><text fill="#eeeeee" stroke="none" font-family="Arial" font-size="24px" font-style="normal" font-weight="normal" text-decoration="none" x="0" y="420">UNREGISTERED</text><text fill="#eeeeee" stroke="none" font-family="Arial" font-size="24px" font-style="normal" font-weight="normal" text-decoration="none" x="0" y="450">UNREGISTERED</text><text fill="#eeeeee" stroke="none" font-family="Arial" font-size="24px" font-style="normal" font-weight="normal" text-decoration="none" x="0" y="480">UNREGISTERED</text><text fill="#eeeeee" stroke="none" font-family="Arial" font-size="24px" font-style="normal" font-weight="normal" text-decoration="none" x="0" y="510">UNREGISTERED</text><text fill="#eeeeee" stroke="none" font-family="Arial" font-size="24px" font-style="normal" font-weight="normal" text-decoration="none" x="200" y="0">UNREGISTERED</text><text fill="#eeeeee" stroke="none" font-family="Arial" font-size="24px" font-style="normal" font-weight="normal" text-decoration="none" x="200" y="30">UNREGISTERED</text><text fill="#eeeeee" stroke="none" font-family="Arial" font-size="24px" font-style="normal" font-weight="normal" text-decoration="none" x="200" y="60">UNREGISTERED</text><text fill="#eeeeee" stroke="none" font-family="Arial" font-size="24px" font-style="normal" font-weight="normal" text-decoration="none" x="200" y="90">UNREGISTERED</text><text fill="#eeeeee" stroke="none" font-family="Arial" font-size="24px" font-style="normal" font-weight="normal" text-decoration="none" x="200" y="120">UNREGISTERED</text><text fill="#eeeeee" stroke="none" font-family="Arial" font-size="24px" font-style="normal" font-weight="normal" text-decoration="none" x="200" y="150">UNREGISTERED</text><text fill="#eeeeee" stroke="none" font-family="Arial" font-size="24px" font-style="normal" font-weight="normal" text-decoration="none" x="200" y="180">UNREGISTERED</text><text fill="#eeeeee" stroke="none" font-family="Arial" font-size="24px" font-style="normal" font-weight="normal" text-decoration="none" x="200" y="210">UNREGISTERED</text><text fill="#eeeeee" stroke="none" font-family="Arial" font-size="24px" font-style="normal" font-weight="normal" text-decoration="none" x="200" y="240">UNREGISTERED</text><text fill="#eeeeee" stroke="none" font-family="Arial" font-size="24px" font-style="normal" font-weight="normal" text-decoration="none" x="200" y="270">UNREGISTERED</text><text fill="#eeeeee" stroke="none" font-family="Arial" font-size="24px" font-style="normal" font-weight="normal" text-decoration="none" x="200" y="300">UNREGISTERED</text><text fill="#eeeeee" stroke="none" font-family="Arial" font-size="24px" font-style="normal" font-weight="normal" text-decoration="none" x="200" y="330">UNREGISTERED</text><text fill="#eeeeee" stroke="none" font-family="Arial" font-size="24px" font-style="normal" font-weight="normal" text-decoration="none" x="200" y="360">UNREGISTERED</text><text fill="#eeeeee" stroke="none" font-family="Arial" font-size="24px" font-style="normal" font-weight="normal" text-decoration="none" x="200" y="390">UNREGISTERED</text><text fill="#eeeeee" stroke="none" font-family="Arial" font-size="24px" font-style="normal" font-weight="normal" text-decoration="none" x="200" y="420">UNREGISTERED</text><text fill="#eeeeee" stroke="none" font-family="Arial" font-size="24px" font-style="normal" font-weight="normal" text-decoration="none" x="200" y="450">UNREGISTERED</text><text fill="#eeeeee" stroke="none" font-family="Arial" font-size="24px" font-style="normal" font-weight="normal" text-decoration="none" x="200" y="480">UNREGISTERED</text><text fill="#eeeeee" stroke="none" font-family="Arial" font-size="24px" font-style="normal" font-weight="normal" text-decoration="none" x="200" y="510">UNREGISTERED</text><text fill="#eeeeee" stroke="none" font-family="Arial" font-size="24px" font-style="normal" font-weight="normal" text-decoration="none" x="400" y="0">UNREGISTERED</text><text fill="#eeeeee" stroke="none" font-family="Arial" font-size="24px" font-style="normal" font-weight="normal" text-decoration="none" x="400" y="30">UNREGISTERED</text><text fill="#eeeeee" stroke="none" font-family="Arial" font-size="24px" font-style="normal" font-weight="normal" text-decoration="none" x="400" y="60">UNREGISTERED</text><text fill="#eeeeee" stroke="none" font-family="Arial" font-size="24px" font-style="normal" font-weight="normal" text-decoration="none" x="400" y="90">UNREGISTERED</text><text fill="#eeeeee" stroke="none" font-family="Arial" font-size="24px" font-style="normal" font-weight="normal" text-decoration="none" x="400" y="120">UNREGISTERED</text><text fill="#eeeeee" stroke="none" font-family="Arial" font-size="24px" font-style="normal" font-weight="normal" text-decoration="none" x="400" y="150">UNREGISTERED</text><text fill="#eeeeee" stroke="none" font-family="Arial" font-size="24px" font-style="normal" font-weight="normal" text-decoration="none" x="400" y="180">UNREGISTERED</text><text fill="#eeeeee" stroke="none" font-family="Arial" font-size="24px" font-style="normal" font-weight="normal" text-decoration="none" x="400" y="210">UNREGISTERED</text><text fill="#eeeeee" stroke="none" font-family="Arial" font-size="24px" font-style="normal" font-weight="normal" text-decoration="none" x="400" y="240">UNREGISTERED</text><text fill="#eeeeee" stroke="none" font-family="Arial" font-size="24px" font-style="normal" font-weight="normal" text-decoration="none" x="400" y="270">UNREGISTERED</text><text fill="#eeeeee" stroke="none" font-family="Arial" font-size="24px" font-style="normal" font-weight="normal" text-decoration="none" x="400" y="300">UNREGISTERED</text><text fill="#eeeeee" stroke="none" font-family="Arial" font-size="24px" font-style="normal" font-weight="normal" text-decoration="none" x="400" y="330">UNREGISTERED</text><text fill="#eeeeee" stroke="none" font-family="Arial" font-size="24px" font-style="normal" font-weight="normal" text-decoration="none" x="400" y="360">UNREGISTERED</text><text fill="#eeeeee" stroke="none" font-family="Arial" font-size="24px" font-style="normal" font-weight="normal" text-decoration="none" x="400" y="390">UNREGISTERED</text><text fill="#eeeeee" stroke="none" font-family="Arial" font-size="24px" font-style="normal" font-weight="normal" text-decoration="none" x="400" y="420">UNREGISTERED</text><text fill="#eeeeee" stroke="none" font-family="Arial" font-size="24px" font-style="normal" font-weight="normal" text-decoration="none" x="400" y="450">UNREGISTERED</text><text fill="#eeeeee" stroke="none" font-family="Arial" font-size="24px" font-style="normal" font-weight="normal" text-decoration="none" x="400" y="480">UNREGISTERED</text><text fill="#eeeeee" stroke="none" font-family="Arial" font-size="24px" font-style="normal" font-weight="normal" text-decoration="none" x="400" y="510">UNREGISTERED</text><text fill="#eeeeee" stroke="none" font-family="Arial" font-size="24px" font-style="normal" font-weight="normal" text-decoration="none" x="600" y="0">UNREGISTERED</text><text fill="#eeeeee" stroke="none" font-family="Arial" font-size="24px" font-style="normal" font-weight="normal" text-decoration="none" x="600" y="30">UNREGISTERED</text><text fill="#eeeeee" stroke="none" font-family="Arial" font-size="24px" font-style="normal" font-weight="normal" text-decoration="none" x="600" y="60">UNREGISTERED</text><text fill="#eeeeee" stroke="none" font-family="Arial" font-size="24px" font-style="normal" font-weight="normal" text-decoration="none" x="600" y="90">UNREGISTERED</text><text fill="#eeeeee" stroke="none" font-family="Arial" font-size="24px" font-style="normal" font-weight="normal" text-decoration="none" x="600" y="120">UNREGISTERED</text><text fill="#eeeeee" stroke="none" font-family="Arial" font-size="24px" font-style="normal" font-weight="normal" text-decoration="none" x="600" y="150">UNREGISTERED</text><text fill="#eeeeee" stroke="none" font-family="Arial" font-size="24px" font-style="normal" font-weight="normal" text-decoration="none" x="600" y="180">UNREGISTERED</text><text fill="#eeeeee" stroke="none" font-family="Arial" font-size="24px" font-style="normal" font-weight="normal" text-decoration="none" x="600" y="210">UNREGISTERED</text><text fill="#eeeeee" stroke="none" font-family="Arial" font-size="24px" font-style="normal" font-weight="normal" text-decoration="none" x="600" y="240">UNREGISTERED</text><text fill="#eeeeee" stroke="none" font-family="Arial" font-size="24px" font-style="normal" font-weight="normal" text-decoration="none" x="600" y="270">UNREGISTERED</text><text fill="#eeeeee" stroke="none" font-family="Arial" font-size="24px" font-style="normal" font-weight="normal" text-decoration="none" x="600" y="300">UNREGISTERED</text><text fill="#eeeeee" stroke="none" font-family="Arial" font-size="24px" font-style="normal" font-weight="normal" text-decoration="none" x="600" y="330">UNREGISTERED</text><text fill="#eeeeee" stroke="none" font-family="Arial" font-size="24px" font-style="normal" font-weight="normal" text-decoration="none" x="600" y="360">UNREGISTERED</text><text fill="#eeeeee" stroke="none" font-family="Arial" font-size="24px" font-style="normal" font-weight="normal" text-decoration="none" x="600" y="390">UNREGISTERED</text><text fill="#eeeeee" stroke="none" font-family="Arial" font-size="24px" font-style="normal" font-weight="normal" text-decoration="none" x="600" y="420">UNREGISTERED</text><text fill="#eeeeee" stroke="none" font-family="Arial" font-size="24px" font-style="normal" font-weight="normal" text-decoration="none" x="600" y="450">UNREGISTERED</text><text fill="#eeeeee" stroke="none" font-family="Arial" font-size="24px" font-style="normal" font-weight="normal" text-decoration="none" x="600" y="480">UNREGISTERED</text><text fill="#eeeeee" stroke="none" font-family="Arial" font-size="24px" font-style="normal" font-weight="normal" text-decoration="none" x="600" y="510">UNREGISTERED</text><g transform="translate(-46,-134) scale(1,1)"><path fill="#C0C0C0" stroke="none" d="M 63 176.5 C 63 171.2532944 67.2532944 167 72.5 167 C 77.7467056 167 82 171.2532944 82 176.5 C 82 181.7467056 77.7467056 186 72.5 186 C 67.2532944 186 63 181.7467056 63 176.5 Z" opacity="0.2"/></g><g transform="translate(-46,-134) scale(1,1)"><path fill="#000000" stroke="none" d="M 56 169.5 C 56 164.2532944 60.2532944 160 65.5 160 C 70.7467056 160 75 164.2532944 75 169.5 C 75 174.7467056 70.7467056 179 65.5 179 C 60.2532944 179 56 174.7467056 56 169.5 Z"/></g><g transform="translate(-46,-134) scale(1,1)"><path fill="#C0C0C0" stroke="none" d="M 281 151 L 356.00439453125 151 Q 366.00439453125 151 366.00439453125 161 L 366.00439453125 188 Q 366.00439453125 198 356.00439453125 198 L 281 198 Q 271 198 271 188 L 271 161 Q 271 151 281 151 Z" opacity="0.2"/></g><g transform="translate(-46,-134) scale(1,1)"><path fill="#ffffff" stroke="none" d="M 274 144 L 349.00439453125 144 Q 359.00439453125 144 359.00439453125 154 L 359.00439453125 181 Q 359.00439453125 191 349.00439453125 191 L 274 191 Q 264 191 264 181 L 264 154 Q 264 144 274 144 Z"/></g><g transform="translate(-46,-134) scale(1,1)"><path fill="none" stroke="#000000" d="M 274 144 L 349.00439453125 144 Q 359.00439453125 144 359.00439453125 154 L 359.00439453125 181 Q 359.00439453125 191 349.00439453125 191 L 274 191 Q 264 191 264 181 L 264 154 Q 264 144 274 144 Z" stroke-miterlimit="10"/></g><g transform="translate(-46,-134) scale(1,1)"><path fill="none" stroke="#000000" d="M 264 169 L 359.00439453125 169" stroke-miterlimit="10"/></g><g transform="translate(-46,-134) scale(1,1)"><g><path fill="none" stroke="none"/><text fill="#000000" stroke="none" font-family="Arial" font-size="13px" font-style="normal" font-weight="bold" text-decoration="none" x="293.814453125" y="162">Login</text></g></g><g transform="translate(-46,-134) scale(1,1)"><g><path fill="none" stroke="none"/><text fill="#000000" stroke="none" font-family="Arial" font-size="13px" font-style="normal" font-weight="normal" text-decoration="none" x="269" y="185">do/Login</text></g></g><g transform="translate(-46,-134) scale(1,1)"><path fill="none" stroke="#000000" d="M 76 169 L 263 167" stroke-miterlimit="10"/></g><g transform="translate(-46,-134) scale(1,1)"><path fill="none" stroke="#000000" d="M 252.88292533716202 171.31796251333446 L 263 167 L 252.79288732604854 162.89940847422477" stroke-miterlimit="10"/></g><g transform="translate(-46,-134) scale(1,1)"><g><path fill="none" stroke="none"/><text fill="#000000" stroke="none" font-family="Arial" font-size="13px" font-style="normal" font-weight="normal" text-decoration="none" x="129.522216796875" y="158"> [Inicia Login]</text></g></g><g transform="translate(-46,-134) scale(1,1)"><path fill="#C0C0C0" stroke="none" d="M 553 151 L 655.46435546875 151 Q 665.46435546875 151 665.46435546875 161 L 665.46435546875 188 Q 665.46435546875 198 655.46435546875 198 L 553 198 Q 543 198 543 188 L 543 161 Q 543 151 553 151 Z" opacity="0.2"/></g><g transform="translate(-46,-134) scale(1,1)"><path fill="#ffffff" stroke="none" d="M 546 144 L 648.46435546875 144 Q 658.46435546875 144 658.46435546875 154 L 658.46435546875 181 Q 658.46435546875 191 648.46435546875 191 L 546 191 Q 536 191 536 181 L 536 154 Q 536 144 546 144 Z"/></g><g transform="translate(-46,-134) scale(1,1)"><path fill="none" stroke="#000000" d="M 546 144 L 648.46435546875 144 Q 658.46435546875 144 658.46435546875 154 L 658.46435546875 181 Q 658.46435546875 191 648.46435546875 191 L 546 191 Q 536 191 536 181 L 536 154 Q 536 144 546 144 Z" stroke-miterlimit="10"/></g><g transform="translate(-46,-134) scale(1,1)"><path fill="none" stroke="#000000" d="M 536 169 L 658.46435546875 169" stroke-miterlimit="10"/></g><g transform="translate(-46,-134) scale(1,1)"><g><path fill="none" stroke="none"/><text fill="#000000" stroke="none" font-family="Arial" font-size="13px" font-style="normal" font-weight="bold" text-decoration="none" x="583.8671875" y="162">Erro</text></g></g><g transform="translate(-46,-134) scale(1,1)"><g><path fill="none" stroke="none"/><text fill="#000000" stroke="none" font-family="Arial" font-size="13px" font-style="normal" font-weight="normal" text-decoration="none" x="541" y="185">do/BloqueiaUsuario</text></g></g><g transform="translate(-46,-134) scale(1,1)"><path fill="none" stroke="#000000" d="M 360 167 L 535 167" stroke-miterlimit="10"/></g><g transform="translate(-46,-134) scale(1,1)"><path fill="none" stroke="#000000" d="M 524.8373251423759 171.209517756016 L 535 167 L 524.8373251423758 162.790482243984" stroke-miterlimit="10"/></g><g transform="translate(-46,-134) scale(1,1)"><g><path fill="none" stroke="none"/><text fill="#000000" stroke="none" font-family="Arial" font-size="13px" font-style="normal" font-weight="normal" text-decoration="none" x="400.5" y="157"> [Errou a senha]</text></g></g><g transform="translate(-46,-134) scale(1,1)"><path fill="#C0C0C0" stroke="none" d="M 553 279 L 674.98974609375 279 Q 684.98974609375 279 684.98974609375 289 L 684.98974609375 316 Q 684.98974609375 326 674.98974609375 326 L 553 326 Q 543 326 543 316 L 543 289 Q 543 279 553 279 Z" opacity="0.2"/></g><g transform="translate(-46,-134) scale(1,1)"><path fill="#ffffff" stroke="none" d="M 546 272 L 667.98974609375 272 Q 677.98974609375 272 677.98974609375 282 L 677.98974609375 309 Q 677.98974609375 319 667.98974609375 319 L 546 319 Q 536 319 536 309 L 536 282 Q 536 272 546 272 Z"/></g><g transform="translate(-46,-134) scale(1,1)"><path fill="none" stroke="#000000" d="M 546 272 L 667.98974609375 272 Q 677.98974609375 272 677.98974609375 282 L 677.98974609375 309 Q 677.98974609375 319 667.98974609375 319 L 546 319 Q 536 319 536 309 L 536 282 Q 536 272 546 272 Z" stroke-miterlimit="10"/></g><g transform="translate(-46,-134) scale(1,1)"><path fill="none" stroke="#000000" d="M 536 297 L 677.98974609375 297" stroke-miterlimit="10"/></g><g transform="translate(-46,-134) scale(1,1)"><g><path fill="none" stroke="none"/><text fill="#000000" stroke="none" font-family="Arial" font-size="13px" font-style="normal" font-weight="bold" text-decoration="none" x="574.8408203125" y="290">Recuperar</text></g></g><g transform="translate(-46,-134) scale(1,1)"><g><path fill="none" stroke="none"/><text fill="#000000" stroke="none" font-family="Arial" font-size="13px" font-style="normal" font-weight="normal" text-decoration="none" x="541" y="313">do/RecuperacaoSenha</text></g></g><g transform="translate(-46,-134) scale(1,1)"><path fill="none" stroke="#000000" d="M 360 188 L 551 271" stroke-miterlimit="10"/></g><g transform="translate(-46,-134) scale(1,1)"><path fill="none" stroke="#000000" d="M 540.001634049171 270.81040461069745 L 551 271 L 543.3570450396551 263.08891666874007" stroke-miterlimit="10"/></g><g transform="translate(-46,-134) scale(1,1)"><g><path fill="none" stroke="none"/><text fill="#000000" stroke="none" font-family="Arial" font-size="13px" font-style="normal" font-weight="normal" text-decoration="none" x="430.5" y="220"> [Esqueceu a Senha]</text></g></g><g transform="translate(-46,-134) scale(1,1)"><path fill="#C0C0C0" stroke="none" d="M 249 375 L 380.33984375 375 Q 390.33984375 375 390.33984375 385 L 390.33984375 412 Q 390.33984375 422 380.33984375 422 L 249 422 Q 239 422 239 412 L 239 385 Q 239 375 249 375 Z" opacity="0.2"/></g><g transform="translate(-46,-134) scale(1,1)"><path fill="#ffffff" stroke="none" d="M 242 368 L 373.33984375 368 Q 383.33984375 368 383.33984375 378 L 383.33984375 405 Q 383.33984375 415 373.33984375 415 L 242 415 Q 232 415 232 405 L 232 378 Q 232 368 242 368 Z"/></g><g transform="translate(-46,-134) scale(1,1)"><path fill="none" stroke="#000000" d="M 242 368 L 373.33984375 368 Q 383.33984375 368 383.33984375 378 L 383.33984375 405 Q 383.33984375 415 373.33984375 415 L 242 415 Q 232 415 232 405 L 232 378 Q 232 368 242 368 Z" stroke-miterlimit="10"/></g><g transform="translate(-46,-134) scale(1,1)"><path fill="none" stroke="#000000" d="M 232 393 L 383.33984375 393" stroke-miterlimit="10"/></g><g transform="translate(-46,-134) scale(1,1)"><g><path fill="none" stroke="none"/><text fill="#000000" stroke="none" font-family="Arial" font-size="13px" font-style="normal" font-weight="bold" text-decoration="none" x="287.804931640625" y="386">Ajuste</text></g></g><g transform="translate(-46,-134) scale(1,1)"><g><path fill="none" stroke="none"/><text fill="#000000" stroke="none" font-family="Arial" font-size="13px" font-style="normal" font-weight="normal" text-decoration="none" x="237" y="409">do/ModificarInformacoes</text></g></g><g transform="translate(-46,-134) scale(1,1)"><path fill="none" stroke="#000000" d="M 311 192 L 307 367" stroke-miterlimit="10"/></g><g transform="translate(-46,-134) scale(1,1)"><path fill="none" stroke="#000000" d="M 303.0238104974609 356.7437864179855 L 307 367 L 311.4406476126118 356.9361712663318" stroke-miterlimit="10"/></g><g transform="translate(-46,-134) scale(1,1)"><g><path fill="none" stroke="none"/><text fill="#000000" stroke="none" font-family="Arial" font-size="13px" font-style="normal" font-weight="normal" text-decoration="none" x="309.5" y="284"> [Ajusta Login]</text></g></g><g transform="translate(-46,-134) scale(1,1)"><path fill="#C0C0C0" stroke="none" d="M 545 375 L 692.970703125 375 Q 702.970703125 375 702.970703125 385 L 702.970703125 412 Q 702.970703125 422 692.970703125 422 L 545 422 Q 535 422 535 412 L 535 385 Q 535 375 545 375 Z" opacity="0.2"/></g><g transform="translate(-46,-134) scale(1,1)"><path fill="#ffffff" stroke="none" d="M 538 368 L 685.970703125 368 Q 695.970703125 368 695.970703125 378 L 695.970703125 405 Q 695.970703125 415 685.970703125 415 L 538 415 Q 528 415 528 405 L 528 378 Q 528 368 538 368 Z"/></g><g transform="translate(-46,-134) scale(1,1)"><path fill="none" stroke="#000000" d="M 538 368 L 685.970703125 368 Q 695.970703125 368 695.970703125 378 L 695.970703125 405 Q 695.970703125 415 685.970703125 415 L 538 415 Q 528 415 528 405 L 528 378 Q 528 368 538 368 Z" stroke-miterlimit="10"/></g><g transform="translate(-46,-134) scale(1,1)"><path fill="none" stroke="#000000" d="M 528 393 L 695.970703125 393" stroke-miterlimit="10"/></g><g transform="translate(-46,-134) scale(1,1)"><g><path fill="none" stroke="none"/><text fill="#000000" stroke="none" font-family="Arial" font-size="13px" font-style="normal" font-weight="bold" text-decoration="none" x="589.9462890625" y="386">Alertas</text></g></g><g transform="translate(-46,-134) scale(1,1)"><g><path fill="none" stroke="none"/><text fill="#000000" stroke="none" font-family="Arial" font-size="13px" font-style="normal" font-weight="normal" text-decoration="none" x="533" y="409">do/HabilitaDesabilitaAlertas</text></g></g><g transform="translate(-46,-134) scale(1,1)"><path fill="none" stroke="#000000" d="M 384 391 L 527 391" stroke-miterlimit="10"/></g><g transform="translate(-46,-134) scale(1,1)"><path fill="none" stroke="#000000" d="M 516.8373251423759 395.209517756016 L 527 391 L 516.8373251423758 386.790482243984" stroke-miterlimit="10"/></g><g transform="translate(-46,-134) scale(1,1)"><g><path fill="none" stroke="none"/><text fill="#000000" stroke="none" font-family="Arial" font-size="13px" font-style="normal" font-weight="normal" text-decoration="none" x="400.5" y="381"> [Mudança Alarme]</text></g></g><g transform="translate(-46,-134) scale(1,1)"><path fill="#C0C0C0" stroke="none" d="M 273 519 L 358.12890625 519 Q 368.12890625 519 368.12890625 529 L 368.12890625 556 Q 368.12890625 566 358.12890625 566 L 273 566 Q 263 566 263 556 L 263 529 Q 263 519 273 519 Z" opacity="0.2"/></g><g transform="translate(-46,-134) scale(1,1)"><path fill="#ffffff" stroke="none" d="M 266 512 L 351.12890625 512 Q 361.12890625 512 361.12890625 522 L 361.12890625 549 Q 361.12890625 559 351.12890625 559 L 266 559 Q 256 559 256 549 L 256 522 Q 256 512 266 512 Z"/></g><g transform="translate(-46,-134) scale(1,1)"><path fill="none" stroke="#000000" d="M 266 512 L 351.12890625 512 Q 361.12890625 512 361.12890625 522 L 361.12890625 549 Q 361.12890625 559 351.12890625 559 L 266 559 Q 256 559 256 549 L 256 522 Q 256 512 266 512 Z" stroke-miterlimit="10"/></g><g transform="translate(-46,-134) scale(1,1)"><path fill="none" stroke="#000000" d="M 256 537 L 361.12890625 537" stroke-miterlimit="10"/></g><g transform="translate(-46,-134) scale(1,1)"><g><path fill="none" stroke="none"/><text fill="#000000" stroke="none" font-family="Arial" font-size="13px" font-style="normal" font-weight="bold" text-decoration="none" x="283.6435546875" y="530">Atualiza</text></g></g><g transform="translate(-46,-134) scale(1,1)"><g><path fill="none" stroke="none"/><text fill="#000000" stroke="none" font-family="Arial" font-size="13px" font-style="normal" font-weight="normal" text-decoration="none" x="261" y="553">do/AtualizaLogin</text></g></g><g transform="translate(-46,-134) scale(1,1)"><path fill="none" stroke="#000000" d="M 307 416 L 308 511" stroke-miterlimit="10"/></g><g transform="translate(-46,-134) scale(1,1)"><path fill="none" stroke="#000000" d="M 303.6837458401975 500.8821963832071 L 308 511 L 312.1023149624271 500.793579866131" stroke-miterlimit="10"/></g><g transform="translate(-46,-134) scale(1,1)"><g><path fill="none" stroke="none"/><text fill="#000000" stroke="none" font-family="Arial" font-size="13px" font-style="normal" font-weight="normal" text-decoration="none" x="259.5" y="467"> [Alterar informações]</text></g></g><g transform="translate(-46,-134) scale(1,1)"><path fill="#C0C0C0" stroke="none" d="M 303 643.5 C 303 636.59644 308.59644 631 315.5 631 C 322.40356 631 328 636.59644 328 643.5 C 328 650.40356 322.40356 656 315.5 656 C 308.59644 656 303 650.40356 303 643.5 Z" opacity="0.2"/></g><g transform="translate(-46,-134) scale(1,1)"><path fill="none" stroke="#000000" d="M 296 636.5 C 296 629.59644 301.59644 624 308.5 624 C 315.40356 624 321 629.59644 321 636.5 C 321 643.40356 315.40356 649 308.5 649 C 301.59644 649 296 643.40356 296 636.5 Z" stroke-miterlimit="10"/></g><g transform="translate(-46,-134) scale(1,1)"><path fill="#000000" stroke="none" d="M 301 636.5 C 301 632.357864 304.357864 629 308.5 629 C 312.642136 629 316 632.357864 316 636.5 C 316 640.642136 312.642136 644 308.5 644 C 304.357864 644 301 640.642136 301 636.5 Z"/></g><g transform="translate(-46,-134) scale(1,1)"><path fill="none" stroke="#000000" d="M 308 560 L 308 623" stroke-miterlimit="10"/></g><g transform="translate(-46,-134) scale(1,1)"><path fill="none" stroke="#000000" d="M 303.790482243984 612.8373251423759 L 308 623 L 312.209517756016 612.8373251423759" stroke-miterlimit="10"/></g><g transform="translate(-46,-134) scale(1,1)"><g><path fill="none" stroke="none"/><text fill="#000000" stroke="none" font-family="Arial" font-size="13px" font-style="normal" font-weight="normal" text-decoration="none" x="255.5" y="595"> [Atualiza Informações]</text></g></g></g></svg>